<svg width="16" height="16" viewBox="0 0 16 16" fill="none" xmlns="http://www.w3.org/2000/svg">
<g clip-path="url(#clip0)">
<path d="M15.2608 0.936844H12.1703V0.471645C12.1703 0.211218 11.9591 0 11.6987 0C11.4382 0 11.227 0.211218 11.227 0.471645V0.936844H8.4716V0.471645C8.4716 0.211218 8.26039 0 7.99996 0C7.73953 0 7.52831 0.211218 7.52831 0.471645V0.936844H4.89001V0.471645C4.89001 0.211218 4.67879 0 4.41837 0C4.15794 0 3.94672 0.211218 3.94672 0.471645V0.936844H0.739223C0.478796 0.936844 0.267578 1.14806 0.267578 1.40849V12.0655C0.267578 12.3259 0.478796 12.5371 0.739223 12.5371H3.63402C4.09788 14.5191 5.87866 16 7.99996 16C10.1213 16 11.902 14.519 12.3659 12.5371H15.2607C15.5211 12.5371 15.7323 12.3259 15.7323 12.0655V1.40849C15.7324 1.14806 15.5213 0.936844 15.2608 0.936844ZM3.94672 1.88013V2.30634C3.94672 2.56677 4.15794 2.77799 4.41837 2.77799C4.67879 2.77799 4.89001 2.56677 4.89001 2.30634V1.88013H7.52831V2.30634C7.52831 2.56677 7.73953 2.77799 7.99996 2.77799C8.26039 2.77799 8.4716 2.56677 8.4716 2.30634V1.88013H11.227V2.30634C11.227 2.56677 11.4382 2.77799 11.6987 2.77799C11.9591 2.77799 12.1703 2.56677 12.1703 2.30634V1.88013H14.7891V3.80885H1.21087V1.88013H3.94672ZM7.99996 15.0567C6.04719 15.0567 4.45846 13.468 4.45846 11.5152C4.45846 9.56244 6.04719 7.97371 7.99996 7.97371C9.95273 7.97371 11.5415 9.56236 11.5415 11.5152C11.5415 13.4681 9.9528 15.0567 7.99996 15.0567ZM12.4828 11.5938C12.4833 11.5676 12.4848 11.5415 12.4848 11.5152C12.4848 9.0423 10.4729 7.03042 7.99996 7.03042C5.52705 7.03042 3.51517 9.0423 3.51517 11.5152C3.51517 11.5415 3.51674 11.5676 3.51713 11.5938H1.21079V4.75221H14.7891V11.5938H12.4828Z" fill="#40A1DD"/>
<path d="M8.47161 11.6342V9.35255C8.47161 9.09212 8.26039 8.88091 7.99996 8.88091C7.73954 8.88091 7.52832 9.09212 7.52832 9.35255V11.8296C7.52832 11.9547 7.578 12.0747 7.66643 12.1632L8.75043 13.2472C8.84256 13.3393 8.96322 13.3854 9.08396 13.3854C9.20462 13.3854 9.32536 13.3393 9.41749 13.2472C9.60167 13.0631 9.60167 12.7644 9.41749 12.5803L8.47161 11.6342Z" fill="#40A1DD"/>
</g>
<defs>
<clipPath id="clip0">
<rect width="16" height="16" fill="white"/>
</clipPath>
</defs>
</svg>
