<?xml version="1.0" encoding="UTF-8"?>
<svg width="41px" height="38px" viewBox="0 0 41 38" version="1.1" xmlns="http://www.w3.org/2000/svg" xmlns:xlink="http://www.w3.org/1999/xlink">
    <!-- Generator: Sketch 46.2 (44496) - http://www.bohemiancoding.com/sketch -->
    <title>camera</title>
    <desc>Created with Sketch.</desc>
    <defs></defs>
    <g id="Sign-Up" stroke="none" stroke-width="1" fill="none" fill-rule="evenodd">
        <g id="camera" fill="#FFFFFF">
            <path d="M14.35,0.202951532 L10.5985,4.31406264 L4.1,4.31406264 C1.845,4.31406264 0,6.16406264 0,8.42517375 L0,33.0918404 C0,35.3529515 1.845,37.2029515 4.1,37.2029515 L36.9,37.2029515 C39.155,37.2029515 41,35.3529515 41,33.0918404 L41,8.42517375 C41,6.16406264 39.155,4.31406264 36.9,4.31406264 L30.4015,4.31406264 L26.65,0.202951532 L14.35,0.202951532 L14.35,0.202951532 Z M20.5,31.256523 C14.6594839,31.256523 9.91935484,26.520523 9.91935484,20.6850944 C9.91935484,14.8496658 14.6594839,10.1136658 20.5,10.1136658 C26.3405161,10.1136658 31.0806452,14.8496658 31.0806452,20.6850944 C31.0806452,26.520523 26.3405161,31.256523 20.5,31.256523 L20.5,31.256523 Z M20.5,27.2922372 C24.1522056,27.2922372 27.1129032,24.3341186 27.1129032,20.6850944 C27.1129032,17.0360701 24.1522056,14.0779515 20.5,14.0779515 C16.8477944,14.0779515 13.8870968,17.0360701 13.8870968,20.6850944 C13.8870968,24.3341186 16.8477944,27.2922372 20.5,27.2922372 Z" id="Icon"></path>
        </g>
    </g>
</svg>