<svg width="16" height="16" viewBox="0 0 16 16" fill="none" xmlns="http://www.w3.org/2000/svg">
<path d="M8.00282 8.55478e-08C4.80182 -0.000466483 1.90883 1.90757 0.64893 4.85018L0.549217 4.88324L0.587876 4.99922C-1.07098 9.09056 0.90091 13.752 4.99225 15.4109C5.94782 15.7983 6.9693 15.9972 8.00045 15.9967C12.4178 15.9973 15.9993 12.4169 16 7.99953C16.0006 3.58218 12.4202 0.000633286 8.00282 8.55478e-08ZM14.2766 12.0309L13.8659 11.6205V10.6644C13.8664 10.6232 13.8572 10.5824 13.8392 10.5453L12.7994 8.46863V7.4651C12.7994 7.37599 12.755 7.29274 12.6808 7.24328L11.881 6.71006C11.8183 6.6682 11.7408 6.65484 11.6677 6.67327L10.6882 6.91802L9.0429 6.21203L8.81655 4.62623L9.44388 3.99916H10.7905L11.2438 4.68035C11.2847 4.74161 11.3492 4.78323 11.4219 4.79526L13.0215 5.06187C13.0644 5.06907 13.1083 5.06557 13.1495 5.05174L14.6228 4.56065C15.8585 6.93198 15.7263 9.78409 14.2766 12.0309ZM13.177 2.62718L12.7435 2.91619L11.5349 2.67437L10.7508 2.41336C10.7028 2.39707 10.6512 2.395 10.602 2.4075L9.61078 2.65518L9.1762 2.51041L9.49827 1.86628H10.3999C10.4413 1.86631 10.4821 1.85674 10.5191 1.83828L11.4416 1.37705C12.0769 1.70864 12.6613 2.12962 13.177 2.62718ZM5.08027 1.12856L5.72013 1.55514C5.75159 1.57607 5.78712 1.59007 5.82438 1.5962L7.11637 1.81162L6.99026 2.18888L6.31707 2.41363C6.25678 2.43369 6.20563 2.47462 6.17284 2.52907L5.40713 3.80507L4.17725 4.54305L2.3643 4.80193C2.2329 4.82049 2.13518 4.9329 2.13502 5.06561V5.86544C2.13502 5.93616 2.16314 6.00394 2.21313 6.05393L2.66824 6.50904V6.96707L1.55914 6.2275L1.15682 5.02055C1.92226 3.27158 3.3252 1.87987 5.08027 1.12856ZM4.32122 9.86993L3.11614 9.62865L2.66824 8.73524V8.1087L3.66163 7.11531L4.02929 7.85089C4.07444 7.94127 4.16686 7.99836 4.2679 7.99833H5.98327L6.70552 9.20208C6.75371 9.28229 6.84043 9.33135 6.93401 9.33138H7.67519L7.48856 10.2664L6.47917 11.2758C6.42908 11.3257 6.40089 11.3935 6.40079 11.4643V12.1308L5.44099 12.8506C5.37387 12.901 5.33434 12.98 5.33434 13.0639V14.0269L5.00268 13.9171L4.53451 12.7461V10.1312C4.53455 10.0045 4.44536 9.89526 4.32122 9.86993ZM3.51979 13.9684C1.00602 12.0825 -0.0570552 8.82402 0.860885 5.81852L1.08244 6.48291C1.1011 6.53913 1.13796 6.58755 1.18722 6.62048L2.51627 7.50643L2.21313 7.80983C2.16314 7.85982 2.13502 7.92761 2.13502 7.99833V8.79816C2.13498 8.83952 2.14455 8.88031 2.16301 8.91733L2.69623 9.98378C2.73316 10.0574 2.80204 10.1099 2.88286 10.1259L4.00262 10.3496V12.7973C4.00259 12.8312 4.00902 12.8648 4.02155 12.8962L4.55478 14.2293C4.58397 14.3021 4.64376 14.3584 4.71821 14.3831L5.51804 14.6497C5.54477 14.6588 5.57276 14.6635 5.60096 14.6636C5.74819 14.6636 5.86757 14.5442 5.86757 14.397V13.1972L6.82736 12.4774C6.89448 12.427 6.93401 12.348 6.93401 12.2641V11.5746L7.92233 10.5863C7.95949 10.5491 7.98482 10.5017 7.99512 10.4501L8.26173 9.11703C8.29059 8.97262 8.19694 8.83218 8.05254 8.80332C8.03538 8.79989 8.01795 8.79816 8.00045 8.79816H7.08491L6.36266 7.59441C6.31447 7.51419 6.22776 7.46514 6.13418 7.4651H4.43267L3.97463 6.5461C3.93627 6.46938 3.86335 6.41579 3.77867 6.40213C3.69402 6.3875 3.60761 6.41542 3.54752 6.47678L3.20146 6.82151V6.39866C3.20146 6.32794 3.17333 6.26016 3.12334 6.21017L2.66824 5.75506V5.29676L4.30576 5.06294C4.34092 5.05784 4.37475 5.04578 4.40521 5.02748L5.73826 4.22765C5.77565 4.20519 5.80698 4.17386 5.82944 4.13647L6.57862 2.88793L7.28487 2.65225C7.36462 2.62608 7.4272 2.56353 7.45337 2.48375L7.71998 1.68391C7.76617 1.54411 7.69028 1.39331 7.55048 1.34712C7.53758 1.34285 7.52435 1.33959 7.51095 1.33732L5.96781 1.08004L5.69667 0.899279C7.37442 0.353193 9.19157 0.420779 10.8241 1.08991L10.337 1.33305H9.3335C9.23196 1.33249 9.13894 1.38968 9.09355 1.48049L8.56033 2.54693C8.49465 2.67871 8.5482 2.83881 8.67997 2.90449C8.69121 2.91009 8.7028 2.91489 8.7147 2.91886L9.51453 3.18547C9.56252 3.20176 9.61418 3.20383 9.6633 3.19133L10.6546 2.94365L11.3808 3.18547C11.3912 3.1892 11.4019 3.19207 11.4128 3.194L12.7459 3.46061C12.8152 3.47474 12.8873 3.46054 12.9461 3.42115L13.5529 3.01644C13.8515 3.34907 14.1199 3.70766 14.3548 4.08794L13.0431 4.52519L11.6229 4.28844L11.1537 3.58458C11.1045 3.51083 11.0218 3.46637 10.9332 3.46594H9.3335C9.26278 3.46594 9.195 3.49407 9.14501 3.54406L8.34518 4.34389C8.28579 4.40324 8.25783 4.48713 8.26973 4.57024L8.53634 6.43652C8.54977 6.5288 8.61042 6.60735 8.6963 6.64368L10.5626 7.44351C10.616 7.46667 10.6757 7.47144 10.7321 7.45711L11.6842 7.21902L12.2662 7.60774V8.53155C12.2658 8.57281 12.2749 8.6136 12.2929 8.65072L13.3327 10.7274V11.7309C13.3327 11.8016 13.3608 11.8694 13.4108 11.9194L13.9685 12.4774C11.4949 15.7745 6.81687 16.4421 3.51979 13.9684Z" fill="#0DC39F"/>
</svg>
