<svg width="568" height="195" viewBox="0 0 568 195" fill="none" xmlns="http://www.w3.org/2000/svg">
<mask id="mask0_518_233" style="mask-type:alpha" maskUnits="userSpaceOnUse" x="0" y="0" width="568" height="195">
<rect width="568" height="195" fill="#C4C4C4"/>
</mask>
<g mask="url(#mask0_518_233)">
<rect width="568" height="196" fill="url(#paint0_linear_518_233)"/>
<path opacity="0.2" d="M767.186 213.207L763.51 221.016L497.046 112.86L499.543 109.393L767.186 213.207Z" fill="white"/>
<path opacity="0.2" d="M502.087 96.9825L501.729 102.406L581.9 110.493L581.373 108.582L502.087 96.9825Z" fill="white"/>
<path opacity="0.2" d="M145 19L146.5 10.5L432 45L430.5 49L145 19Z" fill="white"/>
<path opacity="0.2" d="M221 103.5L223.5 95L300.5 123L300 124.5L221 103.5Z" fill="#FAFBFB"/>
<path opacity="0.2" d="M391 96.0943L389.524 91L330 116.472L330.984 118L391 96.0943Z" fill="white"/>
<path opacity="0.2" d="M296.399 212.123L301.478 213.648L312.391 149.829L310.573 149.826L296.399 212.123Z" fill="white"/>
<g opacity="0.2" clip-path="url(#clip0_518_233)">
<path d="M488.751 51.3055C484.688 51.9698 481.924 55.8141 482.588 59.8769C483.253 63.9396 487.097 66.7035 491.16 66.0393C495.222 65.375 497.986 61.5309 497.322 57.468C496.658 53.4052 492.813 50.6413 488.751 51.3055ZM490.557 62.356C488.526 62.6881 486.604 61.3063 486.272 59.2747C485.94 57.2433 487.321 55.321 489.353 54.9889C491.385 54.6567 493.307 56.0386 493.639 58.0702C493.971 60.1018 492.589 62.0238 490.557 62.356Z" fill="white"/>
<path d="M402.917 127.741C398.855 128.405 396.091 132.25 396.755 136.312C397.419 140.375 401.263 143.139 405.326 142.475C409.389 141.811 412.153 137.966 411.489 133.903C410.824 129.841 406.98 127.077 402.917 127.741ZM404.724 138.792C402.693 139.124 400.77 137.742 400.438 135.71C400.106 133.679 401.488 131.757 403.52 131.424C405.551 131.092 407.473 132.474 407.805 134.506C408.137 136.537 406.756 138.459 404.724 138.792Z" fill="white"/>
<path d="M485.56 54.2173L468.417 49.1443C467.428 48.8503 466.391 49.4168 466.099 50.4046C465.807 51.3922 466.372 52.4307 467.359 52.723L484.502 57.796C484.781 57.879 485.063 57.8934 485.331 57.8495C486.017 57.7375 486.612 57.2468 486.82 56.5357C487.113 55.5481 486.548 54.5097 485.56 54.2173Z" fill="white"/>
<path d="M480.536 128.287C476.473 128.951 473.71 132.796 474.374 136.858C475.038 140.921 478.882 143.685 482.945 143.021C487.008 142.357 489.772 138.512 489.108 134.45C488.443 130.387 484.599 127.623 480.536 128.287ZM482.343 139.337C480.312 139.67 478.389 138.288 478.057 136.256C477.725 134.225 479.107 132.303 481.139 131.971C483.17 131.638 485.092 133.02 485.424 135.052C485.757 137.083 484.374 139.005 482.343 139.337Z" fill="white"/>
<path d="M477.346 131.199L460.203 126.126C459.213 125.832 458.177 126.397 457.885 127.387C457.592 128.374 458.157 129.413 459.145 129.705L476.288 134.778C476.566 134.861 476.848 134.875 477.117 134.831C477.802 134.719 478.397 134.229 478.606 133.518C478.898 132.53 478.334 131.492 477.346 131.199Z" fill="white"/>
<path d="M445.382 86.7609C441.319 87.4252 438.556 91.2694 439.22 95.3322C439.884 99.3952 443.728 102.159 447.791 101.495C451.854 100.83 454.618 96.986 453.954 92.9233C453.289 88.8605 449.445 86.0966 445.382 86.7609ZM447.189 97.8113C445.158 98.1434 443.235 96.7616 442.903 94.73C442.571 92.6986 443.953 90.7764 445.985 90.4442C448.016 90.1121 449.938 91.4939 450.27 93.5255C450.602 95.5571 449.22 97.4791 447.189 97.8113Z" fill="white"/>
<path d="M442.559 89.824L428.798 82.3069C427.894 81.8174 426.76 82.1446 426.265 83.0501C425.772 83.9553 426.103 85.0885 427.008 85.5836L440.769 93.1007C441.149 93.3071 441.567 93.3692 441.963 93.3045C442.512 93.2147 443.014 92.8832 443.302 92.3576C443.795 91.4522 443.464 90.3188 442.559 89.824Z" fill="white"/>
<path d="M478.232 79.4989C467.062 81.3253 459.459 91.9002 461.285 103.07C463.112 114.241 473.687 121.844 484.857 120.017C496.027 118.191 503.63 107.616 501.804 96.4458C499.977 85.2756 489.402 77.6726 478.232 79.4989ZM484.255 116.333C475.114 117.828 466.463 111.609 464.969 102.468C463.475 93.3274 469.694 84.6767 478.835 83.1823C487.975 81.6878 496.626 87.9073 498.12 97.0478C499.615 106.188 493.395 114.839 484.255 116.333Z" fill="white"/>
<path d="M479.437 86.8656C475.374 87.5299 472.61 91.3742 473.274 95.4369C473.939 99.4999 477.783 102.264 481.846 101.599C485.909 100.935 488.672 97.0908 488.008 93.028C487.344 88.9652 483.5 86.2013 479.437 86.8656ZM481.244 97.916C479.212 98.2481 477.29 96.8663 476.958 94.8347C476.626 92.8033 478.007 90.8811 480.039 90.5489C482.07 90.2168 483.993 91.5986 484.325 93.6302C484.657 95.6618 483.275 97.5839 481.244 97.916Z" fill="white"/>
<path d="M487.791 104.41L477.105 106.157C473.958 106.671 471.805 109.582 472.306 112.643L473.099 117.498C473.207 118.155 473.656 118.705 474.279 118.942C477.658 120.224 481.315 120.596 484.857 120.017C488.399 119.438 491.747 117.92 494.542 115.629C495.057 115.208 495.308 114.541 495.2 113.886L494.407 109.031C493.906 105.968 490.939 103.895 487.791 104.41ZM491.337 113.389C487.126 116.422 481.561 117.332 476.603 115.798L475.989 112.042C475.821 111.011 476.591 110.023 477.707 109.84L488.393 108.093C489.509 107.911 490.554 108.602 490.723 109.633L491.337 113.389L491.337 113.389Z" fill="white"/>
<path d="M437.644 108.827C426.474 110.653 418.871 121.228 420.697 132.398C422.524 143.568 433.099 151.171 444.269 149.345C455.439 147.519 463.042 136.944 461.216 125.773C459.389 114.603 448.814 107.001 437.644 108.827ZM443.667 145.661C434.526 147.156 425.875 140.936 424.381 131.796C422.887 122.655 429.106 114.005 438.246 112.51C447.387 111.016 456.038 117.235 457.532 126.376C459.027 135.516 452.807 144.167 443.667 145.661Z" fill="white"/>
<path d="M438.849 116.193C434.786 116.858 432.022 120.702 432.686 124.765C433.351 128.828 437.195 131.591 441.258 130.927C445.32 130.263 448.084 126.419 447.42 122.356C446.756 118.293 442.912 115.529 438.849 116.193ZM440.656 127.244C438.624 127.576 436.702 126.194 436.37 124.163C436.038 122.131 437.419 120.209 439.451 119.877C441.482 119.545 443.405 120.927 443.737 122.958C444.069 124.99 442.687 126.912 440.656 127.244Z" fill="white"/>
<path d="M447.203 133.737L436.517 135.484C433.37 135.998 431.217 138.909 431.717 141.97L432.511 146.825C432.619 147.482 433.068 148.033 433.691 148.269C437.07 149.551 440.727 149.923 444.269 149.344C447.811 148.765 451.159 147.248 453.954 144.956C454.469 144.536 454.719 143.869 454.612 143.213L453.819 138.358C453.318 135.296 450.35 133.222 447.203 133.737ZM450.749 142.716C446.538 145.749 440.973 146.659 436.015 145.125L435.401 141.37C435.232 140.338 436.003 139.35 437.119 139.167L447.805 137.42C448.921 137.238 449.966 137.929 450.135 138.961L450.749 142.716L450.749 142.716Z" fill="white"/>
<path d="M406.174 66.6974C395.004 68.5237 387.401 79.0987 389.227 90.2689C391.053 101.439 401.628 109.042 412.798 107.216C423.969 105.389 431.571 94.8144 429.745 83.6442C427.919 72.4741 417.344 64.8712 406.174 66.6974ZM412.196 103.532C403.056 105.027 394.405 98.8072 392.91 89.6666C391.416 80.5261 397.635 71.8754 406.776 70.381C415.916 68.8865 424.567 75.1059 426.062 84.2465C427.556 93.387 421.337 102.038 412.196 103.532Z" fill="white"/>
<path d="M407.378 74.0648C403.315 74.7291 400.552 78.5734 401.216 82.6362C401.88 86.6989 405.724 89.4628 409.787 88.7985C413.85 88.1343 416.614 84.29 415.95 80.2272C415.285 76.1645 411.441 73.4006 407.378 74.0648ZM409.185 85.1152C407.154 85.4473 405.231 84.0655 404.899 82.0339C404.567 80.0023 405.949 78.0803 407.98 77.7481C410.012 77.416 411.934 78.7978 412.266 80.8294C412.598 82.861 411.216 84.7831 409.185 85.1152Z" fill="white"/>
<path d="M415.732 91.6086L405.047 93.3556C401.899 93.8702 399.746 96.7808 400.247 99.8417L401.041 104.697C401.148 105.354 401.597 105.904 402.22 106.141C405.599 107.423 409.257 107.795 412.798 107.216C416.34 106.637 419.689 105.119 422.483 102.828C422.999 102.407 423.249 101.74 423.142 101.085L422.348 96.2301C421.847 93.1673 418.88 91.094 415.732 91.6086ZM419.279 100.588C415.068 103.621 409.502 104.531 404.545 102.997L403.931 99.2414C403.762 98.2099 404.533 97.2217 405.649 97.0392L416.334 95.2921C417.45 95.1097 418.496 95.801 418.664 96.8324L419.278 100.588L419.279 100.588Z" fill="white"/>
<path d="M446.461 35.5282C435.291 37.3545 427.688 47.9295 429.514 59.0997C431.34 70.2699 441.915 77.8728 453.086 76.0465C464.256 74.2202 471.859 63.6453 470.032 52.4751C468.206 41.3049 457.631 33.702 446.461 35.5282ZM452.483 72.363C443.343 73.8575 434.692 67.638 433.198 58.4975C431.703 49.3569 437.923 40.7062 447.063 39.2118C456.204 37.7173 464.854 43.9368 466.349 53.0773C467.843 62.2179 461.624 70.8685 452.483 72.363Z" fill="white"/>
<path d="M447.665 42.8949C443.602 43.5592 440.839 47.4035 441.503 51.4662C442.167 55.529 446.011 58.2929 450.074 57.6286C454.137 56.9644 456.901 53.1203 456.237 49.0575C455.572 44.9948 451.728 42.2306 447.665 42.8949ZM449.472 53.9453C447.441 54.2774 445.518 52.8956 445.186 50.864C444.854 48.8326 446.236 46.9104 448.267 46.5782C450.299 46.2461 452.221 47.6279 452.553 49.6595C452.885 51.6911 451.503 53.6132 449.472 53.9453Z" fill="white"/>
<path d="M456.019 60.4389L445.334 62.186C442.186 62.7006 440.034 65.6111 440.534 68.672L441.328 73.5268C441.435 74.1842 441.884 74.7348 442.508 74.9715C445.886 76.2532 449.544 76.6254 453.085 76.0463C456.627 75.4673 459.976 73.9497 462.77 71.6586C463.286 71.2377 463.536 70.5708 463.429 69.9153L462.635 65.0605C462.134 61.9974 459.167 59.9243 456.019 60.4389ZM459.566 69.4179C455.355 72.4511 449.789 73.361 444.832 71.8269L444.218 68.0717C444.049 67.0402 444.82 66.052 445.936 65.8695L456.621 64.1224C457.737 63.94 458.783 64.6313 458.951 65.6627L459.565 69.4179L459.566 69.4179Z" fill="white"/>
<path d="M432.561 57.3704C431.774 56.7086 430.597 56.8064 429.931 57.5942L418.954 70.6026C418.288 71.3901 418.388 72.5671 419.176 73.2325C419.61 73.5983 420.162 73.7333 420.681 73.6484C421.105 73.5791 421.506 73.3641 421.805 73.0087L432.783 60.0003C433.449 59.2127 433.349 58.0358 432.561 57.3704Z" fill="white"/>
<path d="M477.985 80.2974L464.525 67.3702C463.782 66.654 462.601 66.6824 461.887 67.4233C461.172 68.1661 461.197 69.3476 461.94 70.0601L475.399 82.9873C475.841 83.4106 476.435 83.5743 476.995 83.4827C477.378 83.4201 477.747 83.2368 478.038 82.9339C478.752 82.1913 478.727 81.0098 477.985 80.2974Z" fill="white"/>
<path d="M467.057 108.38C466.314 107.665 465.133 107.69 464.418 108.433L455.392 117.83C454.677 118.573 454.702 119.754 455.445 120.467C455.886 120.89 456.48 121.054 457.04 120.962C457.425 120.899 457.792 120.715 458.083 120.413L467.11 111.016C467.824 110.274 467.8 109.092 467.057 108.38Z" fill="white"/>
<path d="M422.238 130.255L409.346 132.363C408.329 132.529 407.639 133.487 407.805 134.505C407.972 135.524 408.931 136.212 409.948 136.046L422.84 133.938C423.857 133.772 424.547 132.814 424.381 131.795C424.214 130.777 423.255 130.089 422.238 130.255Z" fill="white"/>
</g>
<g opacity="0.2" clip-path="url(#clip1_518_233)">
<path d="M336.766 121.749C335.33 121.575 334.02 122.601 333.846 124.038C333.672 125.474 334.698 126.784 336.134 126.958C337.571 127.133 338.88 126.106 339.055 124.67C339.229 123.234 338.203 121.924 336.766 121.749ZM336.292 125.656C335.574 125.569 335.061 124.914 335.148 124.196C335.235 123.478 335.89 122.964 336.608 123.052C337.327 123.139 337.84 123.794 337.753 124.512C337.665 125.23 337.01 125.743 336.292 125.656Z" fill="white"/>
<path d="M300.301 139.127C298.864 138.953 297.554 139.979 297.38 141.415C297.206 142.852 298.232 144.162 299.668 144.336C301.105 144.51 302.415 143.484 302.589 142.048C302.763 140.611 301.737 139.301 300.301 139.127ZM299.827 143.034C299.108 142.947 298.595 142.292 298.682 141.574C298.769 140.855 299.424 140.342 300.143 140.429C300.861 140.516 301.374 141.171 301.287 141.89C301.2 142.608 300.545 143.121 299.827 143.034Z" fill="white"/>
<path d="M335.404 122.419L330.116 119.025C329.811 118.829 329.405 118.919 329.21 119.223C329.014 119.528 329.103 119.934 329.408 120.129L334.696 123.523C334.782 123.578 334.876 123.611 334.971 123.622C335.213 123.652 335.462 123.545 335.602 123.325C335.797 123.02 335.709 122.615 335.404 122.419Z" fill="white"/>
<path d="M326.443 146.925C325.007 146.75 323.697 147.777 323.523 149.213C323.348 150.649 324.375 151.959 325.811 152.134C327.248 152.308 328.557 151.282 328.732 149.845C328.906 148.409 327.88 147.099 326.443 146.925ZM325.969 150.831C325.251 150.744 324.738 150.089 324.825 149.371C324.912 148.653 325.567 148.14 326.285 148.227C327.003 148.314 327.517 148.969 327.43 149.687C327.342 150.406 326.687 150.919 325.969 150.831Z" fill="white"/>
<path d="M325.081 147.595L319.793 144.201C319.488 144.005 319.082 144.094 318.887 144.399C318.691 144.704 318.78 145.11 319.085 145.305L324.373 148.699C324.459 148.754 324.552 148.787 324.647 148.798C324.89 148.827 325.139 148.72 325.279 148.501C325.474 148.196 325.386 147.79 325.081 147.595Z" fill="white"/>
<path d="M318.652 129.462C317.216 129.287 315.906 130.314 315.732 131.75C315.557 133.186 316.584 134.496 318.02 134.67C319.456 134.845 320.766 133.818 320.94 132.382C321.115 130.946 320.088 129.636 318.652 129.462ZM318.178 133.368C317.46 133.281 316.947 132.626 317.034 131.908C317.121 131.19 317.776 130.677 318.494 130.764C319.212 130.851 319.725 131.506 319.638 132.224C319.551 132.942 318.896 133.455 318.178 133.368Z" fill="white"/>
<path d="M317.399 130.218L313.492 126.332C313.235 126.078 312.82 126.077 312.564 126.334C312.309 126.591 312.309 127.006 312.566 127.262L316.473 131.149C316.581 131.256 316.716 131.318 316.856 131.335C317.05 131.358 317.252 131.296 317.401 131.146C317.656 130.889 317.656 130.474 317.399 130.218Z" fill="white"/>
<path d="M330.451 130.233C326.502 129.753 322.899 132.577 322.42 136.526C321.94 140.475 324.764 144.078 328.713 144.557C332.662 145.037 336.265 142.213 336.744 138.264C337.224 134.315 334.4 130.712 330.451 130.233ZM328.871 143.255C325.639 142.863 323.33 139.915 323.722 136.684C324.114 133.452 327.062 131.143 330.293 131.535C333.525 131.927 335.834 134.875 335.442 138.106C335.05 141.338 332.102 143.647 328.871 143.255Z" fill="white"/>
<path d="M330.135 132.837C328.699 132.663 327.389 133.689 327.215 135.126C327.04 136.562 328.067 137.872 329.503 138.046C330.939 138.221 332.249 137.194 332.423 135.758C332.598 134.322 331.571 133.012 330.135 132.837ZM329.661 136.744C328.943 136.657 328.43 136.002 328.517 135.284C328.604 134.566 329.259 134.052 329.977 134.14C330.695 134.227 331.208 134.882 331.121 135.6C331.034 136.318 330.379 136.831 329.661 136.744Z" fill="white"/>
<path d="M331.234 139.578L327.456 139.119C326.343 138.984 325.331 139.755 325.2 140.837L324.992 142.554C324.963 142.786 325.061 143.016 325.248 143.157C326.263 143.921 327.461 144.405 328.713 144.557C329.965 144.709 331.244 144.526 332.412 144.026C332.627 143.935 332.777 143.734 332.805 143.503L333.013 141.786C333.145 140.703 332.347 139.713 331.234 139.578ZM331.55 142.956C329.831 143.567 327.864 143.328 326.341 142.324L326.502 140.996C326.546 140.631 326.903 140.374 327.298 140.421L331.076 140.88C331.47 140.928 331.755 141.264 331.711 141.628L331.55 142.956L331.55 142.956Z" fill="white"/>
<path d="M313.876 136.15C309.927 135.671 306.324 138.494 305.845 142.443C305.365 146.392 308.189 149.995 312.138 150.475C316.087 150.954 319.69 148.131 320.169 144.181C320.648 140.232 317.825 136.629 313.876 136.15ZM312.296 149.172C309.064 148.78 306.755 145.833 307.147 142.601C307.539 139.37 310.487 137.06 313.718 137.452C316.95 137.844 319.259 140.792 318.867 144.023C318.475 147.255 315.527 149.564 312.296 149.172Z" fill="white"/>
<path d="M313.56 138.754C312.124 138.58 310.814 139.606 310.639 141.043C310.465 142.479 311.492 143.789 312.928 143.963C314.364 144.138 315.674 143.111 315.848 141.675C316.023 140.239 314.996 138.929 313.56 138.754ZM313.086 142.661C312.368 142.574 311.855 141.919 311.942 141.201C312.029 140.483 312.684 139.969 313.402 140.056C314.12 140.144 314.633 140.799 314.546 141.517C314.459 142.235 313.804 142.748 313.086 142.661Z" fill="white"/>
<path d="M314.659 145.495L310.881 145.036C309.768 144.901 308.756 145.672 308.625 146.754L308.417 148.471C308.388 148.703 308.486 148.933 308.673 149.074C309.688 149.838 310.886 150.322 312.138 150.474C313.39 150.626 314.669 150.443 315.837 149.943C316.052 149.852 316.202 149.651 316.23 149.42L316.438 147.703C316.57 146.62 315.772 145.63 314.659 145.495ZM314.975 148.873C313.256 149.484 311.289 149.245 309.766 148.241L309.927 146.913C309.971 146.548 310.328 146.291 310.723 146.338L314.501 146.797C314.895 146.845 315.18 147.181 315.136 147.545L314.975 148.873L314.975 148.873Z" fill="white"/>
<path d="M307.387 118.845C303.438 118.365 299.835 121.189 299.356 125.138C298.876 129.087 301.7 132.69 305.649 133.169C309.598 133.648 313.201 130.825 313.68 126.876C314.159 122.927 311.336 119.324 307.387 118.845ZM305.807 131.867C302.575 131.475 300.266 128.527 300.658 125.296C301.05 122.064 303.998 119.755 307.229 120.147C310.461 120.539 312.77 123.487 312.378 126.718C311.986 129.95 309.038 132.259 305.807 131.867Z" fill="white"/>
<path d="M307.071 121.449C305.635 121.275 304.325 122.301 304.15 123.738C303.976 125.174 305.003 126.484 306.439 126.658C307.875 126.832 309.185 125.806 309.359 124.37C309.534 122.933 308.507 121.623 307.071 121.449ZM306.597 125.356C305.879 125.269 305.366 124.614 305.453 123.896C305.54 123.177 306.195 122.664 306.913 122.751C307.631 122.838 308.144 123.493 308.057 124.212C307.97 124.93 307.315 125.443 306.597 125.356Z" fill="white"/>
<path d="M308.17 128.189L304.392 127.731C303.279 127.596 302.267 128.367 302.136 129.449L301.927 131.166C301.899 131.398 301.997 131.628 302.184 131.769C303.199 132.533 304.396 133.017 305.649 133.169C306.901 133.321 308.18 133.137 309.348 132.638C309.563 132.547 309.713 132.346 309.741 132.114L309.949 130.398C310.081 129.315 309.282 128.324 308.17 128.189ZM308.486 131.568C306.767 132.178 304.799 131.94 303.277 130.936L303.438 129.608C303.482 129.243 303.839 128.985 304.234 129.033L308.012 129.492C308.406 129.54 308.691 129.875 308.647 130.24L308.486 131.568L308.486 131.568Z" fill="white"/>
<path d="M324.041 112.276C320.092 111.797 316.489 114.621 316.01 118.57C315.53 122.519 318.354 126.122 322.303 126.601C326.252 127.08 329.855 124.257 330.334 120.308C330.813 116.359 327.99 112.756 324.041 112.276ZM322.461 125.299C319.229 124.907 316.92 121.959 317.312 118.728C317.704 115.496 320.652 113.187 323.883 113.579C327.115 113.971 329.424 116.918 329.032 120.15C328.64 123.381 325.692 125.691 322.461 125.299Z" fill="white"/>
<path d="M323.725 114.881C322.289 114.706 320.979 115.733 320.805 117.169C320.63 118.605 321.657 119.915 323.093 120.09C324.529 120.264 325.839 119.238 326.013 117.801C326.188 116.365 325.161 115.055 323.725 114.881ZM323.251 118.787C322.533 118.7 322.02 118.045 322.107 117.327C322.194 116.609 322.849 116.096 323.567 116.183C324.285 116.27 324.798 116.925 324.711 117.643C324.624 118.361 323.969 118.875 323.251 118.787Z" fill="white"/>
<path d="M324.824 121.621L321.046 121.163C319.933 121.028 318.921 121.799 318.79 122.881L318.582 124.597C318.553 124.83 318.651 125.06 318.838 125.201C319.853 125.965 321.051 126.449 322.303 126.601C323.555 126.753 324.834 126.569 326.002 126.07C326.217 125.979 326.367 125.778 326.395 125.546L326.603 123.83C326.735 122.747 325.937 121.756 324.824 121.621ZM325.14 125C323.421 125.61 321.454 125.371 319.931 124.367L320.092 123.04C320.136 122.675 320.493 122.417 320.888 122.465L324.666 122.924C325.06 122.971 325.345 123.307 325.301 123.672L325.14 125L325.14 125Z" fill="white"/>
<path d="M317.208 118.285C317.007 117.984 316.6 117.902 316.298 118.102L311.317 121.416C311.016 121.616 310.934 122.023 311.134 122.325C311.245 122.491 311.418 122.591 311.601 122.613C311.751 122.631 311.908 122.598 312.044 122.508L317.025 119.194C317.327 118.994 317.408 118.587 317.208 118.285Z" fill="white"/>
<path d="M330.289 130.478L327.015 124.795C326.834 124.48 326.433 124.374 326.119 124.554C325.805 124.735 325.698 125.136 325.878 125.449L329.153 131.132C329.26 131.318 329.445 131.432 329.643 131.456C329.778 131.472 329.921 131.447 330.049 131.373C330.363 131.192 330.47 130.791 330.289 130.478Z" fill="white"/>
<path d="M323.847 138.884C323.666 138.57 323.265 138.462 322.951 138.643L318.983 140.929C318.669 141.11 318.561 141.511 318.742 141.824C318.85 142.01 319.034 142.124 319.232 142.148C319.368 142.164 319.51 142.138 319.638 142.065L323.606 139.779C323.92 139.598 324.027 139.197 323.847 138.884Z" fill="white"/>
<path d="M306.575 141.871L302.017 141.318C301.657 141.274 301.33 141.53 301.287 141.89C301.243 142.25 301.499 142.576 301.859 142.62L306.417 143.173C306.776 143.216 307.103 142.961 307.147 142.601C307.19 142.241 306.934 141.914 306.575 141.871Z" fill="white"/>
<path d="M308.414 110.38C306.978 110.206 305.668 111.232 305.494 112.668C305.319 114.105 306.346 115.415 307.782 115.589C309.218 115.763 310.528 114.737 310.703 113.301C310.877 111.864 309.851 110.554 308.414 110.38ZM307.94 114.287C307.222 114.2 306.709 113.545 306.796 112.826C306.883 112.108 307.538 111.595 308.256 111.682C308.974 111.769 309.488 112.424 309.4 113.143C309.313 113.861 308.658 114.374 307.94 114.287Z" fill="white"/>
<path d="M307.94 114.287C307.581 114.243 307.254 114.499 307.21 114.859L306.657 119.417C306.613 119.777 306.87 120.103 307.229 120.147C307.588 120.19 307.915 119.935 307.959 119.575L308.512 115.017C308.556 114.657 308.3 114.33 307.94 114.287Z" fill="white"/>
</g>
<g opacity="0.2" clip-path="url(#clip2_518_233)">
<path d="M25.7664 165.462C17.5479 167.858 12.8121 176.49 15.2074 184.708C17.6028 192.927 26.2348 197.663 34.4533 195.267C42.6723 192.872 47.4076 184.24 45.0123 176.021C42.6169 167.803 33.9854 163.067 25.7664 165.462ZM32.2816 187.816C28.1724 189.014 23.8562 186.646 22.6584 182.537C21.4606 178.427 23.8284 174.111 27.9381 172.913C32.0474 171.716 36.3635 174.083 37.5613 178.193C38.7591 182.303 36.3913 186.619 32.2816 187.816Z" fill="white"/>
<path d="M177.815 -7.13411L141.152 -13.2835C139.034 -13.6408 137.038 -12.2102 136.684 -10.0976C136.329 -7.98533 137.757 -5.98425 139.87 -5.62988L176.533 0.519541C177.129 0.620705 177.715 0.579185 178.259 0.420759C179.645 0.0168677 180.749 -1.14583 181.001 -2.66631C181.355 -4.77854 179.927 -6.77963 177.815 -7.13411Z" fill="white"/>
<path d="M186.119 147.021C177.9 149.416 173.165 158.048 175.56 166.267C177.955 174.485 186.587 179.222 194.806 176.826C203.025 174.431 207.76 165.799 205.365 157.58C202.969 149.362 194.338 144.625 186.119 147.021ZM192.634 169.375C188.525 170.572 184.209 168.205 183.011 164.095C181.813 159.985 184.181 155.67 188.291 154.472C192.4 153.275 196.716 155.642 197.914 159.752C199.112 163.862 196.743 168.177 192.634 169.375Z" fill="white"/>
<path d="M180.268 153.837L143.604 147.687C141.487 147.33 139.49 148.757 139.136 150.873C138.782 152.985 140.21 154.987 142.322 155.341L178.986 161.49C179.582 161.591 180.168 161.55 180.711 161.392C182.097 160.988 183.202 159.825 183.454 158.304C183.808 156.192 182.38 154.191 180.268 153.837Z" fill="white"/>
<path d="M103.088 70.1688C94.8689 72.5643 90.1335 81.1961 92.5289 89.4146C94.9243 97.6336 103.556 102.369 111.775 99.9736C119.994 97.5781 124.729 88.9463 122.334 80.7278C119.938 72.5092 111.307 67.7733 103.088 70.1688ZM109.603 92.5226C105.494 93.7203 101.178 91.3527 99.9798 87.243C98.7822 83.1337 101.15 78.8176 105.259 77.6198C109.369 76.4221 113.685 78.7897 114.883 82.8994C116.08 87.0091 113.712 91.325 109.603 92.5226Z" fill="white"/>
<path d="M98.0321 77.2036L67.7339 65.1566C65.7433 64.3744 63.4855 65.3357 62.692 67.3295C61.9024 69.3222 62.871 71.5779 64.8649 72.3714L95.1631 84.4185C95.9993 84.7489 96.8789 84.7715 97.68 84.538C98.7903 84.2144 99.7424 83.4035 100.205 82.246C100.995 80.2528 100.026 77.9967 98.0321 77.2036Z" fill="white"/>
<path d="M169.063 46.8975C146.467 53.4833 133.44 77.2281 140.026 99.8243C146.611 122.42 170.356 135.448 192.952 128.862C215.549 122.276 228.576 98.5312 221.99 75.9351C215.404 53.3389 191.659 40.3116 169.063 46.8975ZM190.781 121.41C172.29 126.799 152.866 116.142 147.477 97.652C142.088 79.1616 152.745 59.7376 171.235 54.3484C189.725 48.9593 209.149 59.616 214.538 78.1064C219.928 96.5968 209.271 116.021 190.781 121.41Z" fill="white"/>
<path d="M173.407 61.7996C165.188 64.1951 160.452 72.827 162.848 81.0455C165.243 89.2645 173.875 93.9999 182.094 91.6045C190.313 89.209 195.048 80.5772 192.653 72.3586C190.257 64.1401 181.626 59.4042 173.407 61.7996ZM179.922 84.1535C175.813 85.3512 171.497 82.9836 170.299 78.8738C169.101 74.7646 171.469 70.4484 175.578 69.2506C179.688 68.053 184.004 70.4206 185.202 74.5303C186.399 78.64 184.031 82.9558 179.922 84.1535Z" fill="white"/>
<path d="M195.073 95.906L173.457 102.206C167.09 104.062 163.381 110.612 165.185 116.804L168.048 126.625C168.435 127.955 169.501 128.978 170.847 129.31C178.145 131.103 185.788 130.949 192.952 128.861C200.117 126.773 206.646 122.796 211.837 117.363C212.795 116.364 213.143 114.924 212.757 113.598L209.894 103.778C208.088 97.5818 201.441 94.0502 195.073 95.906ZM204.657 113.546C196.73 120.868 185.471 124.15 174.852 122.233L172.638 114.636C172.029 112.55 173.371 110.316 175.629 109.658L197.245 103.358C199.502 102.7 201.834 103.863 202.442 105.95L204.656 113.546L204.657 113.546Z" fill="white"/>
<path d="M92.6786 117.666C70.0824 124.252 57.0552 147.997 63.641 170.593C70.2268 193.189 93.9715 206.216 116.568 199.63C139.164 193.044 152.191 169.3 145.605 146.703C139.019 124.107 115.275 111.08 92.6786 117.666ZM114.396 192.179C95.9055 197.568 76.4815 186.911 71.0923 168.421C65.7031 149.93 76.3599 130.506 94.8502 125.117C113.341 119.728 132.765 130.385 138.154 148.875C143.543 167.366 132.886 186.79 114.396 192.179Z" fill="white"/>
<path d="M97.022 132.569C88.8031 134.964 84.0677 143.596 86.4631 151.815C88.8585 160.034 97.4904 164.769 105.709 162.374C113.927 159.978 118.663 151.346 116.268 143.128C113.873 134.909 105.241 130.173 97.022 132.569ZM103.537 154.923C99.428 156.12 95.1119 153.753 93.914 149.643C92.7164 145.534 95.084 141.217 99.1937 140.02C103.303 138.822 107.619 141.19 108.817 145.299C110.015 149.409 107.647 153.725 103.537 154.923Z" fill="white"/>
<path d="M118.688 166.674L97.0725 172.974C90.7055 174.83 86.9958 181.38 88.8005 187.572L91.6629 197.393C92.0505 198.723 93.1165 199.746 94.4623 200.077C101.76 201.871 109.403 201.717 116.567 199.629C123.732 197.541 130.261 193.564 135.452 188.131C136.41 187.132 136.758 185.693 136.372 184.366L133.509 174.545C131.704 168.35 125.056 164.818 118.688 166.674ZM128.272 184.314C120.345 191.636 109.086 194.917 98.4667 193.001L96.2526 185.404C95.6445 183.318 96.9862 181.084 99.2438 180.426L120.86 174.125C123.117 173.467 125.449 174.631 126.057 176.717L128.272 184.314L128.272 184.314Z" fill="white"/>
<path d="M17.0984 38.6404C-5.49775 45.2262 -18.525 68.971 -11.9392 91.5671C-5.35339 114.163 18.3914 127.191 40.9876 120.605C63.5837 114.019 76.611 90.2741 70.0252 67.678C63.4389 45.082 39.6941 32.0547 17.0984 38.6404ZM38.8158 113.153C20.3254 118.542 0.901377 107.886 -4.48779 89.3954C-9.87695 70.905 0.779798 51.481 19.2702 46.0918C37.7606 40.7026 57.1846 51.3594 62.5738 69.8497C67.9629 88.3401 57.3062 107.764 38.8158 113.153Z" fill="white"/>
<path d="M21.4421 53.5438C13.2231 55.9393 8.48774 64.5711 10.8831 72.7896C13.2785 81.0082 21.9104 85.744 30.129 83.3486C38.3479 80.9531 43.0833 72.3213 40.688 64.1028C38.2926 55.8842 29.6607 51.1484 21.4421 53.5438ZM27.9573 75.8976C23.848 77.0953 19.5319 74.7277 18.3341 70.618C17.1363 66.5083 19.5041 62.1926 23.6138 60.9948C27.723 59.7971 32.0392 62.1647 33.237 66.2744C34.4348 70.3841 32.0666 74.6999 27.9573 75.8976Z" fill="white"/>
<path d="M43.1088 87.6501L21.4928 93.9503C15.1258 95.806 11.4161 102.356 13.2208 108.548L16.0832 118.369C16.4708 119.699 17.5368 120.722 18.8826 121.054C26.1801 122.848 33.8232 122.694 40.9878 120.606C48.1524 118.517 54.6813 114.541 59.8723 109.107C60.8303 108.108 61.1785 106.669 60.7921 105.343L57.9297 95.5218C56.1239 89.326 49.4757 85.7944 43.1088 87.6501ZM52.6923 105.29C44.7658 112.612 33.5068 115.894 22.887 113.977L20.6729 106.381C20.0648 104.294 21.4065 102.06 23.6641 101.402L45.2801 95.1017C47.5378 94.4437 49.8697 95.6072 50.4778 97.6937L52.6918 105.29L52.6923 105.29Z" fill="white"/>
<path d="M92.3977 -35.8535C69.8015 -29.2677 56.7743 -5.5229 63.3601 17.0733C69.9459 39.6694 93.6907 52.6967 116.287 46.1109C138.883 39.5251 151.91 15.7803 145.324 -6.81588C138.738 -29.4119 114.993 -42.4392 92.3977 -35.8535ZM114.115 38.6595C95.6247 44.0486 76.2007 33.3919 70.8115 14.9015C65.4224 -3.5889 76.0791 -23.0129 94.5695 -28.4021C113.06 -33.7912 132.484 -23.1345 137.873 -4.6441C143.262 13.8463 132.605 33.2703 114.115 38.6595Z" fill="white"/>
<path d="M96.741 -20.9508C88.5221 -18.5554 83.7867 -9.92353 86.1821 -1.705C88.5774 6.51354 97.2094 11.2494 105.428 8.85401C113.646 6.45865 118.382 -2.17288 115.987 -10.3914C113.592 -18.6099 104.96 -23.3462 96.741 -20.9508ZM103.256 1.40301C99.147 2.60069 94.8308 0.233057 93.633 -3.87665C92.4354 -7.98591 94.803 -12.302 98.9127 -13.4999C103.022 -14.6977 107.338 -12.3299 108.536 -8.2202C109.733 -4.11037 107.366 0.205332 103.256 1.40301Z" fill="white"/>
<path d="M118.408 13.1555L96.7918 19.4557C90.4249 21.3114 86.7152 27.8618 88.5199 34.0536L91.3822 43.8744C91.7698 45.2043 92.8359 46.2275 94.1816 46.559C101.479 48.3528 109.122 48.199 116.287 46.1108C123.451 44.0227 129.98 40.046 135.171 34.6123C136.129 33.6136 136.477 32.1739 136.091 30.848L133.229 21.0271C131.423 14.8309 124.775 11.2998 118.408 13.1555ZM127.991 30.7953C120.065 38.1176 108.806 41.3991 98.186 39.4822L95.972 31.8859C95.3639 29.7994 96.7055 27.5652 98.9632 26.9072L120.579 20.6071C122.837 19.9491 125.169 21.1125 125.777 23.199L127.991 30.7954L127.991 30.7953Z" fill="white"/>
<path d="M69.2136 12.7357C67.4224 11.5681 65.017 12.067 63.8421 13.8608L44.4626 43.4791C43.2876 45.2724 43.7904 47.6767 45.5838 48.8517C46.5724 49.4972 47.7447 49.6368 48.7952 49.3306C49.6522 49.0808 50.427 48.5358 50.9553 47.7267L70.3347 18.1084C71.5102 16.3149 71.0074 13.9106 69.2136 12.7357Z" fill="white"/>
<path d="M168.754 48.6081L137.713 25.318C135.999 24.0272 133.568 24.3836 132.28 26.093C130.992 27.8064 131.342 30.2388 133.054 31.5223L164.094 54.8124C165.113 55.5747 166.38 55.7628 167.513 55.4327C168.288 55.2068 169.003 54.7354 169.527 54.0369C170.815 52.324 170.466 49.8915 168.754 48.6081Z" fill="white"/>
<path d="M153.277 109.328C151.564 108.041 149.132 108.39 147.844 110.103L131.582 131.776C130.294 133.489 130.644 135.921 132.355 137.205C133.374 137.967 134.641 138.155 135.774 137.825C136.552 137.598 137.263 137.125 137.789 136.429L154.051 114.757C155.339 113.045 154.99 110.612 153.277 109.328Z" fill="white"/>
<path d="M66.2806 165.78L40.2008 173.381C38.1445 173.981 36.9607 176.132 37.5612 178.193C38.1617 180.253 40.3161 181.432 42.3725 180.832L68.4518 173.231C70.5082 172.632 71.692 170.48 71.0915 168.42C70.491 166.36 68.337 165.181 66.2806 165.78Z" fill="white"/>
<path d="M2.98196 -9.79253C-5.23701 -7.39705 -9.97283 1.23491 -7.57747 9.45345C-5.18199 17.6724 3.44984 22.4078 11.6684 20.0124C19.8873 17.617 24.6227 8.98513 22.2274 0.766593C19.8325 -7.45207 11.2005 -12.1879 2.98196 -9.79253ZM9.49716 12.5613C5.3879 13.759 1.07176 11.3914 -0.126041 7.28167C-1.32372 3.1724 1.04391 -1.14373 5.15361 -2.34154C9.26288 -3.53921 13.579 -1.17159 14.7768 2.93812C15.9742 7.04795 13.6064 11.3636 9.49716 12.5613Z" fill="white"/>
<path d="M9.49759 12.5614C7.44121 13.1607 6.25743 15.3124 6.85792 17.3727L14.4589 43.452C15.0594 45.5124 17.2139 46.6911 19.2703 46.0917C21.3266 45.4924 22.5104 43.3407 21.9099 41.2804L14.3089 15.2011C13.7084 13.1408 11.554 11.962 9.49759 12.5614Z" fill="white"/>
</g>
</g>
<defs>
<linearGradient id="paint0_linear_518_233" x1="8.79863" y1="4.5" x2="570.505" y2="188.346" gradientUnits="userSpaceOnUse">
<stop stop-color="#EB5757"/>
<stop offset="1" stop-color="#BB60A8"/>
</linearGradient>
<clipPath id="clip0_518_233">
<rect width="111.971" height="111.971" fill="white" transform="translate(382 46.0674) rotate(-9.2856)"/>
</clipPath>
<clipPath id="clip1_518_233">
<rect width="39.3538" height="39.3538" fill="white" transform="translate(301.252 109.511) rotate(6.91949)"/>
</clipPath>
<clipPath id="clip2_518_233">
<rect width="232.84" height="232.84" fill="white" transform="translate(-38 2.1521) rotate(-16.2492)"/>
</clipPath>
</defs>
</svg>
