<svg width="55" height="55" viewBox="0 0 55 55" fill="none" xmlns="http://www.w3.org/2000/svg">
<g clip-path="url(#clip0)">
<path d="M40.94 5.617C37.318 1.995 32.502 0 27.38 0C22.257 0 17.442 1.995 13.82 5.617C7.11702 12.319 6.28402 24.929 12.016 32.569L27.38 54.757L42.721 32.6C48.476 24.929 47.643 12.319 40.94 5.617ZM27.557 26C23.698 26 20.557 22.859 20.557 19C20.557 15.141 23.698 12 27.557 12C31.416 12 34.557 15.141 34.557 19C34.557 22.859 31.416 26 27.557 26Z" fill="#2C4059" fill-opacity="0.4"/>
</g>
<defs>
<clipPath id="clip0">
<rect width="54.757" height="54.757" fill="white"/>
</clipPath>
</defs>
</svg>
