<?xml version="1.0" encoding="UTF-8"?>
<svg width="73px" height="73px" viewBox="0 0 73 73" version="1.1" xmlns="http://www.w3.org/2000/svg" xmlns:xlink="http://www.w3.org/1999/xlink">
    <!-- Generator: Sketch 46.2 (44496) - http://www.bohemiancoding.com/sketch -->
    <title>Logo_White</title>
    <desc>Created with Sketch.</desc>
    <defs></defs>
    <g id="Sign-Up" stroke="none" stroke-width="1" fill="none" fill-rule="evenodd">
        <g id="Logo_White" fill="#FFFFFF">
            <g id="Logo">
                <path d="M36.5,73 C56.6583934,73 73,56.6583934 73,36.5 C73,16.3416066 56.6583934,0 36.5,0 C16.3416066,0 0,16.3416066 0,36.5 C0,56.6583934 16.3416066,73 36.5,73 Z M56.2497524,31.696209 C56.0075107,31.6294355 55.7574592,31.5959746 55.5063615,31.5967313 C55.3454336,31.5967313 55.1809028,31.6040102 54.9875491,31.6185679 C50.4467395,31.9618874 48.9599576,36.6664572 48.578054,38.1003926 C48.4188969,38.716598 48.3211333,39.3473348 48.286222,39.983191 L48.1337008,40.1809334 C47.0372292,41.6063768 45.6765475,43.3023511 44.6197074,44.0933206 C44.6052959,44.0399423 44.5896835,43.9889902 44.576473,43.9343988 C44.1321198,42.1450124 44.0180291,39.5197703 44.444368,36.5281589 L44.5548558,36.4068445 C46.9651719,33.7051744 51.1024607,28.4850187 51.7197514,23.8775004 C51.8554593,22.8608863 51.599656,21.5458389 50.8706765,20.8822496 L50.8790831,20.8761838 L50.7337676,20.7694272 L50.6521027,20.7099832 L50.6521027,20.7099832 C50.3999267,20.5519376 50.1081717,20.4702591 49.8114344,20.4746334 C45.0520511,20.4746334 42.2706401,32.0589389 41.5128377,36.5233063 C41.451589,36.8872493 41.3927422,37.2511923 41.3483069,37.6284798 L41.3399002,37.6369719 C40.4079594,38.5346979 39.2982772,39.5695091 38.3375135,40.4660221 C39.2550429,37.1602065 39.8435107,34.4003055 39.8399078,33.4043148 C39.8598211,33.0324584 39.7233003,32.6694077 39.464009,32.4046847 C38.9818424,31.9272534 38.3376085,31.6534951 37.662577,31.6391913 C37.4644356,31.6387017 37.2671901,31.6660573 37.0765111,31.7204719 L36.9311956,31.7629319 L36.998449,31.9024434 C37.1473674,32.211795 36.9095784,34.337222 36.1757951,37.6660873 L36.150575,37.7679913 C34.640975,40.1142105 31.7983153,43.6881307 30.2658971,44.1515514 L30.2658971,43.9756457 C30.295921,41.9848775 30.8831878,39.9116156 31.4500384,37.9099291 C31.9088031,36.2903828 32.3423478,34.7557565 32.4360222,33.4115937 C32.4576394,33.0986027 32.3159268,32.7552832 32.0264967,32.441079 C31.567732,31.9449034 31.090953,31.6355519 30.4148155,31.6355519 C30.2154896,31.635054 30.0170533,31.6624067 29.8251468,31.7168325 L29.6846351,31.7605056 L29.7422809,31.8975908 C29.8419601,32.1402195 29.4384394,34.2765649 28.493288,37.7776965 L28.309542,38.4522042 C28.1738341,38.9471666 28.0393272,39.4433422 27.912026,39.9395179 L27.9024183,39.9395179 C26.8215591,41.3952898 25.0897825,43.5704558 23.7315028,44.4075247 C23.7315028,44.3711304 23.7315028,44.3347361 23.7399094,44.2959155 C23.8600049,42.9056533 24.3115639,40.7777999 24.9648832,38.4728276 C25.3011505,37.2803077 25.6962646,36.1957576 25.9568718,35.4763636 C26.0769672,35.1476018 26.1706417,34.8892022 26.2234837,34.7193622 C26.5177176,33.7755367 26.4492632,32.8753843 26.0397376,32.3124858 C25.7613254,31.9263827 25.3113681,31.7050295 24.838783,31.7216851 C24.4433498,31.7301173 24.0528735,31.8123779 23.6870674,31.9643137 L23.6870674,31.9643137 L23.5861872,32.0067737 L23.4204555,32.077136 L23.4204555,32.077136 C21.4100574,33.0112564 18.9841289,35.6983688 17.5357776,37.8638296 C17.6486673,37.2245031 17.7759685,36.5948817 17.9068726,35.9858838 C21.7199037,32.7807592 25.2531123,27.3252537 25.5305329,23.7513335 C25.6230064,22.5551742 25.6506283,21.3456703 24.9300555,20.7354592 L24.9408641,20.7269672 L24.7799362,20.6226369 L24.7018741,20.5716849 L24.7018741,20.5716849 C24.4337669,20.4247136 24.1325732,20.3503227 23.8275791,20.3557454 C19.4152717,20.3557454 16.1306606,30.5352309 15.0101699,35.9179478 C14.9753422,36.0853616 14.9429165,36.2479228 14.9116916,36.4032051 L14.6811083,37.638185 C14.0986453,40.8821302 13.9064926,43.030607 14.0409995,44.8187803 C14.0950425,45.5393874 14.7015246,45.9530693 15.7043217,45.9530693 C16.3132057,45.9530693 16.9773337,45.7844423 17.2163237,45.5685028 L17.28718,45.5042062 L17.2439456,45.4144336 C17.0397833,44.9934729 16.8272143,43.35209 17.0529938,41.2290892 C17.0682059,41.0883646 17.0842186,40.9464268 17.101032,40.8032759 L17.1154435,40.8032759 C17.9813318,39.0090369 21.3007705,35.3138024 23.301561,34.2146946 C23.0613701,35.1694384 22.7214999,36.2600542 22.4837109,37.0255476 C22.3347925,37.5108049 22.2062903,37.9196342 22.1234245,38.2144281 C21.7112974,39.6632243 21.3721925,41.1322067 21.1074168,42.615712 C20.9128621,43.8555445 21.0269528,44.7350734 21.447287,45.2300358 C21.8207839,45.67162 22.3431992,45.722572 22.7034856,45.722572 C22.8055667,45.722572 22.9004421,45.722572 22.983308,45.71408 L23.1442359,45.71408 C23.2580713,45.7126351 23.3716556,45.7029047 23.4841061,45.6849646 L23.4841061,45.6910303 L23.6210149,45.6643412 L23.7411104,45.6412914 L23.7411104,45.6412914 C25.0825768,45.3210216 26.4936985,44.0532868 27.3439744,43.1761842 C27.3199553,44.0787628 27.4976966,44.7265814 27.884404,45.1487552 C28.2362837,45.5333217 28.5389243,45.7298509 29.2342771,45.7334903 L29.2462866,45.7334903 C29.5410165,45.7278 29.8335779,45.6812661 30.1157778,45.595192 L30.1157778,45.595192 L30.2622943,45.5478794 L30.2622943,45.5478794 L30.3643754,45.5151245 L30.3643754,45.5151245 C32.0757358,44.9158317 33.9972633,43.2198574 35.0673139,42.1013392 C34.8955774,42.7212555 34.7142332,43.35209 34.5244824,43.9804982 C30.8771831,47.4840561 27.4388498,50.8881363 26.188656,52.9905136 C25.4068345,54.305561 24.7547161,56.4358406 25.4188441,58.2070299 L25.4104374,58.2070299 L25.4812937,58.3647385 L25.4812937,58.3647385 L25.5209252,58.4581505 L25.5209252,58.4581505 C25.9436613,59.3243349 26.6330093,59.7647059 27.7775191,59.7647059 C31.3215363,59.7647059 33.9816509,53.5412807 35.9728337,47.9353454 C36.5420863,46.33157 37.0921235,44.6598585 37.608534,42.9517527 L37.6217445,42.9092927 C38.8515221,41.77743 40.3082801,40.6358621 41.1441446,39.8764344 C41.0744892,41.6961494 41.2222066,44.0350897 42.2622334,45.1269187 C42.6141734,45.5100978 43.1103177,45.7247632 43.6277188,45.7177195 C44.0936892,45.7177195 44.3843203,45.5964051 44.8478888,45.3768262 L44.8478888,45.3768262 L44.9679842,45.3198085 C46.3310678,44.6695636 47.5668502,43.3217614 48.3630831,42.3051473 L48.3967098,42.2614742 L48.3907051,42.2117353 C48.5396234,43.0233282 48.7798144,43.7742639 49.1725266,44.3699172 C49.6793294,45.1475421 50.2533858,45.6061103 51.1084655,45.7322772 C51.234577,45.7515071 51.3616958,45.7632543 51.4891681,45.7674583 L51.6212731,45.7674583 L51.8734736,45.7674583 C54.8410326,45.7674583 57.6824914,42.0200586 58.4270833,38.323611 C59.1080246,34.9450068 58.300983,32.0662178 56.2497524,31.696209 Z M49.2085552,22.4374993 C49.2349762,24.7497504 48.4135232,28.8841428 44.9427642,33.7876681 C44.9787928,33.6202543 45.0124196,33.4528406 45.0496492,33.2854268 C46.1689389,28.1732409 47.5308215,24.6211572 49.2085552,22.4374993 Z M18.876043,32.3355356 L18.9709184,32.0455943 C20.1550597,28.419509 21.3800335,24.6684698 23.1298245,22.3307427 C23.3099677,24.1953439 22.2014865,29.4810094 18.4461012,33.777963 L18.479728,33.6566486 C18.6142349,33.1750307 18.743938,32.7443649 18.876043,32.3355356 Z M27.6153902,57.4221261 C27.2971372,56.8240465 27.6153902,55.5114254 28.548532,53.5158047 C29.2907219,51.9387184 30.746279,49.8132913 33.6045511,46.8265324 C33.5036709,47.1201131 33.4027907,47.4136938 33.2983077,47.7048482 C31.3191344,53.2258634 29.8047305,56.016093 27.6177921,57.4221261 L27.6153902,57.4221261 Z M55.8978727,38.3757761 C55.2229362,41.2096789 53.6340732,43.5352746 51.2585848,43.9331856 C50.751782,42.3755096 50.8502602,41.0216417 51.1925323,39.4639657 L51.2093457,39.3911771 C51.2826039,39.0636284 51.359465,38.7518506 51.4423309,38.4364333 C52.1989323,35.5782676 53.4839538,33.6166149 55.3538403,32.4386528 C55.7453515,33.0743398 56.685699,35.0748132 55.9002746,38.374563 L55.8978727,38.3757761 Z" id="Combined-Shape"></path>
            </g>
        </g>
    </g>
</svg>