<svg width="64" height="64" viewBox="0 0 64 64" fill="none" xmlns="http://www.w3.org/2000/svg">
<path d="M60.7503 32C60.5057 32.0007 60.2664 31.9292 60.0622 31.7945C59.8581 31.6597 59.6983 31.4677 59.6028 31.2425L52.4253 14.5H11.5753L4.40026 31.2425C4.26656 31.5425 4.02016 31.7778 3.71434 31.8976C3.40851 32.0174 3.06784 32.0119 2.76598 31.8825C2.46412 31.7531 2.22532 31.5101 2.10121 31.206C1.9771 30.9019 1.97766 30.5612 2.10276 30.2575L9.60277 12.7575C9.69852 12.5325 9.8584 12.3407 10.0625 12.206C10.2665 12.0713 10.5058 11.9996 10.7503 12H53.2503C53.4947 12.0003 53.7336 12.0722 53.9376 12.2068C54.1415 12.3414 54.3015 12.5329 54.3978 12.7575L61.8978 30.2575C61.978 30.4476 62.01 30.6545 61.9911 30.86C61.9722 31.0654 61.903 31.263 61.7895 31.4353C61.6761 31.6076 61.5219 31.7493 61.3406 31.8478C61.1594 31.9463 60.9566 31.9986 60.7503 32V32Z" fill="#FEFEFF"/>
<path d="M60.7501 52H3.25C2.91848 52 2.60054 51.8683 2.36612 51.6339C2.1317 51.3995 2 51.0815 2 50.75V30.75C2 30.4185 2.1317 30.1005 2.36612 29.8661C2.60054 29.6317 2.91848 29.5 3.25 29.5H18.3C18.565 29.5002 18.823 29.5845 19.0369 29.7409C19.2508 29.8973 19.4095 30.1176 19.49 30.37L20.365 33.11C21.04 35.22 23.4825 37.0025 25.6975 37.0025H38.3025C40.5175 37.0025 42.9625 35.22 43.6425 33.1025L44.5225 30.365C44.6035 30.1137 44.7621 29.8946 44.9755 29.7392C45.1888 29.5837 45.446 29.5 45.71 29.5H60.7501C61.0816 29.5 61.3995 29.6317 61.6339 29.8661C61.8684 30.1005 62.0001 30.4185 62.0001 30.75V50.75C62.0001 51.4375 61.4376 52 60.7501 52ZM4.5 49.5H59.5001V32H46.6225L46.0225 33.8725C45.0075 37.03 41.615 39.5 38.3025 39.5H25.6975C22.3825 39.5 18.995 37.0275 17.985 33.87L17.3875 32H4.5V49.5Z" fill="#FEFEFF"/>
</svg>
