<svg width="35" height="35" viewBox="0 0 35 35" fill="none" xmlns="http://www.w3.org/2000/svg">
<path d="M17.5 0C7.83512 0 0 7.83512 0 17.5C0 27.1649 7.83512 35 17.5 35C27.1649 35 35 27.1649 35 17.5C34.9892 7.83968 27.1603 0.0108236 17.5 0ZM32.635 23.6307L27.6582 24.4895C28.2279 22.4002 28.5355 20.2483 28.5739 18.0833H33.8188C33.753 19.9877 33.3523 21.8656 32.635 23.6307ZM1.18119 18.0833H6.42607C6.46452 20.2483 6.77214 22.4002 7.3418 24.4895L2.36495 23.6307C1.64775 21.8656 1.24699 19.9877 1.18119 18.0833ZM2.36495 11.3693L7.3418 10.5105C6.77214 12.5998 6.46452 14.7517 6.42607 16.9167H1.18119C1.24699 15.0123 1.64775 13.1344 2.36495 11.3693ZM18.0833 9.36609C20.1794 9.39286 22.2703 9.5837 24.3368 9.93717L26.3958 10.2924C27.0284 12.4451 27.3688 14.6731 27.4078 16.9167H18.0833V9.36609ZM24.5356 8.78731C22.4036 8.42301 20.2461 8.2262 18.0833 8.19942V1.19942C21.4275 1.52071 24.3325 4.58264 25.9788 9.03882L24.5356 8.78731ZM16.9167 8.19942C14.7539 8.2262 12.5969 8.42301 10.465 8.78731L9.02116 9.03711C10.6675 4.57979 13.5725 1.51672 16.9167 1.19686V8.19942ZM10.6638 9.93717C12.7299 9.5837 14.8206 9.39286 16.9167 9.36609V16.9167H7.59216C7.63118 14.6731 7.97156 12.4451 8.60417 10.2924L10.6638 9.93717ZM7.59216 18.0833H16.9167V25.6339C14.8206 25.6071 12.7297 25.4163 10.6632 25.0628L8.60417 24.7076C7.97156 22.5549 7.63118 20.3269 7.59216 18.0833ZM10.4644 26.2127C12.5964 26.5776 14.7537 26.7752 16.9167 26.8037V33.8037C13.5725 33.4821 10.6675 30.4202 9.02116 25.964L10.4644 26.2127ZM18.0833 26.8037C20.2461 26.7752 22.4031 26.5776 24.535 26.2127L25.9788 25.9629C24.3325 30.4202 21.4275 33.4833 18.0833 33.8031V26.8037ZM24.3362 25.0628C22.2701 25.4163 20.1794 25.6071 18.0833 25.6339V18.0833H27.4078C27.3688 20.3269 27.0284 22.5549 26.3958 24.7076L24.3362 25.0628ZM28.5739 16.9167C28.5355 14.7517 28.2279 12.5998 27.6582 10.5105L32.635 11.3693C33.3523 13.1344 33.753 15.0123 33.8188 16.9167H28.5739ZM32.0449 10.0836L27.2743 9.26042C26.4166 6.46252 24.8122 3.95146 22.6332 1.9978C26.7077 3.35758 30.0867 6.26029 32.0449 10.0836ZM12.3668 1.9978C10.1878 3.95146 8.58337 6.46252 7.72575 9.26042L2.95512 10.0836C4.91333 6.26029 8.29228 3.35758 12.3668 1.9978ZM2.95512 24.9164L7.72575 25.7396C8.58337 28.5375 10.1878 31.0485 12.3668 33.0022C8.29228 31.6424 4.91333 28.7397 2.95512 24.9164ZM22.6332 33.0022C24.8122 31.0485 26.4166 28.5375 27.2743 25.7396L32.0449 24.9164C30.0867 28.7397 26.7077 31.6424 22.6332 33.0022Z" fill="white"/>
</svg>
