<svg width="86" height="18" viewBox="0 0 86 18" fill="none" xmlns="http://www.w3.org/2000/svg">
<path d="M1.30083 0.24183C2.01926 0.24183 2.60166 0.821806 2.60166 1.53724V5.25417C2.60166 6.53277 3.64251 7.56928 4.92646 7.56928H12.0566C13.3406 7.56928 14.3814 6.53277 14.3814 5.25417V1.53724C14.3814 0.821806 14.9638 0.24183 15.6822 0.24183V0.24183C16.4007 0.24183 16.9831 0.821806 16.9831 1.53724V15.8745C16.9831 16.59 16.4007 17.1699 15.6822 17.1699V17.1699C14.9638 17.1699 14.3814 16.59 14.3814 15.8745V12.3994C14.3814 11.1208 13.3406 10.0843 12.0566 10.0843H4.92646C3.64251 10.0843 2.60166 11.1208 2.60166 12.3994V15.8745C2.60166 16.59 2.01926 17.1699 1.30083 17.1699V17.1699C0.582402 17.1699 0 16.59 0 15.8745V1.53724C0 0.821808 0.582402 0.24183 1.30083 0.24183V0.24183Z" fill="white"/>
<path d="M38.7785 0.24183C39.8352 0.24183 40.431 1.4507 39.7845 2.28312L33.7614 10.0392C33.4465 10.4447 33.2757 10.9428 33.2757 11.4555V15.8745C33.2757 16.59 32.6933 17.1699 31.9748 17.1699V17.1699C31.2564 17.1699 30.674 16.59 30.674 15.8745V11.6738C30.674 11.1459 30.4929 10.634 30.1606 10.2227L23.9299 2.50944C23.1931 1.59737 23.8451 0.24183 25.0206 0.24183V0.24183C25.4561 0.24183 25.8669 0.443759 26.1318 0.788106L30.1318 5.98834C31.0689 7.20662 32.9153 7.19632 33.8386 5.96768L37.7602 0.74948C38.0004 0.429951 38.3777 0.24183 38.7785 0.24183V0.24183Z" fill="white"/>
<path d="M59.0885 14.6549C59.7859 14.6549 60.3513 15.2179 60.3513 15.9124V15.9124C60.3513 16.6069 59.7859 17.1699 59.0885 17.1699H48.8005C47.5166 17.1699 46.4757 16.1334 46.4757 14.8548V1.53724C46.4757 0.821808 47.0582 0.24183 47.7766 0.24183V0.24183C48.495 0.24183 49.0774 0.821806 49.0774 1.53724V12.3398C49.0774 13.6184 50.1183 14.6549 51.4022 14.6549H59.0885Z" fill="white"/>
<path d="M85.5225 8.70589C85.5225 9.93116 85.2736 11.0758 84.7758 12.1399C84.2779 13.1878 83.5713 14.1068 82.6559 14.8967C81.7405 15.6867 80.6645 16.3074 79.4279 16.7588C78.1913 17.1941 76.8262 17.4118 75.3327 17.4118C73.8391 17.4118 72.466 17.1941 71.2134 16.7588C69.9768 16.3074 68.9008 15.6867 67.9854 14.8967C67.086 14.1068 66.3874 13.1878 65.8896 12.1399C65.3917 11.0758 65.1428 9.93116 65.1428 8.70589C65.1428 7.48061 65.3917 6.34401 65.8896 5.29608C66.3874 4.23203 67.086 3.30501 67.9854 2.51503C68.9008 1.72506 69.9768 1.11242 71.2134 0.677124C72.466 0.225708 73.8391 0 75.3327 0C76.8262 0 78.1913 0.225708 79.4279 0.677124C80.6645 1.11242 81.7405 1.72506 82.6559 2.51503C83.5713 3.30501 84.2779 4.23203 84.7758 5.29608C85.2736 6.34401 85.5225 7.48061 85.5225 8.70589ZM82.8727 8.70589C82.8727 7.52898 82.5515 6.48105 81.9091 5.56209C81.2667 4.62702 80.3754 3.89347 79.2352 3.36144C78.111 2.81329 76.8102 2.53922 75.3327 2.53922C73.8391 2.53922 72.5222 2.81329 71.382 3.36144C70.2578 3.89347 69.3745 4.62702 68.7322 5.56209C68.1058 6.48105 67.7927 7.52898 67.7927 8.70589C67.7927 9.88279 68.1058 10.9388 68.7322 11.8739C69.3745 12.7928 70.2578 13.5264 71.382 14.0745C72.5222 14.6065 73.8391 14.8726 75.3327 14.8726C76.8102 14.8726 78.111 14.6065 79.2352 14.0745C80.3754 13.5264 81.2667 12.7848 81.9091 11.8497C82.5515 10.9146 82.8727 9.86667 82.8727 8.70589Z" fill="white"/>
</svg>
