<?xml version="1.0" encoding="UTF-8"?>
<svg width="57px" height="54px" viewBox="0 0 57 54" version="1.1" xmlns="http://www.w3.org/2000/svg" xmlns:xlink="http://www.w3.org/1999/xlink">
    <!-- Generator: Sketch 46 (44423) - http://www.bohemiancoding.com/sketch -->
    <title>Logo</title>
    <desc>Created with Sketch.</desc>
    <defs></defs>
    <g id="HD-Desktop---Hifi-v3-(Final)" stroke="none" stroke-width="1" fill="none" fill-rule="evenodd">
        <g id="Logo" fill-rule="nonzero" fill="#0ABF97">
            <g transform="translate(0.773590, 0.000000)" id="Shape-Copy">
                <path d="M53.1353843,17.4574131 C52.8479297,17.3781768 52.5512078,17.3384706 52.2532444,17.3393685 C52.0622804,17.3393685 51.867041,17.3480059 51.6375991,17.3652807 C46.249278,17.7726786 44.4849983,23.3553246 44.0318149,25.0568944 C43.8429523,25.7881104 43.7269418,26.5365699 43.6855145,27.2911045 L43.5045262,27.5257541 C42.2034055,29.2172469 40.5887618,31.2297635 39.3346696,32.168362 C39.3175683,32.105021 39.299042,32.0445591 39.2833658,31.9797786 C38.7560771,29.8564153 38.6206921,26.7411894 39.1266043,23.1912138 L39.2577139,23.047257 C42.1178992,19.8413383 47.0273852,13.6468757 47.759889,8.17939513 C47.9209259,6.97303686 47.6173786,5.41254478 46.75234,4.62510089 L46.7623157,4.61790305 L46.589878,4.49122104 L46.4929709,4.42068219 L46.4929709,4.42068219 C46.1937279,4.23313839 45.8475188,4.1362152 45.4953975,4.14140593 C39.8477073,4.14140593 36.5471647,17.887844 35.6479235,23.1854555 C35.5752432,23.6173261 35.5054131,24.0491966 35.4526842,24.4969023 L35.4427085,24.5069793 C34.3368272,25.5722599 33.0200303,26.8002117 31.8799465,27.8640527 C32.9687266,23.9412289 33.6670279,20.6662109 33.6627526,19.4843253 C33.6863826,19.0430644 33.5243811,18.6122527 33.2166948,18.298121 C32.6445351,17.7315803 31.8800592,17.4067269 31.0790376,17.3897534 C30.8439146,17.3891723 30.6098544,17.4216338 30.3835865,17.4862045 L30.2111488,17.5365894 L30.2909547,17.7021397 C30.4676677,18.0692297 30.1854969,20.5913534 29.3147579,24.5415289 L29.2848307,24.6624527 C27.493474,27.4465778 24.120251,31.6875462 22.3018173,32.2374613 L22.3018173,32.0287239 C22.3374449,29.6663922 23.0343212,27.2061699 23.7069706,24.8308822 C24.2513606,22.9090584 24.7658235,21.0880045 24.8769816,19.4929627 C24.9026335,19.1215541 24.7344712,18.7141563 24.3910209,18.3413081 C23.8466309,17.7525246 23.2808643,17.3854347 22.4785303,17.3854347 C22.2420016,17.3848439 22.0065285,17.4173018 21.7788039,17.4818858 L21.6120666,17.5337102 L21.6804716,17.6963815 C21.7987553,17.9842951 21.3199201,20.519375 20.1983627,24.6739692 L19.9803216,25.4743692 C19.8192848,26.0617131 19.6596731,26.6504966 19.508612,27.23928 L19.4972111,27.23928 C18.2146168,28.966762 16.1596157,31.5479081 14.5478222,32.5412102 C14.5478222,32.4980232 14.5478222,32.4548361 14.557798,32.4087699 C14.7003084,30.7590246 15.2361478,28.2340217 16.0114048,25.4988419 C16.4104342,24.0837462 16.8792936,22.7967721 17.1885414,21.9431081 C17.3310519,21.552985 17.44221,21.246357 17.5049146,21.0448174 C17.8540653,19.9248333 17.7728343,18.8566735 17.2868736,18.1887138 C16.9564976,17.7305471 16.4225588,17.4678798 15.8617688,17.487644 C15.3925308,17.4976502 14.9291747,17.5952641 14.4950934,17.7755577 L14.4950934,17.7755577 L14.3753845,17.8259426 L14.1787201,17.9094376 L14.1787201,17.9094376 C11.7930947,19.0179052 8.91438305,22.2065491 7.19570669,24.7761786 C7.32966654,24.0175261 7.48072764,23.2703901 7.63606406,22.5477268 C12.1607717,18.7443872 16.35343,12.2706484 16.6826292,8.02968002 C16.7923623,6.61026564 16.8251397,5.175016 15.9700768,4.45091312 L15.9829027,4.44083614 L15.7919387,4.31703327 L15.6993069,4.2565714 L15.6993069,4.2565714 C15.3811592,4.08216893 15.0237498,3.99389345 14.6618306,4.00032823 C9.42599566,4.00032823 5.5283341,16.0797462 4.19871134,22.4671109 C4.1573833,22.6657714 4.11890547,22.8586735 4.08185275,23.0429383 L3.80823263,24.5084189 C3.11705682,28.3578246 2.88904005,30.9073001 3.04865179,33.0292239 C3.1127815,33.8843275 3.83245941,34.3752203 5.0224219,34.3752203 C5.74495002,34.3752203 6.53303297,34.1751203 6.81662882,33.9188771 L6.90071,33.84258 L6.84940623,33.7360519 C6.60713841,33.2365217 6.35489487,31.2887858 6.62281457,28.7695412 C6.64086589,28.6025512 6.65986729,28.4341217 6.67981876,28.2642527 L6.69692001,28.2642527 C7.72442056,26.1351311 11.6634102,21.7502059 14.0376347,20.445957 C13.7526138,21.5788973 13.3493091,22.8730692 13.0671384,23.7814368 C12.8904254,24.3572642 12.7379392,24.8423987 12.6396069,25.1922138 C12.1505592,26.9114182 11.7481625,28.6545762 11.4339683,30.4149678 C11.2031013,31.8862066 11.3384863,32.9298937 11.8372729,33.5172376 C12.2804805,34.0412404 12.9004011,34.1017023 13.3279325,34.1017023 C13.4490664,34.1017023 13.5616497,34.1017023 13.659982,34.0916253 L13.850946,34.0916253 C13.986028,34.0899107 14.120812,34.0783642 14.2542506,34.0570757 L14.2542506,34.0642735 L14.4167126,34.032603 L14.5592231,34.0052512 L14.5592231,34.0052512 C16.1510651,33.6252052 17.8255632,32.1208563 18.8345374,31.0800483 C18.8060353,32.1510872 19.0169508,32.9198167 19.4758345,33.4207865 C19.8933902,33.8771296 20.2525166,34.1103397 21.0776523,34.1146584 L21.0919034,34.1146584 C21.4416425,34.107906 21.7888086,34.052687 22.1236792,33.9505476 L22.1236792,33.9505476 L22.297542,33.8944045 L22.297542,33.8944045 L22.4186759,33.8555361 L22.4186759,33.8555361 C24.4494502,33.1443894 26.7296179,31.1318728 27.9993862,29.8045908 C27.7955962,30.5402102 27.5804054,31.2887858 27.3552389,32.0344822 C23.0271956,36.1919555 18.9471207,40.2313843 17.4635866,42.7261562 C16.5358434,44.2866483 15.7620115,46.8145303 16.5500944,48.9163001 L16.5401187,48.9163001 L16.6241999,49.103444 L16.6241999,49.103444 L16.6712283,49.2142908 L16.6712283,49.2142908 C17.1728652,50.2421426 17.9908754,50.7647059 19.3490002,50.7647059 C23.5544844,50.7647059 26.7110915,43.3797203 29.0739152,36.727475 C29.7494149,34.8243656 30.4021129,32.8406404 31.0149079,30.8137282 L31.0305841,30.7633433 C32.4898914,29.420226 34.2185435,28.0655922 35.2104164,27.1644225 C35.1277603,29.323775 35.3030482,32.0992627 36.5371889,33.3948742 C36.9548162,33.8495712 37.5435625,34.1043025 38.1575331,34.095944 C38.7104737,34.095944 39.0553491,33.9519872 39.6054395,33.6914253 L39.6054395,33.6914253 L39.74795,33.6237656 C41.3654439,32.852157 42.8318767,31.2527965 43.7767212,30.0464383 L43.8166241,29.9946138 L43.8094986,29.9355915 C43.9862116,30.8986627 44.2712325,31.7897555 44.7372418,32.4965836 C45.338636,33.4193469 46.0198361,33.9635037 47.0345107,34.1132188 C47.1841601,34.136038 47.3350048,34.1499777 47.4862689,34.1549663 L47.6430304,34.1549663 L47.9423025,34.1549663 C51.4637364,34.1549663 54.8355343,29.7081397 55.7190992,25.321775 C56.5271336,21.3125771 55.5694632,17.8964815 53.1353843,17.4574131 Z M44.779995,6.47062751 C44.8113473,9.21444477 43.8365756,14.1204937 39.7180228,19.9392289 C39.7607759,19.7405685 39.8006789,19.5419081 39.8448571,19.3432476 C41.1730548,13.2769066 42.7891236,9.06185053 44.779995,6.47062751 Z M8.78612362,18.2160656 L8.89870689,17.8720088 C10.3038602,13.569139 11.7574671,9.11799369 13.8338447,6.34394549 C14.0476105,8.55656204 12.7322387,14.8287613 8.27593611,19.9277124 L8.31583904,19.7837556 C8.47545078,19.2122469 8.62936209,18.7012002 8.78612362,18.2160656 Z M19.1566111,47.9848994 C18.7789583,47.2751922 19.1566111,45.7175793 20.2639175,43.3494893 C21.1446322,41.4780505 22.8718592,38.9559268 26.2636086,35.4117095 C26.1438998,35.760085 26.024191,36.1084606 25.9002069,36.453957 C23.5516342,43.0054325 21.7545771,46.3164397 19.1594613,47.9848994 L19.1566111,47.9848994 Z M52.7178286,25.3836764 C51.9169197,28.7465081 50.0315061,31.5061606 47.2126488,31.978339 C46.6112546,30.1299332 46.7281132,28.523375 47.134268,26.6749692 L47.1542195,26.5885951 C47.2411509,26.1999117 47.3323576,25.8299426 47.4306898,25.4556548 C48.3285058,22.0640318 49.853368,19.7362498 52.0722561,18.3384289 C52.5368402,19.0927627 53.6526973,21.4666109 52.7206788,25.3822368 L52.7178286,25.3836764 Z"></path>
            </g>
        </g>
    </g>
</svg>