<svg width="1352" height="557" viewBox="0 0 1352 557" fill="none" xmlns="http://www.w3.org/2000/svg">
<path d="M655.24 199.951C661.184 199.951 666.002 204.798 666.002 210.776V234.783C666.002 249.9 678.185 262.155 693.214 262.155H736.243C751.272 262.155 763.455 249.9 763.455 234.783V210.776C763.455 204.798 768.273 199.951 774.217 199.951C780.16 199.951 784.978 204.798 784.978 210.776V332.831C784.978 338.81 780.16 343.656 774.217 343.656C768.273 343.656 763.455 338.81 763.455 332.831V310.878C763.455 295.761 751.272 283.506 736.243 283.506H693.214C678.185 283.506 666.002 295.761 666.002 310.878V332.831C666.002 338.81 661.184 343.656 655.24 343.656C649.297 343.656 644.479 338.81 644.479 332.831V210.776C644.479 204.798 649.297 199.951 655.24 199.951Z" fill="white"/>
<path d="M965.371 199.951C974.126 199.951 979.095 210.037 973.791 217.044L925.325 281.086C921.719 285.852 919.766 291.676 919.766 297.666V332.831C919.766 338.81 914.947 343.656 909.004 343.656C903.06 343.656 898.242 338.81 898.242 332.831V299.6C898.242 293.431 896.171 287.444 892.364 282.608L842.248 218.946C836.2 211.263 841.639 199.951 851.382 199.951C855.038 199.951 858.483 201.678 860.684 204.615L887.222 240.016C898.185 254.642 920.058 254.519 930.859 239.772L956.85 204.283C958.845 201.559 962.008 199.951 965.371 199.951Z" fill="white"/>
<path d="M1133.15 322.306C1139.01 322.306 1143.76 327.085 1143.76 332.981C1143.76 338.877 1139.01 343.656 1133.15 343.656H1056.18C1041.15 343.656 1028.97 331.401 1028.97 316.284V210.776C1028.97 204.798 1033.79 199.951 1039.73 199.951C1045.67 199.951 1050.49 204.798 1050.49 210.776V294.934C1050.49 310.051 1062.68 322.306 1077.7 322.306H1133.15Z" fill="white"/>
<path d="M1352 271.804C1352 282.205 1349.94 291.923 1345.82 300.955C1341.7 309.852 1335.86 317.653 1328.28 324.359C1320.71 331.065 1311.81 336.334 1301.58 340.166C1291.35 343.862 1280.06 345.709 1267.7 345.709C1255.34 345.709 1243.98 343.862 1233.62 340.166C1223.39 336.334 1214.49 331.065 1206.92 324.359C1199.48 317.653 1193.7 309.852 1189.58 300.955C1185.46 291.923 1183.4 282.205 1183.4 271.804C1183.4 261.402 1185.46 251.754 1189.58 242.858C1193.7 233.825 1199.48 225.955 1206.92 219.249C1214.49 212.543 1223.39 207.342 1233.62 203.647C1243.98 199.815 1255.34 197.898 1267.7 197.898C1280.06 197.898 1291.35 199.815 1301.58 203.647C1311.81 207.342 1320.71 212.543 1328.28 219.249C1335.86 225.955 1341.7 233.825 1345.82 242.858C1349.94 251.754 1352 261.402 1352 271.804ZM1330.08 271.804C1330.08 261.813 1327.42 252.917 1322.11 245.116C1316.79 237.178 1309.42 230.951 1299.99 226.434C1290.69 221.781 1279.92 219.454 1267.7 219.454C1255.34 219.454 1244.45 221.781 1235.02 226.434C1225.72 230.951 1218.41 237.178 1213.09 245.116C1207.91 252.917 1205.32 261.813 1205.32 271.804C1205.32 281.795 1207.91 290.759 1213.09 298.697C1218.41 306.498 1225.72 312.726 1235.02 317.379C1244.45 321.895 1255.34 324.154 1267.7 324.154C1279.92 324.154 1290.69 321.895 1299.99 317.379C1309.42 312.726 1316.79 306.43 1322.11 298.492C1327.42 290.554 1330.08 281.658 1330.08 271.804Z" fill="white"/>
<path fill-rule="evenodd" clip-rule="evenodd" d="M271.557 509.143C271.557 494.17 259.4 482.032 244.404 482.032C229.407 482.032 217.25 494.17 217.25 509.143C217.25 524.115 229.407 536.253 244.404 536.253C259.4 536.253 271.557 524.115 271.557 509.143ZM232.241 463.267C232.895 463.095 233.556 462.936 234.221 462.791V405.892L199.113 406.265L232.241 463.267ZM254.586 462.791V405.676L291.369 405.285L257.782 463.605C256.731 463.298 255.666 463.026 254.586 462.791ZM275.639 473.388L315.005 405.034L394.863 404.186C395.28 406.076 395.811 407.924 396.447 409.723L279.503 477.161C278.288 475.832 276.998 474.572 275.639 473.388ZM289.7 494.762C291.143 499.298 291.922 504.129 291.922 509.143C291.922 535.345 270.647 556.586 244.404 556.586C218.16 556.586 196.885 535.345 196.885 509.143C196.885 504.129 197.664 499.297 199.108 494.761L81.6066 427.001C72.9733 435.862 60.9015 441.366 47.542 441.366C21.2982 441.366 0.0234375 420.125 0.0234375 393.922C0.0234375 371.209 16.0089 352.224 37.3596 347.57V209.833C16.0089 205.18 0.0234375 186.194 0.0234375 163.482C0.0234375 137.279 21.2982 116.038 47.542 116.038C63.0518 116.038 76.8261 123.457 85.4991 134.934L201.262 68.1765C198.453 62.1207 196.885 55.3737 196.885 48.2612C196.885 22.0587 218.16 0.817383 244.404 0.817383C270.647 0.817383 291.922 22.0587 291.922 48.2612C291.922 55.3733 290.355 62.1198 287.546 68.1754L403.31 134.934C411.983 123.456 425.757 116.038 441.266 116.038C467.51 116.038 488.785 137.279 488.785 163.482C488.785 186.194 472.8 205.179 451.45 209.833V347.571C472.8 352.225 488.785 371.21 488.785 393.922C488.785 420.125 467.51 441.366 441.266 441.366C427.907 441.366 415.835 435.862 407.202 427.001L289.7 494.762ZM209.305 477.16L92.362 409.722C92.6337 408.954 92.8861 408.176 93.1187 407.391L175.712 406.513L214.112 472.587C212.405 473.998 210.798 475.527 209.305 477.16ZM394.8 153.507L275.1 84.4788C274.987 84.5738 274.875 84.6684 274.761 84.7624L317.46 156.703H394.229C394.383 155.626 394.574 154.56 394.8 153.507ZM293.788 156.703L256.641 94.1169C255.962 94.297 255.277 94.4625 254.586 94.6131V156.703H293.788ZM234.221 156.703V94.6131C233.559 94.4687 232.901 94.3105 232.25 94.1389L196.011 156.703H234.221ZM172.485 156.703L214.12 84.8236C213.982 84.7097 213.845 84.5951 213.708 84.4797L94.0088 153.508C94.2344 154.56 94.4249 155.626 94.5793 156.703H172.485ZM430.784 347.637C430.884 347.614 430.985 347.592 431.085 347.57V209.834C430.006 209.599 428.941 209.327 427.891 209.02L388.799 276.898L430.784 347.637ZM412.272 356.331C409.481 358.48 406.936 360.932 404.686 363.638L355.473 334.765L377.141 297.141L412.272 356.331ZM394.82 383.852C394.975 383.14 395.145 382.433 395.331 381.733L345.321 352.393L326.788 384.574L394.82 383.852ZM408.792 198.118C409.199 198.498 409.613 198.872 410.033 199.238L376.876 256.81L359.188 227.008L408.792 198.118ZM395.715 177.036C396.15 178.494 396.653 179.922 397.22 181.318L348.805 209.515L329.528 177.036H395.715ZM57.7247 209.833C58.8087 209.597 59.879 209.324 60.934 209.015L101.627 279.036L61.3794 348.522C60.1806 348.158 58.9616 347.84 57.7247 347.57V209.833ZM78.7897 199.225C79.516 198.592 80.2227 197.937 80.909 197.261L131.724 227.075L113.38 258.745L78.7897 199.225ZM93.093 177.036C92.7738 178.107 92.4177 179.162 92.0263 180.2L141.92 209.473L160.708 177.036H93.093ZM113.41 299.31L79.1351 358.483C80.9309 360.08 82.6046 361.811 84.1403 363.66L133.949 334.651L113.41 299.31ZM94.5644 387.041C94.3031 385.245 93.941 383.482 93.4842 381.758L144.169 352.238L163.967 386.304L94.5644 387.041ZM187.368 386.055L161.76 341.992L234.221 299.79V385.558L187.368 386.055ZM254.586 385.341V299.158L327.763 342.091L303.152 384.825L254.586 385.341ZM337.914 324.463L265.154 281.775L341.596 237.253L365.219 277.053L337.914 324.463ZM234.221 263.626L159.478 219.774L184.233 177.036H234.221V263.626ZM254.586 177.036V264.39L331.214 219.761L305.856 177.036H254.586ZM151.54 324.406L125.163 279.019L149.283 237.376L224.847 281.71L151.54 324.406ZM47.542 366.812C62.5385 366.812 74.6955 378.949 74.6955 393.922C74.6955 408.895 62.5385 421.033 47.542 421.033C32.5456 421.033 20.3885 408.895 20.3885 393.922C20.3885 378.949 32.5456 366.812 47.542 366.812ZM74.6955 163.482C74.6955 148.509 62.5385 136.371 47.542 136.371C32.5456 136.371 20.3885 148.509 20.3885 163.482C20.3885 178.454 32.5456 190.592 47.542 190.592C62.5385 190.592 74.6955 178.454 74.6955 163.482ZM441.266 136.371C456.263 136.371 468.42 148.509 468.42 163.482C468.42 178.454 456.263 190.592 441.266 190.592C426.27 190.592 414.113 178.454 414.113 163.482C414.113 148.509 426.27 136.371 441.266 136.371ZM468.42 393.922C468.42 378.949 456.263 366.812 441.266 366.812C426.27 366.812 414.113 378.949 414.113 393.922C414.113 408.895 426.27 421.033 441.266 421.033C456.263 421.033 468.42 408.895 468.42 393.922ZM244.404 21.1505C259.4 21.1505 271.557 33.2883 271.557 48.2612C271.557 63.234 259.4 75.3719 244.404 75.3719C229.407 75.3719 217.25 63.234 217.25 48.2612C217.25 33.2883 229.407 21.1505 244.404 21.1505Z" fill="white"/>
</svg>
