<?xml version="1.0" encoding="UTF-8"?>
<svg width="18px" height="20px" viewBox="0 0 18 20" version="1.1" xmlns="http://www.w3.org/2000/svg" xmlns:xlink="http://www.w3.org/1999/xlink">
    <!-- Generator: Sketch 42 (36781) - http://www.bohemiancoding.com/sketch -->
    <title>Icon</title>
    <desc>Created with Sketch.</desc>
    <defs></defs>
    <g id="Symbols" stroke="none" stroke-width="1" fill="none" fill-rule="evenodd">
        <g id="Icon" transform="translate(-2.000000, -5.000000)" fill="#959FAC">
            <g transform="translate(13.253048, 13.081475) rotate(45.000000) translate(-13.253048, -13.081475) translate(5.253048, 2.581475)">
                <path d="M7.84574608,1.66825036 L7.75197568,1.76187576 C7.78524734,1.73311114 7.81660186,1.70189357 7.84574608,1.66825036 Z M0.198429838,14.1049884 L0.196293348,14.1152432 C0.868004762,13.9155131 1.56072538,14.4599186 1.49821902,15.1823868 L1.5066763,15.178792 L1.87935017,13.3905038 L0.198429838,14.1049884 Z M4.45780191,8.7388947 L4.41238818,9.44675141 L3.83645835,9.86079048 L2.44076608,10.86099 C2.40821619,10.8874145 2.39705143,10.9051616 2.39191598,10.9309393 L1.87935017,13.3905038 L4.73302408,12.1775337 L5.32238822,13.5515569 C5.32918367,13.5673996 5.34100624,13.5918998 5.37462663,13.6590839 C5.43483537,13.7793998 5.46322528,13.838233 5.4639877,13.8465839 C5.55824813,14.0349458 5.59835008,14.1125778 5.64801487,14.1996373 C5.92525151,14.6982425 6.43025557,15 6.98212779,15 C7.534,15 8.03900406,14.6982425 8.3162407,14.1996373 L8.36019257,14.127615 C8.38332006,14.0827909 8.40861672,14.0350386 8.44691129,13.9632968 C8.49444121,13.8742533 8.51399052,13.8370189 8.5360123,13.7930125 C8.58349462,13.6981279 8.6029813,13.6584663 8.62499123,13.6112256 C8.64297734,13.5721694 8.64297734,13.5721694 8.65973957,13.5336998 L9.25067863,12.1560048 L12.1192466,13.3843543 L11.6057298,10.9194129 C11.6027096,10.904325 9.58383518,9.46901708 9.58383518,9.46901708 L9.54167985,8.74830092 C9.40962192,6.49054862 8.51970353,4.29858724 7.00760721,2.5397785 C5.50064561,4.27408948 4.60406995,6.45903753 4.45780191,8.7388947 Z M0.708980419,15.5178571 C0.351536124,15.7142857 -0.077397029,15.3928571 0.0119640446,15 L0.923446995,10.625 C0.994935854,10.25 1.20940243,9.92857143 1.49535787,9.69642857 L2.96087947,8.64285714 C3.13960162,5.85714286 4.30129558,3.16071429 6.30298363,1.08928571 L6.78553342,0.607142857 C6.91063893,0.464285714 7.14297772,0.464285714 7.26808322,0.607142857 L7.75063302,1.125 C9.73444885,3.21428571 10.8782706,5.91071429 11.0391205,8.66071429 L12.5046421,9.69642857 C12.8084698,9.92857143 13.0050641,10.2678571 13.076553,10.625 L13.988036,15 C14.077397,15.3928571 13.6484639,15.7142857 13.2910196,15.5178571 L10.0382765,14.125 C9.98465986,14.25 9.93104321,14.3571429 9.87742657,14.4642857 C9.80593771,14.6071429 9.73444885,14.7321429 9.66295999,14.875 L9.62721556,14.9285714 C9.09104912,15.8928571 8.0902051,16.5 6.98212779,16.5 C5.87405047,16.5 4.87320645,15.8928571 4.33704001,14.9285714 C4.26555115,14.8035714 4.19406229,14.6607143 4.12257343,14.5178571 C4.06895679,14.3928571 3.99746793,14.2678571 3.94385128,14.1428571 L0.708980419,15.5178571 Z" id="Shape" fill-rule="nonzero"></path>
                <path d="M2.12319398,19.7604978 L5.35806485,18.3854978 C5.41168149,18.5104978 5.48317035,18.6354978 5.53678699,18.7604978 C5.60827585,18.903355 5.67976471,19.0462121 5.75125357,19.1712121 L5.75125357,19.1712121 C6.28742001,20.1354978 7.28826404,20.7426407 8.39634135,20.7426407 C9.50441866,20.7426407 10.5052627,20.1354978 11.0414291,19.1712121 L11.0771736,19.1176407 C11.1486624,18.9747835 11.2201513,18.8497835 11.2916401,18.7069264 C11.3452568,18.5997835 11.3988734,18.4926407 11.4524901,18.3676407 L14.7052331,19.7604978 C15.0626774,19.9569264 15.4916106,19.6354978 15.4022495,19.2426407 L14.4907666,14.8676407 C14.4192777,14.5104978 14.2226833,14.1712121 13.9188557,13.9390693 L12.4533341,12.903355 C12.2924842,10.153355 11.1486624,7.4569264 9.16484658,5.36764069 L8.68229678,4.84978354 C8.55719128,4.7069264 8.32485249,4.7069264 8.19974699,4.84978354 L7.71719719,5.3319264 C5.71550914,7.40335497 4.55381518,10.0997835 4.37509304,12.8854978 L2.90957143,13.9390693 C2.62361599,14.1712121 2.40914942,14.4926407 2.33766056,14.8676407 L1.42617761,19.2426407 C1.33681653,19.6354978 1.76574969,19.9569264 2.12319398,19.7604978 Z" id="Shape" fill-opacity="0.100000001" fill-rule="nonzero"></path>
                <path d="M7,5.5 C7.55555556,5.5 8,5.94444444 8,6.5 C8,7.05555556 7.55555556,7.5 7,7.5 C6.44444444,7.5 6,7.05555556 6,6.5 C6,5.9537037 6.4537037,5.5 7,5.5 Z" id="Path"></path>
            </g>
        </g>
    </g>
</svg>