<?xml version="1.0" encoding="UTF-8"?>
<svg width="16px" height="16px" viewBox="0 0 16 16" version="1.1" xmlns="http://www.w3.org/2000/svg" xmlns:xlink="http://www.w3.org/1999/xlink">
    <!-- Generator: Sketch 42 (36781) - http://www.bohemiancoding.com/sketch -->
    <title>Icon</title>
    <desc>Created with Sketch.</desc>
    <defs></defs>
    <g id="Symbols" stroke="none" stroke-width="1" fill="none" fill-rule="evenodd">
        <g id="Icon" fill="#959FAC">
            <path d="M1.50463277e-36,10.990778 C-1.25813119e-20,10.4435864 0.364531517,9.72660136 0.796318054,9.40276146 L7.20368195,4.59723854 C7.64347626,4.2673928 8.36453152,4.27339864 8.79631805,4.59723854 L15.2036819,9.40276146 C15.6434763,9.7326072 16,10.4509752 16,10.990778 L16,15.009222 C16,15.5564136 15.5621186,16 14.9970707,16 L9,16 L9,11 L7,11 L7,16 L1.00292933,16 C0.449026756,16 1.04805573e-19,15.5490248 9.23941476e-20,15.009222 L1.50463277e-36,10.990778 Z" id="Rectangle" fill-opacity="0.100000001"></path>
            <path d="M5.5,14.5 L5.5,9.5 L10.5,9.5 L10.5,14.5 L14.5,14.5 L14.5,6.99539757 C14.5,6.92338496 14.3622489,6.64668665 14.3036819,6.60276146 L8,1.875 L1.69631805,6.60276146 C1.63870796,6.64596903 1.5,6.92218891 1.5,6.99539757 L1.5,14.5 L5.5,14.5 Z M0,6.99539757 C-3.84964262e-17,6.44565467 0.364531517,5.72660136 0.796318054,5.40276146 L7.20368195,0.597238541 C7.64347626,0.267392803 8.36453152,0.273398638 8.79631805,0.597238541 L15.2036819,5.40276146 C15.6434763,5.7326072 16,6.4556644 16,6.99539757 L16,15.0046024 C16,15.5543453 15.5621186,16 14.9970707,16 L9,16 L9,11 L7,11 L7,16 L1.00292933,16 C0.449026756,16 5.98649958e-16,15.5443356 5.60854475e-16,15.0046024 L0,6.99539757 Z" id="Rectangle" fill-rule="nonzero"></path>
        </g>
    </g>
</svg>