<?xml version="1.0" encoding="UTF-8"?>
<svg width="16px" height="15px" viewBox="0 0 16 15" version="1.1" xmlns="http://www.w3.org/2000/svg" xmlns:xlink="http://www.w3.org/1999/xlink">
    <!-- Generator: Sketch 42 (36781) - http://www.bohemiancoding.com/sketch -->
    <title>Icon</title>
    <desc>Created with Sketch.</desc>
    <defs>
        <path d="M5.5,19 C2.46243388,19 0,16.5375661 0,13.5 C0,10.4624339 2.46243388,8 5.5,8 C8.53756612,8 11,10.4624339 11,13.5 C11,16.5375661 8.53756612,19 5.5,19 Z M5.5,7 C3.56700338,7 2,5.43299662 2,3.5 C2,1.56700338 3.56700338,0 5.5,0 C7.43299662,0 9,1.56700338 9,3.5 C9,5.43299662 7.43299662,7 5.5,7 Z" id="path-1"></path>
        <mask id="mask-2" maskContentUnits="userSpaceOnUse" maskUnits="objectBoundingBox" x="0" y="0" width="11" height="19" fill="white">
            <use xlink:href="#path-1"></use>
        </mask>
        <mask id="mask-4" maskContentUnits="userSpaceOnUse" maskUnits="objectBoundingBox" x="0" y="0" width="11" height="19" fill="white">
            <use xlink:href="#path-1"></use>
        </mask>
        <path d="M5.5,7 C3.56700338,7 2,5.43299662 2,3.5 C2,1.56700338 3.56700338,0 5.5,0 C7.43299662,0 9,1.56700338 9,3.5 C9,5.43299662 7.43299662,7 5.5,7 Z M5.5,19 C2.46243388,19 0,16.5375661 0,13.5 C0,10.4624339 2.46243388,8 5.5,8 C8.53756612,8 11,10.4624339 11,13.5 C11,16.5375661 8.53756612,19 5.5,19 Z" id="path-5"></path>
        <mask id="mask-7" maskContentUnits="userSpaceOnUse" maskUnits="objectBoundingBox" x="0" y="0" width="11" height="19" fill="white">
            <use xlink:href="#path-5"></use>
        </mask>
        <mask id="mask-8" maskContentUnits="userSpaceOnUse" maskUnits="objectBoundingBox" x="-1.5" y="-1.5" width="14" height="22">
            <rect x="-1.5" y="-1.5" width="14" height="22" fill="white"></rect>
            <use xlink:href="#path-5" fill="black"></use>
        </mask>
    </defs>
    <g id="Symbols" stroke="none" stroke-width="1" fill="none" fill-rule="evenodd">
        <g id="Icon" transform="translate(0.000000, -1.000000)">
            <g id="person" transform="translate(5.000000, 1.000000)">
                <mask id="mask-3" fill="white">
                    <use xlink:href="#path-1"></use>
                </mask>
                <g id="Combined-Shape" stroke="#959FAC" mask="url(#mask-2)" stroke-width="3">
                    <use mask="url(#mask-4)" xlink:href="#path-1"></use>
                </g>
                <path d="M2.5,20 C-0.537566124,20 -3,17.5375661 -3,14.5 C-3,11.4624339 -0.537566124,9 2.5,9 C5.53756612,9 8,11.4624339 8,14.5 C8,17.5375661 5.53756612,20 2.5,20 Z M2.5,8 C0.567003376,8 -1,6.43299662 -1,4.5 C-1,2.56700338 0.567003376,1 2.5,1 C4.43299662,1 6,2.56700338 6,4.5 C6,6.43299662 4.43299662,8 2.5,8 Z" id="Combined-Shape" fill-opacity="0.100000001" fill="#959FAC" mask="url(#mask-3)"></path>
                <rect id="Rectangle-6" fill="#FFFFFF" mask="url(#mask-3)" x="-1" y="13" width="12" height="2"></rect>
            </g>
            <g id="person" transform="translate(0.000000, 3.000000)">
                <mask id="mask-6" fill="white">
                    <use xlink:href="#path-5"></use>
                </mask>
                <g id="Combined-Shape" stroke-width="3">
                    <use stroke="#959FAC" mask="url(#mask-7)" fill="#FFFFFF" fill-rule="evenodd" xlink:href="#path-5"></use>
                    <use stroke="#FFFFFF" mask="url(#mask-8)" xlink:href="#path-5"></use>
                </g>
                <path d="M3.5,9 C1.56700338,9 0,7.43299662 0,5.5 C0,3.56700338 1.56700338,2 3.5,2 C5.43299662,2 7,3.56700338 7,5.5 C7,7.43299662 5.43299662,9 3.5,9 Z M3.5,21 C0.462433876,21 -2,18.5375661 -2,15.5 C-2,12.4624339 0.462433876,10 3.5,10 C6.53756612,10 9,12.4624339 9,15.5 C9,18.5375661 6.53756612,21 3.5,21 Z" id="Combined-Shape" fill-opacity="0.100000001" fill="#959FAC" mask="url(#mask-6)"></path>
            </g>
        </g>
    </g>
</svg>