<?xml version="1.0" encoding="UTF-8"?>
<svg width="16px" height="16px" viewBox="0 0 16 16" version="1.1" xmlns="http://www.w3.org/2000/svg" xmlns:xlink="http://www.w3.org/1999/xlink">
    <!-- Generator: Sketch 42 (36781) - http://www.bohemiancoding.com/sketch -->
    <title>Icon</title>
    <desc>Created with Sketch.</desc>
    <defs></defs>
    <g id="Symbols" stroke="none" stroke-width="1" fill="none" fill-rule="evenodd">
        <g id="Icon" fill="#959FAC">
            <g>
                <rect id="Rectangle-2" fill-opacity="0.100000001" x="0" y="6" width="16" height="10" rx="2"></rect>
                <path d="M1.5,4.00585866 L1.5,13.9941413 C1.5,14.2760299 1.72272887,14.5 1.99406028,14.5 L14.0059397,14.5 C14.2758775,14.5 14.5,14.2746874 14.5,13.9941413 L14.5,4.00585866 C14.5,3.72397007 14.2772711,3.5 14.0059397,3.5 L1.99406028,3.5 C1.72412253,3.5 1.5,3.7253126 1.5,4.00585866 Z M0,4.00585866 C0,2.89805351 0.894513756,2 1.99406028,2 L14.0059397,2 C15.1072288,2 16,2.89706013 16,4.00585866 L16,13.9941413 C16,15.1019465 15.1054862,16 14.0059397,16 L1.99406028,16 C0.892771196,16 0,15.1029399 0,13.9941413 L0,4.00585866 Z" id="Rectangle-2" fill-rule="nonzero"></path>
                <rect id="Rectangle-3" x="4.5" y="0" width="1.5" height="5" rx="0.75"></rect>
                <rect id="Rectangle-3" x="10" y="0" width="1.5" height="5" rx="0.75"></rect>
                <g id="days" transform="translate(3.000000, 7.000000)">
                    <g id="row">
                        <rect id="Rectangle-4" x="0.5" y="0" width="2" height="2"></rect>
                        <rect id="Rectangle-4" x="4" y="0" width="2" height="2"></rect>
                        <rect id="Rectangle-4" x="7.5" y="0" width="2" height="2"></rect>
                    </g>
                    <g id="row" transform="translate(0.000000, 3.500000)">
                        <rect id="Rectangle-4" x="0.5" y="0" width="2" height="2"></rect>
                        <rect id="Rectangle-4" x="4" y="0" width="2" height="2"></rect>
                        <rect id="Rectangle-4" x="7.5" y="0" width="2" height="2"></rect>
                    </g>
                </g>
            </g>
        </g>
    </g>
</svg>