<?xml version="1.0" encoding="UTF-8"?>
<svg width="427px" height="470px" viewBox="0 0 427 470" version="1.1" xmlns="http://www.w3.org/2000/svg" xmlns:xlink="http://www.w3.org/1999/xlink">
    <!-- Generator: Sketch 47.1 (45422) - http://www.bohemiancoding.com/sketch -->
    <title>Axolotyl_Digging</title>
    <desc>Created with Sketch.</desc>
    <defs></defs>
    <g id="Feeds" stroke="none" stroke-width="1" fill="none" fill-rule="evenodd" opacity="0.3">
        <g id="Axolotyl_Digging">
            <g id="Group-7-Copy" transform="translate(213.670049, 233.083119) rotate(-6.000000) translate(-213.670049, -233.083119) translate(22.170049, 19.583119)">
                <g id="Artboard-19" transform="translate(191.743750, 201.228559) rotate(14.000000) translate(-191.743750, -201.228559) translate(36.743750, 33.228559)">
                    <g id="Layer_1" transform="translate(0.000000, 0.000000)">
                        <path d="M125.668444,253.93587 C119.339157,255.808666 110.418532,252.33826 105.029466,249.418227 C96.2464339,244.68655 87.3487412,239.633822 79.6282346,233.365688 C72.1064737,227.2963 61.8481373,218.841963 53.7760037,219.789827 C23.0162825,223.512487 50.1144961,273.298288 59.9447649,287.241065 C68.4908306,299.356909 80.8436411,309.103093 95.2068409,313.620736" id="Shape" fill="#EBEDEC"></path>
                        <path d="M115.975768,263.636189 C107.911278,262.871783 83.3967591,248.348057 76.1196083,244.954092 C69.7597455,241.988195 73.4288971,243.960364 68.6895763,238.663026 C64.8675433,234.420569 59.3026633,225.989165 52.4994447,229.375486 C47.1485985,232.035621 48.6774117,239.213399 49.5029708,243.899211 C52.6676141,262.000359 61.1525273,271.838272 72.6950668,286.46137 C83.4961319,300.220689 112.27604,306.832806 129.322307,309.630534" id="Shape" fill="#FFFFFF"></path>
                        <path d="M128.619053,307.864755 C116.036921,307.78067 110.273295,304.279688 98.233891,300.985095 C86.637843,297.820452 84.5892334,295.634249 75.9896592,287.225777 C67.726424,279.161287 61.465934,269.254578 56.2221048,258.942733 C52.4000718,251.43626 49.0137506,243.409991 48.9755303,234.98623 C48.8879562,233.156383 49.2037189,231.329656 49.9004623,229.635384 C50.4796412,228.336952 51.4895494,227.278439 52.7593429,226.63891 C53.135503,226.462621 53.5342161,226.339148 53.9441731,226.271995 C53.3555801,226.379012 56.7801216,226.852944 56.5660877,227.571486 C52.7440548,240.566398 59.6695785,253.97409 65.8306956,263.704986 C73.4671175,275.759678 83.3203184,286.973522 93.2576041,297.163062 C104.914805,309.141314 111.901481,304.707755 117.550446,306.045467" id="Shape" fill="#EBEDEC"></path>
                        <path d="M129.329951,313.299685 C129.130285,313.300748 128.930869,313.285408 128.733714,313.253821 C126.88385,312.948058 125.00341,312.657584 123.107681,312.367109 C109.562397,310.264991 95.5890442,308.094077 83.9318437,300.664044 C67.6805596,290.268115 54.2040714,271.456069 46.9574969,249.058955 C41.8741931,233.335112 47.2326833,227.938401 50.8789027,226.126758 C53.317683,224.81004 56.2139445,224.639342 58.7905109,225.66047 C60.1263448,226.276308 61.3691561,227.076544 62.4825947,228.037774 C63.667425,228.985638 65.4637805,230.499163 67.7417121,232.417824 C75.5921678,239.029941 90.1999777,251.336887 97.2248743,254.662056 L97.415976,254.761429 C106.446109,259.099092 116.493327,260.875863 126.463426,259.898241 C127.769514,259.726748 129.066295,260.274582 129.853837,261.330543 C130.641378,262.386504 130.796676,263.785662 130.25986,264.988618 C129.723043,266.191574 128.577958,267.010439 127.266053,267.129527 C115.846419,268.299936 104.327635,266.239321 94.0220107,261.182444 C86.1256906,257.406275 71.6936942,245.244567 63.0558997,237.967416 C60.8161884,236.086976 59.0504092,234.596383 57.9420196,233.709671 C57.3406691,233.176277 56.6756891,232.719263 55.9622065,232.349027 C55.3384715,232.192052 54.6778589,232.291144 54.1276307,232.624214 C51.0700043,234.153027 51.9872923,240.948602 53.8830206,246.803956 C60.6174427,267.618748 72.9931854,285.024286 87.8532495,294.510571 C98.1880266,301.122688 111.419905,303.171298 124.223715,305.158755 C126.142376,305.456874 128.045748,305.747348 129.9109,306.060755 C131.785461,306.361228 133.113946,308.052455 132.961914,309.944848 C132.809882,311.83724 131.228439,313.294688 129.329951,313.292041 L129.329951,313.299685 Z" id="Shape" fill="#27004B"></path>
                        <polygon id="Shape" fill="#FFFFFF" points="88.6711646 234.481722 84.8491316 254.356293 91.7287909 262.764766 94.0220107 299.456282 94.0220107 307.864755 119.247428 312.451194 149.823692 311.686787 178.106736 296.398656 196.083879 282.625704 205.725319 280.221823 187.273846 237.327405 181.164362 218.429183 96.3152305 221.48681"></polygon>
                        <path d="M134.612001,315.860447 C129.826815,315.860447 125.018698,315.631125 120.248801,315.401804 L116.197446,315.210702 C114.208672,315.098177 112.680069,313.407413 112.767956,311.417399 C112.855843,309.427384 114.527546,307.87796 116.518497,307.941195 L120.600428,308.132297 C139.481271,309.034297 157.291944,309.890432 171.739229,296.949028 C180.506972,289.083285 187.60831,274.934119 184.2067,263.131681 C183.847579,261.882266 184.182292,260.53617 185.084756,259.600454 C185.987221,258.664738 187.320331,258.28156 188.581916,258.595259 C189.843502,258.908958 190.841899,259.871876 191.201021,261.121291 C195.626935,276.493508 186.729242,293.279877 176.593211,302.399247 C164.011078,313.651312 149.410912,315.860447 134.612001,315.860447 Z" id="Shape" fill="#27004B"></path>
                        <g id="Group-10" transform="translate(166.903503, 281.301470) rotate(-261.000000) translate(-166.903503, -281.301470) translate(148.903503, 139.801470)">
                            <path d="M8.24030305,279.191863 L8.24030305,279.191863 C5.38268055,278.984065 3.23395906,276.500033 3.43982966,273.642271 L22.6417232,8.22501492 C22.8495215,5.36739242 25.3335531,3.21867092 28.1913151,3.42454153 L28.1913151,3.42454153 C31.0489376,3.63233982 33.1976591,6.11637135 32.9917885,8.97413338 L13.7593186,274.421966 C13.5354343,277.254591 11.0754834,279.380642 8.24030305,279.191863 Z" id="Shape" fill="#EBEDEC"></path>
                            <path d="M8.61486228,282.012524 L8.03391327,282.012524 C3.63219116,281.68657 0.323380534,277.861612 0.634457471,273.458814 L19.8745714,8.02626921 C19.9136483,5.05780911 21.5941841,2.35536665 24.239267,1.00747246 C26.8843499,-0.340421719 30.0584875,-0.111847242 32.4831526,1.60112721 C34.9078177,3.31410167 36.183808,6.22944806 35.7971607,9.17287909 L16.587623,274.590136 C16.2798068,278.768434 12.8044745,282.003858 8.61486228,282.012524 L8.61486228,282.012524 Z M27.8167558,6.21462558 C26.5655013,6.21552151 25.5276805,7.18326432 25.4394513,8.4314047 L6.22991372,273.841017 C6.18163029,275.125133 7.15940979,276.216635 8.44108343,276.309361 C9.72275708,276.402086 10.8474662,275.462694 10.9845227,274.185 L30.2017044,8.77538766 C30.2479644,8.14372597 30.0410723,7.51960453 29.6266522,7.04065526 C29.212232,6.56170599 28.6243222,6.26726749 27.9925694,6.22226965 L27.8167558,6.21462558 Z" id="Shape" fill="#27004B"></path>
                        </g>
                        <path d="M195.198867,177.915634 L210.838626,174.598109 C233.220451,169.851145 253.813564,155.396216 267.955086,134.49734 L267.955086,134.49734 C261.350613,167.580857 237.019552,194.419172 207.276491,201.421137 L182.11987,207.345288 L195.198867,177.915634 Z" id="Shape" fill="#EBEDEC"></path>
                        <path d="M264.660494,138.250576 C254.318073,163.101434 233.602654,182.11987 209.263948,187.85292 L187.914072,192.882715 L181.485413,207.352932 L206.642034,201.428781 C236.385094,194.426816 260.716156,167.588501 267.320629,134.504984 L267.320629,134.504984 C266.449205,135.778995 265.562494,137.027526 264.660494,138.250576 Z" id="Shape" fill="#C8CFCB"></path>
                        <path d="M182.188667,210.288253 C180.955531,210.289102 179.805883,209.665326 179.134381,208.631059 C178.462879,207.596791 178.360917,206.2928 178.863498,205.166729 L191.942495,175.737075 C192.416397,174.672796 193.371274,173.899801 194.510901,173.657889 L210.15066,170.340365 C231.485248,165.815078 251.47448,151.757641 265.004477,131.760764 C265.975386,130.326017 267.823215,129.774758 269.421516,130.443037 C271.019817,131.111316 271.925317,132.813793 271.586018,134.512628 C264.706358,168.910924 239.236331,196.957002 208.140271,204.272373 L182.98365,210.196524 C182.722866,210.256423 182.456239,210.287187 182.188667,210.288253 L182.188667,210.288253 Z M197.83607,180.392311 L188.495021,201.421137 L206.512085,197.17868 C229.444282,191.789614 249.005447,173.94072 259.019173,150.549878 C245.672634,164.217468 229.100299,173.726686 211.625965,177.426414 L197.83607,180.392311 Z" id="Shape" fill="#27004B"></path>
                        <path d="M189.442885,229.788265 C175.966397,236.453891 158.002842,239.19811 138.342305,238.601873 C118.314852,237.997992 100.251924,234.015434 87.1270632,226.287283 L87.211148,217.878811 C100.336009,225.691046 118.467733,229.681248 138.579271,230.292774 C157.689436,230.873723 175.194347,228.290028 188.533242,222.029538 L189.442885,229.788265 Z" id="Shape" fill="#EBEDEC"></path>
                        <path d="M186.889767,223.879402 L186.889767,223.879402 C185.38092,223.875526 184.151707,222.666687 184.122616,221.158115 L172.878195,220.447217 C172.710579,220.437035 172.544256,220.411447 172.38133,220.370776 L170.531466,219.912132 C170.088132,220.139407 169.591538,220.242424 169.094382,220.210251 L113.514379,216.69398 C113.015737,216.66165 112.535078,216.495268 112.123159,216.212404 L110.235074,216.434082 C110.067274,216.449838 109.898367,216.449838 109.730566,216.434082 L99.0288739,215.75376 C98.8238485,216.967689 97.8434734,217.901379 96.6209931,218.04698 L95.8565865,218.138709 C92.4685224,218.519349 89.2033347,219.630348 86.286216,221.395081 C85.4362436,221.972207 84.3369512,222.032456 83.4289984,221.551676 C82.5210457,221.070896 81.953053,220.127785 81.9527046,219.100396 C81.9523561,218.073008 82.5197089,217.129512 83.4273353,216.648116 C86.6199474,214.711286 90.1584674,213.413223 93.8461972,212.826083 L93.8997056,212.44388 C94.1038705,211.008974 95.3727,209.969331 96.8197388,210.051287 L109.860515,210.876846 L113.262125,210.471711 C114.103181,210.362671 114.947923,210.644252 115.555344,211.236117 L167.88662,214.545998 C168.554616,214.042624 169.414453,213.868408 170.225704,214.072066 L173.543228,214.905269 L187.142022,215.769048 C188.605442,215.861956 189.74395,217.077481 189.741004,218.543844 L189.741004,221.096962 C189.743357,221.847647 189.441453,222.567254 188.904194,223.091549 C188.366935,223.615845 187.640171,223.900086 186.889767,223.879402 Z" id="Shape" fill="#27004B"></path>
                        <path d="M76.8075743,185.5597 L61.2748323,183.847429 C39.0535327,181.401328 18.0247074,168.918568 2.94296538,149.219811 L2.94296538,149.219811 C11.3514379,182.089294 36.7526689,206.695542 66.3275599,210.662812 L91.3312995,214.010913 L76.8075743,185.5597 Z" id="Shape" fill="#EBEDEC"></path>
                        <path d="M71.2426943,166.831738 L49.5335471,150.970302 C32.4490598,138.479898 20.638978,118.29192 17.0386229,95.5966883 L12.7655901,68.4755424 L23.0468587,88.3959782 C32.005704,105.763296 45.2146499,119.836021 60.8696968,128.802511 L89.9171473,145.42071 L71.2426943,166.831738 Z" id="Shape" fill="#EBEDEC"></path>
                        <path d="M94.6258919,136.484797 L75.8138457,115.478904 C61.00729,98.9447891 52.7516988,76.4406591 53.1568343,53.7072071 L53.6384105,26.563129 L60.3881207,48.4022253 C66.2740514,67.4512376 76.9069471,84.4592842 90.9643843,97.2478065 L116.954208,120.944411 L94.6258919,136.484797 Z" id="Shape" fill="#EBEDEC"></path>
                        <path d="M6.39808317,152.690217 C17.978843,176.791956 39.3898716,193.884088 63.5909843,197.125172 L84.8491316,199.968764 L91.9963332,213.957405 L66.9925936,210.609304 C37.4253467,206.649678 12.0088275,182.012853 3.60799911,149.166302 L3.60799911,149.166302 C4.50490284,150.374065 5.43493086,151.548703 6.39808317,152.690217 Z" id="Shape" fill="#C8CFCB"></path>
                        <path d="M16.5646908,77.4420317 C20.1421137,100.152552 31.9827718,120.325241 49.059615,132.808001 L70.7611181,148.677082 L79.2536754,138.930898 L90.5668929,145.397778 L71.8695077,166.801162 L50.1680046,150.932081 C33.0835173,138.441678 21.2428592,118.268988 17.6730804,95.566112 L13.4000475,68.4449662 L15.9225893,73.3371683 L16.5646908,77.4420317 Z" id="Shape" fill="#C8CFCB"></path>
                        <path d="M53.7836477,53.6307664 L54.043546,38.9006514 C54.6856475,60.1435106 62.8036455,80.8665733 76.6699811,96.3458067 L95.4820273,117.3517 L105.824448,110.15099 L117.573378,120.852682 L95.2527053,136.408356 L76.4406591,115.402463 C61.6341034,98.8683485 53.3785122,76.3642184 53.7836477,53.6307664 Z" id="Shape" fill="#C8CFCB"></path>
                        <path d="M92.4091128,216.518167 C92.2487635,216.528802 92.0878859,216.528802 91.9275366,216.518167 L66.923797,213.170066 C35.9423979,209.019338 9.24167569,183.243548 0.496864284,149.021065 C0.0713161168,147.347136 0.88120559,145.604699 2.43518642,144.850861 C3.98916726,144.097023 5.85897782,144.539534 6.91023558,145.90993 C21.2963676,164.699044 41.6448711,176.807244 62.7119167,179.131041 L78.2446587,180.843311 C79.4628895,180.977453 80.531738,181.715878 81.0882512,182.807836 L95.6119764,211.25905 C96.1899467,212.387447 96.1388975,213.73533 95.4772326,214.816778 C94.8155676,215.898226 93.6386971,216.557295 92.3708925,216.556387 L92.4091128,216.518167 Z M13.6752339,163.896417 C24.7744176,186.691022 45.0694126,202.881153 67.8945934,205.93878 L86.0186737,208.369593 L75.5310153,187.85292 L61.9169339,186.324107 C44.5266839,184.41309 27.6180101,176.447973 13.6675898,163.896417 L13.6752339,163.896417 Z" id="Shape" fill="#27004B"></path>
                        <path d="M71.2197621,169.751772 C70.4471838,169.751844 69.6947217,169.505486 69.0717796,169.048518 L47.3932086,153.179437 C29.5443147,140.131016 17.168572,119.086903 13.4459119,95.4361629 L9.17287909,68.315017 C8.88750445,66.5462499 9.93219865,64.832973 11.635296,64.276704 C13.3383934,63.7204351 15.192975,64.486745 16.006674,66.0829498 L26.2879427,86.0033856 C34.9563134,102.820331 47.54609,116.266242 62.6813405,124.919325 L91.7287909,141.537524 C92.6771365,142.079091 93.3320803,143.017982 93.5128193,144.095008 C93.6935583,145.172035 93.3809773,146.27329 92.661367,147.09476 L73.9639817,168.498145 C73.2743671,169.294266 72.2730321,169.751701 71.2197621,169.751772 Z M19.8516392,89.4890796 L20.6160458,94.3430615 C24.0405873,116.098073 35.3614489,135.414628 51.6662415,147.33937 L70.6770334,161.236282 L84.2605385,145.680608 L59.035121,131.271544 C42.7150403,121.899919 29.1697555,107.460279 19.8745714,89.4508593 L19.8516392,89.4890796 Z" id="Shape" fill="#27004B"></path>
                        <path d="M94.518875,139.412474 C93.4775006,139.405518 92.4892421,138.951755 91.8052316,138.166491 L72.9931854,117.160598 C57.5827485,99.9538058 48.9908184,76.5247438 49.411242,52.8969361 L49.8928182,25.7987224 C49.9214969,24.0088692 51.2477894,22.5057602 53.0201468,22.2544701 C54.7925041,22.0031799 56.4843553,23.0783672 57.0094436,24.7897057 L63.7515097,46.6364461 C69.2083961,64.7149138 79.3947818,81.0078531 93.2576041,93.830909 L119.247428,117.527513 C120.066732,118.273403 120.501537,119.351959 120.428625,120.457533 C120.355714,121.563107 119.783032,122.575221 118.872869,123.207054 L96.5445524,138.755084 C95.9504258,139.172188 95.2447088,139.401213 94.518875,139.412474 L94.518875,139.412474 Z M56.7648334,48.6468355 L56.6883928,53.0498174 C56.2985454,74.8659815 64.2177977,96.4757559 78.4204722,112.329549 L95.0845359,130.935205 L111.014769,119.820733 L88.3806901,99.1817552 C73.5443694,85.4801006 62.6396746,68.0621467 56.7954097,48.7309202 L56.7648334,48.6468355 Z" id="Shape" fill="#27004B"></path>
                        <path d="M209.447406,161.328011 L231.187129,144.281744 C248.325125,130.843476 260.081699,110.15099 263.452732,87.4786903 L267.481154,60.3957648 L257.299259,80.7366241 C248.424498,98.4785011 235.261417,113.223904 219.491709,123.092393 L190.276089,141.376999 L209.447406,161.328011 Z" id="Shape" fill="#EBEDEC"></path>
                        <path d="M185.27687,134.08456 L201.191815,110.097481 C213.730135,91.1481327 218.750731,68.2038429 215.272184,45.7497345 L210.976219,19.4388596 L207.261203,41.9506337 C204.076751,61.4713178 195.8771,79.830318 183.465226,95.2297731 L160.754706,123.191766 L185.27687,134.08456 Z" id="Shape" fill="#EBEDEC"></path>
                        <path d="M263.720274,69.4769151 C260.349241,92.1492145 248.592667,112.849345 231.454672,126.279969 L209.684372,143.349168 L201.038933,134.283306 L189.672207,141.399931 L208.782372,161.373875 L230.552672,144.281744 C247.690668,130.843476 259.447241,110.15099 262.818274,87.4786903 L266.846697,60.3957648 L264.347087,65.3949839 L263.720274,69.4769151 Z" id="Shape" fill="#C8CFCB"></path>
                        <path d="M214.637727,45.7955989 L212.344507,31.5241278 C214.589177,52.6637769 209.405491,73.9255381 197.683189,91.6599943 L181.768243,115.647073 L170.409161,110.60199 L160.135537,123.237631 L184.6577,134.130425 L200.572645,110.143346 C213.105638,91.1919219 218.120749,68.2477911 214.637727,45.7955989 L214.637727,45.7955989 Z" id="Shape" fill="#C8CFCB"></path>
                        <path d="M209.447406,164.255688 C208.454266,164.255691 207.504282,163.849739 206.817847,163.132011 L187.707682,143.158066 C186.949563,142.367699 186.587772,141.277894 186.7227,140.191054 C186.857628,139.104214 187.474922,138.135961 188.403292,137.554966 L217.618912,119.27036 C232.907044,109.722922 245.496821,95.5737561 254.104039,78.3669637 L264.285935,58.0261043 C265.059805,56.3772392 266.933658,55.5546318 268.671218,56.1009979 C270.408778,56.647364 271.474637,58.3943476 271.165594,60.189375 L267.137171,87.2723005 C263.628545,110.854244 251.375107,132.372289 233.503281,146.406794 L211.732982,163.475994 C211.082697,163.989603 210.276008,164.264794 209.447406,164.255688 Z M196.03207,141.323491 L209.791389,155.68669 L228.97035,140.650813 C245.374516,127.816426 256.626581,107.957143 259.898241,86.1868431 L260.570919,81.6844883 C251.39804,100.030246 237.845111,115.180785 221.471522,125.423833 L196.03207,141.323491 Z" id="Shape" fill="#27004B"></path>
                        <path d="M185.284514,137.004593 C184.77623,137.004538 184.27362,136.897766 183.809209,136.691187 L159.287045,125.798393 C158.249897,125.338684 157.486516,124.42153 157.22267,123.318174 C156.958824,122.214818 157.224709,121.051534 157.94169,120.17236 L180.682786,92.2103671 C192.710646,77.3148855 200.648719,59.5418229 203.714357,40.6434984 L207.429373,18.1546565 C207.714467,16.391972 209.236492,15.0966311 211.022084,15.0970302 L211.022084,15.0970302 C212.804781,15.1003774 214.322521,16.394825 214.60715,18.1546565 L218.872539,44.4655314 C222.493464,67.8251757 217.274019,91.6956186 204.234153,111.412261 L188.319208,135.399339 C187.639526,136.408008 186.500797,137.010358 185.284514,137.004593 L185.284514,137.004593 Z M166.587128,121.07436 L183.946802,128.787222 L198.157121,107.383838 C210.191642,89.1979693 215.013118,67.1783539 211.679473,45.6274294 L210.976219,41.293244 L210.88449,41.8436168 C207.612658,61.9951707 199.144993,80.9459845 186.316462,96.8273829 L166.587128,121.07436 Z" id="Shape" fill="#27004B"></path>
                        <path d="M59.2109345,178.764125 C60.1511546,219.086573 98.6466706,234.527586 145.6271,232.073841 C192.607529,229.620096 230.292774,210.196524 229.321977,169.874077 C228.351181,129.551629 189.572835,98.8607044 142.577117,101.31445 C95.5814001,103.768195 58.2707144,138.441678 59.2109345,178.764125 Z" id="Shape" fill="#FFFFFF"></path>
                        <path d="M145.351913,220.447217 C190.329597,218.100489 226.768859,200.198086 228.977994,163.307824 C229.153808,164.997163 229.268469,166.701789 229.306689,168.421704 C230.246909,208.744152 192.569308,228.160079 145.581235,230.621469 C98.5931621,233.082858 60.1052903,217.626556 59.1650701,177.311753 C59.1268498,175.584194 59.1650701,173.871923 59.2567989,172.174941 C63.1934929,208.744152 100.381874,222.801589 145.351913,220.447217 Z" id="Shape" fill="#EBEDEC"></path>
                        <path d="M136.324271,235.957027 C108.224685,235.957027 85.4912331,229.077367 71.6631179,216.265913 C61.3436289,206.695542 55.9239862,194.098122 55.5723592,178.84821 C54.5862747,136.637678 93.5327905,100.228992 142.386016,97.652942 C168.230603,96.2999423 192.9668,104.723703 210.257677,120.760953 C224.483284,133.954611 232.555417,151.337217 232.983485,169.76706 C233.877841,208.147915 201.291188,232.784739 145.841133,235.68184 C142.60005,235.865298 139.427762,235.957027 136.324271,235.957027 Z M147.79037,104.815432 C146.123964,104.815432 144.45501,104.858748 142.783507,104.945381 C97.8440436,107.299753 61.9551542,140.375626 62.8495099,178.680041 C63.1552725,191.896631 67.7875765,202.74356 76.6088286,210.930355 C90.5057404,223.81825 114.951463,230.040519 145.405422,228.44291 C169.361924,227.189283 189.412309,221.56325 203.40095,212.161049 C218.597353,201.940933 226.096181,187.745903 225.683402,169.965806 C225.301199,153.538708 218.039336,137.967746 205.28139,126.127088 C190.566563,112.451854 169.820568,104.815432 147.775082,104.815432 L147.79037,104.815432 Z" id="Shape" fill="#27004B"></path>
                        <path d="M159.631028,310.555466 L166.418959,313.674245 L178.595956,331.1868 L192.691613,324.215412 C196.89585,323.08409 196.452494,318.100159 192.30941,316.754803 L184.879378,317.35104 L177.816261,298.126215 L174.63633,300.220689 L159.631028,310.555466 Z" id="Shape" fill="#FFFFFF"></path>
                        <path d="M95.4208748,295.71069 L93.127655,310.761856 L79.8575566,331.324393 L104.272703,332.792053 C108.094736,332.837918 106.779957,327.204241 106.565923,327.081936 L102.430483,324.314784 L114.660989,309.393568 L115.188429,297.163062 L95.4208748,295.71069 Z" id="Shape" fill="#FFFFFF"></path>
                        <path d="M178.160244,334.542545 C176.960503,334.545025 175.836651,333.955932 175.156126,332.967867 L166.808806,320.859667 C165.724361,319.282539 164.087719,318.169622 162.222367,317.740888 L162.069485,317.702667 L151.956386,314.912583 C150.459865,314.482718 149.402717,313.148274 149.326686,311.593095 C149.250655,310.037917 150.172593,308.606717 151.620047,308.032924 C164.255688,303.163654 171.708653,298.034486 172.969923,295.940012 C173.598273,294.893532 174.709487,294.23184 175.928932,294.178019 C177.148377,294.124197 178.313566,294.685417 179.031668,295.672469 L183.006582,301.137977 C185.169853,303.339468 185.735513,305.930806 186.240022,308.23167 L187.394276,313.536651 L192.118309,313.62838 C192.474097,313.635567 192.826916,313.6948 193.165546,313.804194 C196.742968,314.958448 199.005612,317.779108 198.929171,320.981972 C198.852731,323.909649 196.781189,326.386326 193.578325,327.387699 L179.765498,334.221494 C179.261912,334.449571 178.712814,334.559391 178.160244,334.542545 L178.160244,334.542545 Z M163.926993,310.63955 C167.540395,311.485761 170.707882,313.65012 172.809398,316.708939 L179.368007,326.210513 L190.337241,320.859667 L184.382514,320.745006 C182.696812,320.712488 181.254253,319.526173 180.89682,317.878481 L179.123396,309.768127 C178.718261,307.910619 178.450719,306.832806 177.739821,306.152484 C177.576891,305.998252 177.428482,305.829373 177.296465,305.647975 L175.714143,303.469417 C172.480703,306.137196 167.947772,308.644449 163.827621,310.647195 L163.926993,310.63955 Z" id="Shape" fill="#27004B"></path>
                        <path d="M106.703516,335.933765 L106.46655,335.933765 L83.1139286,334.573121 C81.9587091,334.503335 80.9164522,333.856053 80.3417603,332.851498 C79.7670684,331.846942 79.737341,330.620407 80.2626921,329.58919 L89.5731643,311.411601 L90.7044861,299.425706 C90.7658553,298.163038 91.5163566,297.036324 92.657864,296.493133 C93.7993714,295.949943 95.1470666,296.078223 96.1655969,296.827016 C97.1841271,297.575809 97.7085849,298.823881 97.5306369,300.075451 L96.3152305,312.695804 C96.2749643,313.127609 96.1530466,313.547836 95.9559594,313.934143 L88.7399611,328.022156 L105.73272,329.015885 C105.630482,328.901614 105.520669,328.794355 105.404025,328.694834 L105.304652,328.603105 L101.482619,325.086835 C100.788164,324.449206 100.386574,323.553987 100.372116,322.611316 C100.357658,321.668644 100.731604,320.761531 101.406178,320.102904 L113.262125,308.55272 C114.63154,307.313787 116.735777,307.380491 118.023974,308.70367 C119.312171,310.02685 119.322483,312.132119 118.04731,313.467855 L108.790346,322.487853 L109.898736,323.512157 C112.620023,325.858886 113.720769,329.283427 112.719396,332.065867 C111.840328,334.489036 109.585329,335.933765 106.703516,335.933765 Z" id="Shape" fill="#27004B"></path>
                        <path d="M204.053569,281.960102 C195.779598,281.565684 182.41957,227.366007 182.320197,226.662753 C182.146259,225.613895 182.557685,224.553598 183.393554,223.896575 C184.229423,223.239552 185.356899,223.090217 186.334991,223.50698 C187.313083,223.923744 187.986354,224.840373 188.091466,225.898346 C188.488717,227.716589 200.365117,276.409074 207.493189,277.001013 C208.466333,277.769554 208.746959,279.289774 208.340386,280.461254 C207.933814,281.632733 206.830052,282.418305 205.590026,282.418746 C205.042119,282.395967 204.524455,281.982549 204.053569,281.960102 Z" id="Shape" fill="#27004B"></path>
                        <path d="M195.743603,139.101896 C195.006313,139.101713 194.281798,138.909387 193.641485,138.543879 C191.654028,137.412558 188.36708,136.609931 184.866097,136.395897 C181.365115,136.181863 177.925285,136.586998 175.823167,137.481354 C174.413247,138.129504 172.762557,137.960813 171.512888,137.040867 C170.263218,136.120921 169.611748,134.594874 169.811769,133.056054 C170.01179,131.517234 171.031742,130.208444 172.475066,129.638543 C175.792591,128.22439 180.50898,127.574645 185.393538,127.880407 C190.278096,128.18617 194.696366,129.33278 197.853365,131.129135 C199.535793,132.086325 200.362748,134.056412 199.867576,135.927663 C199.372403,137.798913 197.679262,139.102129 195.743603,139.101896 L195.743603,139.101896 Z" id="Shape" fill="#27004B"></path>
                        <path d="M96.684153,141.020557 C94.8365998,141.016589 93.2016447,139.823606 92.6341342,138.065368 C92.0666238,136.307131 92.6955955,134.383416 94.1921875,133.30005 C97.1657291,131.152068 101.645152,129.432153 106.468557,128.568373 C111.291963,127.704594 115.886047,127.803967 119.325876,128.782407 C120.814964,129.187171 121.969318,130.364648 122.344473,131.86147 C122.719627,133.358291 122.257074,134.941021 121.134913,136.000252 C120.012751,137.059483 118.405989,137.430023 116.933284,136.969202 C114.800589,136.342388 111.444844,136.342388 107.966794,136.969202 C104.488744,137.596015 101.087135,138.82671 99.1761185,140.225574 C98.4499265,140.746417 97.577806,141.024639 96.684153,141.020557 Z" id="Shape" fill="#27004B"></path>
                        <path d="M113.822149,157.569959 C113.93681,161.888857 110.917404,165.588584 107.080083,165.825551 C103.242762,166.062517 100.039898,162.767924 99.9252369,158.441383 C99.8105759,154.114842 102.829982,150.422758 106.667303,150.185792 C110.504624,149.948826 113.707488,153.243418 113.822149,157.569959 Z" id="Shape" fill="#27004B"></path>
                        <path d="M192.456655,153.014096 C192.571316,157.332993 189.55191,161.032721 185.714589,161.269687 C181.877268,161.506653 178.674404,158.212061 178.559743,153.88552 C178.445082,149.558978 181.464488,145.866894 185.301809,145.629928 C189.13913,145.392962 192.341994,148.695199 192.456655,153.014096 Z" id="Shape" fill="#27004B"></path>
                        <g id="Group-8" transform="translate(201.982454, 291.452040) rotate(-286.000000) translate(-201.982454, -291.452040) translate(187.982454, 271.952040)">
                            <path d="M21.3829936,30.6215538 C18.0960453,31.9516213 14.7403003,38.1738909 11.4457079,35.4602475 C9.92260882,34.1524376 9.42705326,32.0060626 10.2226574,30.1629099 C10.8876911,28.5805882 12.5158772,26.700148 13.884165,26.6084192 C12.2238639,26.5376235 10.5709224,26.3460151 8.93845431,26.0351143 C7.30875183,25.688306 6.01695705,24.4468793 5.60564157,22.8322507 C4.53547235,18.4063365 10.1920811,17.649574 13.2114872,16.9004555 C13.3038952,16.8881382 13.3883887,16.841803 13.4484532,16.7705064 C13.5172498,16.6558454 13.4484532,16.5106082 13.3720125,16.4035912 C13.0789869,16.0141004 12.6558002,15.7428268 12.1795383,15.6391846 C9.80987782,15.0353034 7.36377673,14.8212696 5.68208223,12.8108803 C4.30753818,11.2798918 4.22704279,8.98416312 5.49098058,7.36066126 C7.90650541,4.3030349 11.9960807,4.96042457 15.1760121,5.6025261 C15.6149936,5.66475325 16.061979,5.63876573 16.4907914,5.52608544 L17.8896555,4.9069161 L20.8326209,5.99237346 L23.5462643,11.3432196 L22.2697053,29.7501303 L21.3829936,30.6215538 Z" id="Shape" fill="#FFFFFF"></path>
                            <path d="M12.2789111,38.3267723 C10.862832,38.401468 9.46666693,37.967708 8.34221717,37.1037217 C5.86114941,35.0109975 5.03355905,31.5456566 6.30125157,28.557656 C6.37769223,28.3741984 6.46177696,28.1983849 6.55350575,28.0302155 C6.2164749,27.9285209 5.88697497,27.803362 5.56742124,27.6556563 C3.44859585,26.6662913 1.93121141,24.7226753 1.48549005,22.4271152 C1.11096295,20.409273 1.75426147,18.3364222 3.20540488,16.8851674 C3.55276776,16.5323111 3.93429282,16.2148003 4.3443707,15.9373032 C3.52245469,15.433854 2.78901244,14.7985484 2.17345598,14.056863 C0.961652804,12.5776823 0.399098199,10.6715359 0.613580956,8.77142016 C0.828063713,6.87130446 1.80137588,5.13852481 3.3124218,3.966696 C5.13185917,2.60116071 7.29859669,1.77472781 9.56526771,1.58174743 C10.4825556,1.46708644 11.3921995,1.32949326 12.3018433,1.18425601 L12.3018433,1.18425601 L12.4700128,1.18425601 C13.4408091,1.03901875 14.4116055,0.893781501 15.3824019,0.771476447 C17.5639776,0.345317882 19.8249122,0.637657002 21.8263494,1.60467963 C26.0000094,3.79852655 26.5656703,8.24737291 26.9784499,11.4961009 L26.9784499,11.7101348 C27.4677854,15.5165053 27.4677854,19.3698631 26.9784499,23.1762336 C25.9617891,31.0496215 22.5525357,36.0106203 17.132893,37.5165013 C15.5576647,37.9992697 13.9255375,38.2717193 12.2789111,38.3267723 L12.2789111,38.3267723 Z M11.804979,32.6701635 C12.0725213,32.723672 13.081538,32.8383329 15.6728764,32.1121467 C19.5637059,31.0266893 20.9702141,26.2644363 21.4594343,22.4576914 C21.8902818,19.1157757 21.8902818,15.7323723 21.4594343,12.3904566 L21.4594343,12.1687787 C21.0925191,9.27167774 20.733248,7.31479687 19.2579433,6.53510214 C18.4400282,6.10703445 17.5686047,6.12232258 16.1315203,6.30578017 C15.2065884,6.42044115 14.2816564,6.56567841 13.3567244,6.70327159 L13.188555,6.70327159 L12.7681313,3.92847567 L13.188555,6.70327159 L12.7681313,3.92847567 L13.1732668,6.70327159 C12.2177586,6.84850885 11.2622503,6.9937461 10.299098,7.11605115 C9.08824879,7.17709486 7.91832162,7.57412897 6.92042091,8.26266104 C6.56490915,8.49578384 6.32252229,8.86641146 6.25145581,9.2855587 C6.18038932,9.70470595 6.28706172,10.1345166 6.54586168,10.4717961 C7.34854181,11.2705914 8.38980725,11.7858567 9.51175925,11.9394567 L9.96275914,12.0235415 C11.1743637,12.1696774 12.3386159,12.5821254 13.3720125,13.2313039 C14.0395922,13.6628247 14.5387988,14.3104441 14.7861647,15.0658797 C15.0372655,15.8689428 14.9373163,16.7407214 14.5109784,17.4661164 C13.6930633,18.8573364 12.1413179,19.3159803 9.0301831,19.9657259 L8.64033574,20.0498107 C8.11540874,20.1898859 7.63091255,20.4517757 7.22618355,20.8142173 C7.05507759,20.9642697 6.98145187,21.196927 7.0350819,21.4180985 C7.1538259,21.9188126 7.49432129,22.3381003 7.96001387,22.5570643 C8.6328312,22.7744351 9.34287854,22.8524623 10.0468439,22.7863863 C11.3237022,22.7194501 12.6022971,22.8799215 13.8230124,23.2603184 L13.8230124,23.2603184 C15.014379,23.6788099 15.7793313,24.8416817 15.6919017,26.1013822 C15.6044721,27.3610828 14.6862094,28.4071308 13.4484532,28.6570289 C13.2191312,28.8481305 12.9286567,29.130961 12.7910635,29.2609101 L12.4700128,29.5666727 C12.0751319,29.8823172 11.7454115,30.2717508 11.4992164,30.7132826 C11.2157053,31.3688511 11.3314723,32.1287574 11.797335,32.6701635 L11.804979,32.6701635 Z" id="Shape" fill="#27004B"></path>
                        </g>
                        <g id="Group-11" transform="translate(106.559101, 264.765595) rotate(20.000000) translate(-106.559101, -264.765595) translate(86.559101, 238.765595)">
                            <path d="M3.14935515,32.6325174 C4.13543966,35.1779913 1.42179626,35.0327541 2.20149098,37.4941433 C3.19521955,40.6205662 3.98255834,46.8734122 7.87338789,47.6378188 C9.69957485,47.9370703 11.5108513,47.0268037 12.3604546,45.3828193 C13.1248612,43.9763112 12.9414036,42.2028879 12.7273697,40.6817188 C12.720858,40.5480645 12.6727528,40.4197837 12.5897766,40.3148036 C14.1185897,41.1632949 14.6842506,42.8755657 16.0525384,43.8616502 C17.2597784,44.8165339 18.9044439,45.0032256 20.294995,44.3432263 C24.0711636,42.5010065 21.2657914,38.0139398 20.0350968,35.4302455 C19.9898146,35.357291 19.9734548,35.2700386 19.9892324,35.1856354 C19.9892324,35.0709744 20.1726899,35.02511 20.294995,35.0174659 C20.7395635,35.0085955 21.1728922,35.1575522 21.5180455,35.4378896 C23.3449773,36.767957 24.9425871,38.3808549 27.365756,38.3961431 C29.2591216,38.4724801 30.9372261,37.1865762 31.3559584,35.3385167 C32.120365,31.8146023 28.6881794,29.6513317 26.3490952,27.7632474 C26.0777856,27.5726059 25.8487758,27.3279818 25.6764174,27.0447052 C25.6274903,26.9646665 25.611078,26.8689276 25.630553,26.7771629 C25.7757902,26.2955867 29.0627386,27.602722 29.5060944,27.7250271 C30.8826541,28.1981555 32.360962,28.2931895 33.7867713,28.0002134 C36.6150757,27.2358068 36.2022962,24.6750448 34.3830085,22.5194182 C32.1449176,19.661968 28.6938132,18.0227641 25.0648921,18.093504 C22.2060115,18.0399955 19.3089105,18.2616735 16.4500298,17.9406227" id="Shape" fill="#FFFFFF"></path>
                            <path d="M9.74618404,51.2152416 C9.31263533,51.2161517 8.88001183,51.1751932 8.4543369,51.0929365 C5.58781218,50.5349197 3.86789735,47.4772934 2.72128746,44.878311 C0.282830439,39.4204479 -0.3363389,34.4594491 0.970796371,30.1252638 C1.22983268,29.0864828 2.03790927,28.2735687 3.07512569,28.0083371 C4.11234211,27.7431054 5.21145577,28.0683226 5.93735078,28.855242 C6.66324579,29.6421614 6.89887758,30.7638988 6.55096448,31.776382 C5.66425284,34.7728558 6.14582899,38.2814821 8.03391327,42.4780743 C8.43035615,43.5383778 9.01278622,44.5194489 9.7538281,45.3751752 C10.2491569,45.3383572 10.6908431,45.0496734 10.9233702,44.6107687 C11.1755284,43.7512908 11.2122816,42.8429626 11.0303871,41.9659218 C10.5746696,40.8175903 10.8930615,39.5066884 11.8247487,38.6953297 C12.756436,37.8839711 14.0986535,37.7487334 15.1734708,38.3579227 C16.2761316,39.0347004 17.2241289,39.9358187 17.9559108,41.0027695 C18.2295094,41.3994733 18.550371,41.7614052 18.9114191,42.0805828 C19.3040532,42.3248086 19.7817071,42.391458 20.2261984,42.2640404 C20.4173,42.2028879 20.4325882,42.1417354 20.4478763,42.0882269 C20.6695542,41.3238203 19.7675544,39.6191936 19.1713173,38.4878719 C18.9496394,38.0674482 18.7356055,37.6546687 18.552148,37.2724654 C18.0541212,36.3116885 18.0856288,35.1622288 18.6355395,34.2301768 C19.1854502,33.2981247 20.176343,32.7147023 21.2581473,32.6860258 C22.3774321,32.6309985 23.479918,32.9750174 24.3692821,33.6568222 C24.705621,33.9014323 25.0266718,34.1536865 25.3553666,34.4212288 C26.7236544,35.4761099 27.5415695,36.072347 28.527654,36.0799911 L28.527654,36.0799911 C29.0347621,36.125492 29.5028711,35.8048693 29.6436876,35.3155845 C29.8882977,34.1536865 28.879281,33.1293817 26.4943324,31.2718736 L25.6611293,30.614484 C25.0719933,30.1758429 24.5844221,29.6152663 24.2316889,28.9710098 C23.8282878,28.2180649 23.7376633,27.3365357 23.9794348,26.5172646 C24.2229003,25.7295104 24.7741934,25.0734715 25.5082479,24.697977 C26.9376883,23.9717907 28.4665014,24.4610109 31.0501957,25.3782988 L31.4706194,25.5235361 C31.8604667,25.630553 32.2350259,25.7681462 32.5790089,25.8904512 C32.7613855,25.9621349 32.947692,26.0233864 33.1370257,26.0739088 L33.282263,26.0739088 C33.4280109,26.0469397 33.5646731,25.9838648 33.6797544,25.8904512 C33.660799,25.5605133 33.5189926,25.2496301 33.282263,25.0190277 C31.1877889,22.5423504 22.267164,21.6632828 16.8933857,21.8390963 C15.8284379,21.8753412 14.8287134,21.3271051 14.2867592,20.409656 L7.40709987,8.73716734 C6.96643438,7.99262909 6.87960375,7.09071096 7.17013382,6.27577811 L8.59957415,2.28557571 C9.17453899,0.819285014 10.8110285,0.0757492918 12.2936532,0.607178255 C13.776278,1.13860722 14.5677993,2.7524341 14.0803694,4.25010065 L13.109573,6.95609998 L18.4604192,15.9913859 C23.0468587,15.9913859 33.748551,16.5111824 37.7616856,21.2581473 C39.3330591,22.9823079 39.9102231,25.3919678 39.2904988,27.6409423 C38.6240985,29.6789987 36.9389357,31.2191389 34.8492965,31.6999413 L34.7804999,31.6999413 C35.5409894,33.1925997 35.7572431,34.9037072 35.3920252,36.5386351 C34.6697065,39.7097372 31.825425,41.9417968 28.5735184,41.8894812 L28.527654,41.8894812 C27.7884844,41.8863518 27.0531165,41.7835032 26.3414511,41.5837186 C26.3706088,42.3145643 26.2802391,43.0452674 26.0739088,43.7469892 C25.5067655,45.6560962 24.0380396,47.1648263 22.1448589,47.783056 C20.1640889,48.4444985 17.9961362,48.2390843 16.1748435,47.2173951 L16.121335,47.316768 C14.8870138,49.701067 12.431008,51.2029411 9.74618404,51.2152416 L9.74618404,51.2152416 Z" id="Shape" fill="#27004B"></path>
                        </g>
                        <path d="M102.889127,275.920203 C101.858159,275.922609 100.895396,275.405304 100.328365,274.544271 C98.8454163,272.251051 96.1623491,270.340035 93.5786549,268.429018 C91.8798056,267.251296 90.2513803,265.9751 88.7017408,264.606986 C83.1750812,259.493105 80.9200817,253.247904 81.8220815,245.496821 C82.4030305,240.428805 84.4898605,231.271214 91.8663841,226.852944 C93.309755,226.041216 95.1370153,226.526053 95.9880889,227.94658 C96.8391624,229.367107 96.4047054,231.206997 95.0080952,232.096773 C89.6572491,235.284349 88.2660291,243.020143 87.8991139,246.192431 C87.2264361,252.009565 88.7628933,256.297886 92.8677567,260.096987 C94.2415706,261.304904 95.6835737,262.432985 97.186654,263.475664 C100.24428,265.677155 103.355415,267.955086 105.457533,271.11973 C106.075984,272.058835 106.129079,273.261614 105.595785,274.251562 C105.06249,275.24151 104.028871,275.858865 102.904415,275.859051 L102.889127,275.920203 Z" id="Shape" fill="#27004B"></path>
                        <g id="Group-9" transform="translate(157.223740, 0.539022)"></g>
                    </g>
                </g>
                <path d="M105.972385,281.62334 C106.421178,269.475095 106.844371,263.248771 107.241963,262.944368 C115.800119,256.392097 113.291837,270.62276 115.730027,269.173952 C119.08387,267.181049 120.683129,274.50772 120.527805,291.153966 C116.635169,287.663821 114.408965,287.934958 113.849192,291.967379 C113.320876,296.015907 110.695274,292.567894 105.972385,281.62334 Z" id="Path-2" fill="#FFFFFF"></path>
                <path d="M250.643765,334.473276 C250.643765,357.373477 249.913075,411.292307 292.108247,411.292307 C334.303419,411.292307 333.572729,357.373477 333.572729,334.473276 L250.643765,334.473276 Z" id="Oval-3" stroke="#27004B" stroke-width="6" fill="#EBEDEC" transform="translate(292.108247, 372.882792) rotate(-64.000000) translate(-292.108247, -372.882792) "></path>
                <path d="M182.889126,238.605555 C200.1981,238.605555 214.229796,232.103062 214.229796,224.08183 C214.229796,216.060598 200.763715,218.700363 183.454741,218.700363 C166.145766,218.700363 151.548455,216.060598 151.548455,224.08183 C151.548455,232.103062 165.580151,238.605555 182.889126,238.605555 Z" id="Oval-4" stroke="#27004B" stroke-width="6.4" fill="#EBEDEC"></path>
                <circle id="Oval-6" stroke="#27004B" stroke-width="4.8" fill="#EBEDEC" cx="329.841444" cy="326.974919" r="4.58643955"></circle>
                <circle id="Oval-6-Copy-4" stroke="#27004B" stroke-width="4.8" fill="#EBEDEC" cx="333.99014" cy="348.384805" r="2.23223398"></circle>
                <circle id="Oval-6-Copy-3" stroke="#27004B" stroke-width="4.8" fill="#EBEDEC" cx="312.2643" cy="319.542408" r="2.29875967"></circle>
                <circle id="Oval-6-Copy" stroke="#27004B" stroke-width="4.8" fill="#EBEDEC" cx="302.593226" cy="297.828291" r="8.34890958"></circle>
                <circle id="Oval-6-Copy-2" stroke="#27004B" stroke-width="4.8" fill="#EBEDEC" cx="311.439083" cy="259.824802" r="3.52819068"></circle>
            </g>
        </g>
    </g>
</svg>