<svg width="60" height="60" viewBox="0 0 60 60" fill="none" xmlns="http://www.w3.org/2000/svg">
<g filter="url(#filter0_d)">
<circle cx="30" cy="26" r="15" fill="#0DC39F"/>
</g>
<path d="M30 33.2615L29.388 32.5963L29.3776 32.585L29.3666 32.5744C27.5388 30.8169 26.0653 29.3808 25.0438 28.03C24.0289 26.6878 23.5 25.48 23.5 24.1848C23.5 22.0622 24.9946 20.5 26.85 20.5C27.8743 20.5 28.9229 21.0282 29.6055 21.905L30 22.4118L30.3945 21.905C31.0771 21.0282 32.1257 20.5 33.15 20.5C35.0054 20.5 36.5 22.0622 36.5 24.1848C36.5 25.48 35.9711 26.6878 34.9562 28.03C33.9347 29.3808 32.4612 30.8169 30.6334 32.5744L30.6224 32.585L30.612 32.5963L30 33.2615Z" stroke="white"/>
<defs>
<filter id="filter0_d" x="0" y="0" width="60" height="60" filterUnits="userSpaceOnUse" color-interpolation-filters="sRGB">
<feFlood flood-opacity="0" result="BackgroundImageFix"/>
<feColorMatrix in="SourceAlpha" type="matrix" values="0 0 0 0 0 0 0 0 0 0 0 0 0 0 0 0 0 0 127 0"/>
<feOffset dy="4"/>
<feGaussianBlur stdDeviation="7.5"/>
<feColorMatrix type="matrix" values="0 0 0 0 0 0 0 0 0 0 0 0 0 0 0 0 0 0 0.15 0"/>
<feBlend mode="normal" in2="BackgroundImageFix" result="effect1_dropShadow"/>
<feBlend mode="normal" in="SourceGraphic" in2="effect1_dropShadow" result="shape"/>
</filter>
</defs>
</svg>
