<svg width="15" height="15" viewBox="0 0 15 15" fill="none" xmlns="http://www.w3.org/2000/svg">
<path d="M14.982 7C14.736 3.256 11.744 0.263 8 0.017V0H7.5H7V0.017C3.256 0.263 0.263 3.256 0.017 7H0V7.5V8H0.017C0.263 11.744 3.256 14.736 7 14.982V15H7.5H8V14.982C11.744 14.736 14.736 11.744 14.982 8H15V7.5V7H14.982ZM4.695 1.635C4.212 2.277 3.811 3.082 3.519 4H2.021C2.673 2.983 3.599 2.16 4.695 1.635ZM1.498 5H3.256C3.122 5.632 3.037 6.303 3.01 7H1.019C1.072 6.296 1.238 5.623 1.498 5ZM1.019 8H3.01C3.037 8.697 3.122 9.368 3.256 10H1.498C1.238 9.377 1.072 8.704 1.019 8ZM2.021 11H3.518C3.81 11.918 4.211 12.723 4.695 13.365C3.599 12.84 2.673 12.018 2.021 11ZM7 13.936C5.972 13.661 5.087 12.557 4.55 11H7V13.936ZM7 10H4.269C4.128 9.377 4.039 8.704 4.01 8H7V10ZM7 7H4.01C4.039 6.296 4.128 5.623 4.269 5H7V7ZM7 4H4.55C5.087 2.443 5.972 1.339 7 1.065V4ZM12.979 4H11.483C11.19 3.082 10.79 2.277 10.305 1.635C11.4 2.16 12.327 2.983 12.979 4ZM8 1.065C9.027 1.339 9.913 2.443 10.45 4H8V1.065ZM8 5H10.73C10.872 5.623 10.959 6.296 10.99 7H8V5ZM8 8H10.99C10.961 8.704 10.872 9.377 10.73 10H8V8ZM8 13.936V11H10.45C9.913 12.557 9.027 13.661 8 13.936ZM10.305 13.365C10.788 12.722 11.19 11.918 11.483 11H12.979C12.327 12.018 11.4 12.84 10.305 13.365ZM13.502 10H11.744C11.878 9.368 11.963 8.697 11.99 8H13.98C13.928 8.704 13.762 9.377 13.502 10ZM11.99 7C11.963 6.303 11.878 5.632 11.744 5H13.502C13.762 5.623 13.928 6.296 13.981 7H11.99Z" fill="#0DC39F"/>
</svg>
