<svg width="14" height="14" viewBox="0 0 14 14" fill="none" xmlns="http://www.w3.org/2000/svg">
<g clip-path="url(#clip0)">
<path d="M7.67606 0.726001L9.25508 3.9255C9.36488 4.14803 9.57719 4.30222 9.82278 4.33785L13.3537 4.85095C13.9723 4.94089 14.219 5.70076 13.7716 6.13676L11.2167 8.62721C11.0391 8.80039 10.9579 9.05007 11 9.2945L11.603 12.8111C11.7087 13.427 11.0622 13.8966 10.5091 13.6061L7.35103 11.9459C7.13142 11.8305 6.86888 11.8305 6.64928 11.9459L3.49124 13.6061C2.93814 13.8969 2.29158 13.427 2.39729 12.8111L3.00034 9.2945C3.04239 9.05007 2.96121 8.80039 2.78365 8.62721L0.228666 6.13676C-0.218727 5.70047 0.0280402 4.9406 0.646563 4.85095L4.17752 4.33785C4.42312 4.30222 4.63543 4.14803 4.74523 3.9255L6.32424 0.726001C6.60051 0.165592 7.39951 0.165592 7.67606 0.726001Z" fill="#FDD549"/>
</g>
<defs>
<clipPath id="clip0">
<rect width="14" height="14" fill="white"/>
</clipPath>
</defs>
</svg>
