<svg width="601" height="82" viewBox="0 0 601 82" fill="none" xmlns="http://www.w3.org/2000/svg">
<path fill-rule="evenodd" clip-rule="evenodd" d="M27.1 30.7C31.7 30.7 34.4001 28.2 34.4001 23.8C34.4001 19.6 31.5 16.9 27.3 16.9H16.8V9.10001C16.8 3.50001 12.8 0.5 8.80005 0.5C4.80005 0.5 0.800049 3.40001 0.800049 9.10001V62.7C0.800049 75.6 5.90005 81.3 17.4001 81.3C23.6001 81.3 27.2001 79.7 29.9001 78.1C31.9001 77 32.7001 74.6 32.7001 72.7C32.7001 69.3 30.4 65.4 27.1 65.4C26.4 65.4 25.7 65.6 25.1 65.9C24.2 66.3 23 66.8 21.3 66.8C19.2 66.8 16.9001 66.1 16.9001 60.4V30.6L27.1 30.7ZM64.1 28.6C66.1 27.9 68.1001 27.5 70.1001 27.5C76.8001 27.5 81.4 31.8 83.7 36.1L53.9001 47C52.6001 40.4 54.4 32.1 64.1 28.6ZM96.2 58.3C94.5 58.3 92.9 58.9 91.7 60L91.5 60.2C88.6 62.7 85.3 64.7 81.7 65.9C79.1 66.9 76.3001 67.4 73.4001 67.5C66.5001 67.5 60.7 63.8 57.7 57.6L94.5 44.2C100.3 42.1 101.1 37.8 99.9001 34.5C95.4001 22.2 84.8 14.5 72.3 14.5C68.2 14.5 64 15.3 59.7 16.9C50.3 20.3 43.6001 26.5 40.3001 34.8C37.3001 42.3 37.4 51.1 40.5 59.6C45.5 73.4 56.2 81.3 69.8 81.3C72.5 81.3 75.2 81 77.8 80.4C80.2 79.9 82.6001 79.2 84.9001 78.4C91.0001 76.2 96.7001 72.9 101.1 69.1C102.6 67.5 103.2 65.4 102.8 63.5C101.9 60.5 99.2 58.3 96.2 58.3ZM157.9 48.1C157.9 57.5 152.6 66.9 140.7 66.9C130.5 66.9 123.7 59.4 123.7 48.2C123.7 36.8 130.6 29.2 140.9 29.2C149.3 29.3 157.9 35.1 157.9 48.1ZM166.2 14.9C161.5 14.9 158 18.3 158 22.9V23.1C153.3 17.8 146.3 14.8 138.1 14.8C119.5 14.8 107 28.1 107 48C107 67.9 119.3 81.2 137.5 81.2C146.5 81.2 153.7 77.9 158.3 72V73.2C158.3 79.1 162.3 81.2 166.1 81.2C170.8 81.2 173.7 78.1 173.7 73.2V22.8C173.9 18.1 170.9 14.9 166.2 14.9ZM258.2 14.9C274.9 14.9 283.3 25.1 283.3 45.2V73.1C283.3 78.3 280.3 81.3 275.1 81.3C269.9 81.3 267.1 78.4 267.1 73.1V45.2C267.1 33.5 263.5 28.5 255.1 28.5C246.2 28.5 241.8 33.9 241.8 45.2V73.1C241.8 78.3 238.8 81.3 233.6 81.3C228.4 81.3 225.6 78.4 225.6 73.1V44.8C225.6 33.2 222.1 28.5 213.6 28.5C204.9 28.5 200.5 33.5 200.5 43.4V73.3C200.5 78.3 197.4 81.3 192.3 81.3C187.1 81.3 184.3 78.5 184.3 73.3V23.2C184.3 17.4 188.4 14.8 192.5 14.8C197.1 14.8 200.4 17.9 200.5 22.2C204.2 17.6 210.5 14.8 217.5 14.8C227 14.8 233.9 18.8 237.8 26.3C241.5 19.1 248.8 14.9 258.2 14.9ZM380.9 14.9C384.9 14.9 387.8 18.1 387.8 22.4C387.8 23.9 387.4 25.5 386.6 27.2L368.4 74.2C366.5 79 363.4 81.4 359.2 81.4C354.8 81.4 351.8 79 350.2 74.2L338.1 40.4L325.7 74.2C324.5 77.5 322.4 81.4 316.8 81.4C311.7 81.4 309.5 78.5 307.8 74.2L289.4 27.4C288.6 25.4 288.2 23.9 288.2 22.4C288.2 17.7 291.7 14.9 295.1 14.9C298.6 14.9 301.6 17.5 303.1 21.7L316.8 60.3L330.3 21.9C331.8 17.3 333.5 14.9 338.1 14.9C342.4 14.9 344.2 17.7 345.7 21.9L359.2 60.3L372.9 21.7C374.4 17.5 377.4 14.9 380.9 14.9ZM422.1 68.6C411.5 68.6 404.9 60.8 404.9 48.1C404.9 35.9 411.7 28 422.1 28C432.6 28 439.3 35.9 439.3 48.1C439.3 60.6 432.5 68.6 422.1 68.6ZM422.1 15.1C411.6 15.1 402.9 18.5 397 25.1C391.7 31 388.7 39.1 388.7 48.2C388.7 57.2 391.6 65.5 397 71.4C402.9 78 411.7 81.5 422.1 81.5C446.7 81.5 455.5 63.6 455.5 48.3C455.5 32.9 446.7 15.1 422.1 15.1ZM494.6 14.9C500.1 14.9 503.7 17.8 503.7 22.4C503.7 26.6 501.1 29.5 497.3 29.5C496.3 29.5 495.6 29.3 494.9 29.2C494.1 29 493.2 28.8 491.7 28.8C482.4 28.8 478.4 35 478.4 49.5V73.4C478.4 78.7 474.4 81.4 470.4 81.4C466.4 81.4 462.4 78.7 462.4 73.4V23C462.4 18.5 465.9 15 470.4 15C474.6 15 478 18.2 478.4 22.3C482.4 17.6 488.4 14.9 494.6 14.9ZM540.6 48.3L558.1 30.1C560.5 27.7 562.8 25.4 562.8 22.2C562.8 18 559.7 14.9 555.5 14.9C552.3 14.9 550 17.4 547.7 19.8L526.6 41.6V8.5C526.6 4.1 523 0.5 518.6 0.5C514.2 0.5 510.6 4.1 510.6 8.5V73.3C510.6 77.7 514.2 81.3 518.6 81.3C523 81.3 526.6 77.7 526.6 73.3V53.7L547.8 75.7C548.2 76.1 548.5 76.4 548.9 76.8C551 79 553.2 81.3 556.5 81.3C560.3 81.3 563.6 78.1 563.6 74.2C563.6 71.4 561.7 69.3 559.8 67.3L540.6 48.3Z" fill="#1D1C39"/>
<path fill-rule="evenodd" clip-rule="evenodd" d="M586.8 53.3C579.1 53.3 572.8 59.6 572.8 67.3C572.8 75.1 579.1 81.3 586.8 81.3C594.6 81.3 600.8 75 600.8 67.3C600.8 59.6 594.5 53.3 586.8 53.3Z" fill="#FF22B1"/>
</svg>
