<?xml version="1.0" encoding="utf-8"?>
<!-- Generator: Adobe Illustrator 24.3.0, SVG Export Plug-In . SVG Version: 6.00 Build 0)  -->
<svg version="1.1" id="Layer_1" xmlns="http://www.w3.org/2000/svg" xmlns:xlink="http://www.w3.org/1999/xlink" x="0px" y="0px"
	 viewBox="0 0 1100 220" style="enable-background:new 0 0 1100 220;" xml:space="preserve">
<style type="text/css">
	.st0{clip-path:url(#SVGID_2_);}
	.st1{fill:#48B862;}
</style>
<g>
	<defs>
		<rect id="SVGID_1_" y="0" width="1100" height="220"/>
	</defs>
	<clipPath id="SVGID_2_">
		<use xlink:href="#SVGID_1_"  style="overflow:visible;"/>
	</clipPath>
	<g class="st0">
		<path d="M691.2,191.1v-54.7c0-33.1,29.1-32.5,44.3-30V69c-24.3-2.1-38.7,4.6-45.3,17.8h-0.8l0.2-17.2H656v121.5H691.2z"/>
		<path d="M838,191.1h22l36.2-45.8l30.6,45.8h40.8l-48.2-70.4l42.2-51.3H921l-48.2,61.1h-0.8l0.4-121.9H838V191.1z"/>
		<path d="M442.1,191.1h27.2l41.6-78.1l40.3,78.1h27.5l61.8-121.7h-41l-38,77.6l-36-77.6h-29.5l-38,77.9l-36-77.9h-41L442.1,191.1z"
			/>
		<path d="M782.3,52c11.9,0,21.6-9.7,21.6-21.7s-9.7-21.7-21.6-21.7c-11.9,0-21.6,9.7-21.6,21.7S770.4,52,782.3,52z"/>
		<path d="M799.7,69.4H765v121.7h34.7V69.4z"/>
		<path d="M1066.1,150.7c-4.2,6.4-13.1,14.3-27.9,14.3c-17.3,0-29.7-10.1-32.4-24.6h94.2c0-2.5,0-6.2,0-9.7
			c0-35.2-25.2-63.4-62.6-63.4c-36.6,0-64.9,27.9-64.9,63.4c0,35.4,27.7,63.4,64.9,63.4c27.7,0,44.5-11,55.3-25.1L1066.1,150.7z
			 M1035.5,94.6c16,0,27.2,8.9,31,21.7h-62.2C1008.1,103.5,1019.1,94.6,1035.5,94.6z"/>
		<path class="st1" d="M81.3,79.9c16.8,0,24.7,3.1,36.8,15.3l65.1,65.4c1.9,1.9,2.3,2.7,2.7,3.9c0.2,0.4,0.2,1,0.2,1.4
			c0,0.4,0,1-0.2,1.4c-0.4,1.2-0.8,1.9-2.7,3.9l-44.5,44.9c-1.9,1.9-2.7,2.3-3.9,2.7c-0.4,0.2-1,0.2-1.3,0.2c-0.4,0-1,0-1.3-0.2
			c-1.2-0.4-1.9-0.8-3.9-2.7L2.1,89.2c-3.7-3.7-2.3-9.3,3.9-9.3H81.3z"/>
		<path class="st1" d="M265.1,0c-16.8,0-24.7,3.1-36.8,15.3l-65.1,65.4c-1.9,1.9-2.3,2.7-2.7,3.9c-0.2,0.4-0.2,1-0.2,1.4
			c0,0.4,0,1,0.2,1.4c0.4,1.2,0.8,1.9,2.7,3.9l44.5,44.7c1.9,1.9,2.7,2.3,3.9,2.7c0.4,0.2,1,0.2,1.3,0.2c0.4,0,1,0,1.3-0.2
			c1.2-0.4,1.9-0.8,3.9-2.7L344.3,9.1c3.7-3.7,2.3-9.1-3.9-9.1L265.1,0z"/>
	</g>
</g>
</svg>
