<svg width="16" height="16" viewBox="0 0 16 16" fill="none" xmlns="http://www.w3.org/2000/svg">
<g opacity="0.9">
<path d="M14.7194 0H1.28045C1.0449 0 0.8479 0.20985 0.8479 0.449679V3.19914C0.8479 3.21199 0.8479 3.22484 0.852183 3.24197C0.852183 3.24625 0.856466 3.25482 0.856466 3.2591C0.856466 3.26767 0.860748 3.27195 0.860748 3.28051C0.860748 3.28908 0.865031 3.29336 0.865031 3.30193C0.865031 3.30621 0.869314 3.31478 0.869314 3.31906C0.873596 3.32762 0.873596 3.33619 0.877879 3.34047C0.877879 3.34475 0.882162 3.34904 0.882162 3.3576C0.886444 3.36617 0.886444 3.37045 0.890727 3.37901C0.89501 3.3833 0.89501 3.38758 0.899292 3.39615C0.903575 3.40471 0.907858 3.40899 0.907858 3.41328C0.91214 3.41756 0.91214 3.42612 0.916423 3.43041C0.920706 3.43469 0.924988 3.44325 0.929271 3.44754C0.933554 3.45182 0.937836 3.46039 0.942119 3.46467C0.946401 3.46895 0.950684 3.47323 0.954967 3.4818C0.959249 3.48608 0.963532 3.48608 0.963532 3.49036L5.85861 8.82655V15.5717C5.85861 15.7388 5.95282 15.8887 6.10272 15.9615C6.15839 15.9872 6.21835 16 6.28259 16C6.38537 16 6.48387 15.9657 6.56096 15.8972L9.99565 12.9722C10.0899 12.8908 10.1455 12.7709 10.1413 12.6467V8.82655L15.0321 3.48608C15.0363 3.4818 15.0363 3.4818 15.0406 3.47752C15.0449 3.47323 15.0492 3.46895 15.0535 3.46039C15.0577 3.4561 15.062 3.45182 15.0663 3.44325C15.0706 3.43469 15.0749 3.43041 15.0792 3.42612C15.0834 3.42184 15.0877 3.41328 15.0877 3.40899C15.092 3.40471 15.0963 3.39615 15.1006 3.39186C15.1049 3.38758 15.1049 3.3833 15.1091 3.37473C15.1134 3.36617 15.1177 3.36188 15.1177 3.35332C15.1177 3.34904 15.122 3.34475 15.122 3.33619C15.1263 3.32762 15.1263 3.32334 15.1306 3.31478C15.1306 3.31049 15.1348 3.30193 15.1348 3.29764C15.1348 3.28908 15.1391 3.2848 15.1391 3.27623C15.1391 3.26767 15.1434 3.26338 15.1434 3.25482C15.1434 3.25054 15.1477 3.24197 15.1477 3.23769C15.1477 3.22484 15.152 3.21199 15.152 3.19486V0.445396C15.152 0.20985 14.9592 0 14.7194 0ZM9.40036 8.37687C9.32756 8.45396 9.28473 8.55246 9.28473 8.65953V12.4454L6.71514 14.6424V8.65953C6.71514 8.55246 6.67231 8.45396 6.59951 8.37687L2.25261 3.64026H13.7473L9.40036 8.37687ZM14.2954 2.78373H1.70443V0.856531H14.2954V2.78373Z" fill="#C0C5CD"/>
</g>
</svg>
