<svg width="28" height="28" viewBox="0 0 28 28" fill="none" xmlns="http://www.w3.org/2000/svg">
<path d="M14 0C6.26768 0 0 6.26812 0 14C0 21.7323 6.26768 28 14 28C21.7314 28 28 21.7323 28 14C28 6.26812 21.7314 0 14 0ZM25.8245 9.00506C25.9193 9.22808 26.0065 9.45366 26.0876 9.68056C25.8048 9.84845 25.5476 10.016 25.351 10.1595C25.0041 10.4133 24.782 10.6295 24.7443 10.9234C24.7384 10.9657 24.7307 10.9892 24.7264 10.9999C24.7085 11.0072 24.6589 11.0213 24.5546 11.0213C24.2505 11.0213 23.8052 10.9021 23.3746 10.7867C22.8858 10.656 22.3799 10.5206 21.9459 10.5206C21.3648 10.5206 21.0589 10.7709 20.9042 10.9811C20.6522 11.3242 20.647 11.816 20.8897 12.2958C21.281 13.0682 22.374 13.8933 24.2692 13.8933C24.2923 13.8933 24.3145 13.8933 24.3367 13.8933C24.2632 14.1073 24.1257 14.4418 23.8659 14.9537C23.5232 15.6288 23.1054 16.344 22.8294 16.8182C22.7738 16.9139 22.7234 17.0002 22.6807 17.0737C22.268 17.7889 22.1261 18.5392 21.9903 19.2646C21.8715 19.8961 21.7587 20.4925 21.4733 21.0146C21.2247 21.4675 20.8435 21.8589 20.4394 22.2733C20.2352 22.4826 20.025 22.698 19.8284 22.927C19.1012 23.7712 18.5322 24.26 17.7717 24.26C17.7708 24.26 17.7708 24.26 17.7708 24.26C17.7204 24.26 17.6683 24.2583 17.6162 24.2531C17.218 24.219 16.9889 23.6276 16.8676 23.1372C16.6958 22.4459 16.642 21.7375 16.5839 20.9873C16.5207 20.155 16.4549 19.2937 16.2173 18.4349C15.9627 17.5147 15.4295 16.8969 14.6331 16.5969C13.9648 16.3466 13.1898 16.3466 12.5045 16.3466H12.4626H12.4207C12.2986 16.3466 12.1763 16.3466 12.0542 16.3449C10.5212 16.3278 9.60859 15.4203 9.54964 13.8557C9.49752 12.4625 9.84528 11.3675 10.5827 10.6014C11.4415 9.70971 12.6071 9.5089 12.9471 9.5089C12.9591 9.5089 12.9659 9.50934 12.9711 9.50934L13.1035 9.53329C14.6237 9.80459 15.5123 10.0075 15.7456 10.1357C16.2019 10.3882 16.6898 10.516 17.1948 10.516C18.0356 10.516 18.8867 10.1391 19.3644 9.55637C19.6326 9.22868 19.7446 8.86851 19.6797 8.54126C19.5874 8.07898 19.0961 7.80938 18.6286 7.60687C18.2168 7.42826 17.6707 7.24582 17.006 7.06382C15.8191 6.73909 14.4545 6.47336 13.6871 6.41823C13.6529 6.41566 13.617 6.41484 13.5811 6.41484C13.3675 6.41484 13.1402 6.45542 12.9001 6.49901C12.683 6.53789 12.4592 6.57803 12.2865 6.57803C12.2421 6.57803 12.2096 6.57546 12.1874 6.57207C12.2011 6.49261 12.2618 6.33795 12.3942 6.16361C13.4205 4.81135 14.9671 4.19825 16.6051 3.54927C17.2221 3.30488 17.8604 3.05151 18.4688 2.75587C18.5688 2.70714 18.6397 2.67258 18.9892 2.17268C18.9909 2.17355 18.9926 2.17394 18.9943 2.17481C20.5222 2.82122 21.8953 3.74664 23.0737 4.92543C24.253 6.10449 25.1785 7.47682 25.8245 9.00506ZM1.16725 14.0684C1.36205 14.3555 1.54066 14.6212 1.69017 14.8451C1.90635 15.1664 2.06188 15.3988 2.15332 15.5253C2.3567 15.809 2.56862 16.0884 2.7737 16.3584C3.04287 16.713 3.29662 17.048 3.53079 17.3881C3.93154 17.9708 4.20755 18.4835 4.37505 18.9569C4.55705 19.4731 4.5955 19.9174 4.49039 20.2763C4.40836 20.5548 4.20755 20.8351 3.89222 21.1094C3.83157 21.1513 3.68971 21.2452 3.49234 21.3717C2.97112 20.6309 2.53017 19.8371 2.17388 18.9945C1.51419 17.4342 1.17578 15.7765 1.16725 14.0684ZM25.8245 18.9945C25.1785 20.5232 24.2531 21.8955 23.0739 23.0747C21.8955 24.253 20.5224 25.1793 18.9945 25.8253C17.4128 26.4943 15.7329 26.8336 14 26.8336C12.2662 26.8336 10.5863 26.4944 9.00463 25.8253C7.47677 25.1793 6.10362 24.253 4.92527 23.0747C4.67491 22.8243 4.43647 22.5646 4.20919 22.298C4.43308 22.1527 4.5903 22.0476 4.61595 22.0262C5.06455 21.6443 5.44141 21.1786 5.60973 20.606C6.00195 19.2713 5.23031 17.7999 4.49203 16.7266C4.05366 16.09 3.55206 15.4731 3.10089 14.845C2.88127 14.5391 2.09858 13.3355 1.29194 12.1974C1.44572 11.1002 1.73972 10.0317 2.17377 9.00501C2.82062 7.47677 3.74604 6.10444 4.92521 4.92521C6.10356 3.74642 7.47671 2.821 9.00457 2.17459C10.5862 1.50555 12.2662 1.1667 13.9999 1.1667C15.321 1.1667 16.6121 1.36451 17.852 1.75459C17.8503 1.75629 17.8486 1.75842 17.8478 1.76017C17.3103 2.0148 16.7344 2.24339 16.1755 2.46471C14.4606 3.14409 12.6875 3.84694 11.4647 5.45847C10.9332 6.15912 10.8717 6.89101 11.3049 7.36783C11.5322 7.61775 11.8621 7.74468 12.2867 7.74468C12.5636 7.74468 12.8524 7.69256 13.1071 7.64684C13.2865 7.61436 13.4719 7.58105 13.5813 7.58105C13.589 7.58105 13.5967 7.58149 13.6035 7.58193C14.2299 7.62677 15.3979 7.84853 16.4439 8.12109C17.5932 8.42018 18.2024 8.67311 18.4622 8.82049C18.2878 9.02814 17.8196 9.34899 17.195 9.34899C16.8899 9.34899 16.5917 9.26997 16.3089 9.11444C15.8782 8.87644 14.7981 8.65047 13.3088 8.38469L13.1652 8.3586C13.1028 8.3475 13.0319 8.34192 12.9473 8.34192C12.3218 8.34192 10.847 8.64484 9.74296 9.79202C8.77652 10.7948 8.31939 12.1769 8.3843 13.8995C8.42363 14.9595 8.78336 15.8576 9.42337 16.4985C10.0737 17.1487 10.9786 17.4991 12.0407 17.511C12.168 17.5127 12.2945 17.5127 12.4209 17.5127H12.5046C13.9402 17.5127 14.7673 17.5708 15.0929 18.7458C15.2996 19.4952 15.3586 20.2634 15.421 21.076C15.48 21.8416 15.5407 22.632 15.7355 23.4181C16.1217 24.9758 16.9172 25.3638 17.5162 25.4151C17.6016 25.4228 17.6871 25.4271 17.7708 25.4271C17.7708 25.4271 17.7708 25.4271 17.7717 25.4271C19.1047 25.4271 19.9882 24.5281 20.7128 23.6873C20.8854 23.4865 21.0743 23.2926 21.2743 23.0875C21.7151 22.6354 22.1715 22.1681 22.497 21.5742C22.8713 20.8897 23.0063 20.1737 23.1362 19.4798C23.2601 18.8219 23.3772 18.1998 23.6908 17.6572C23.7335 17.5845 23.7822 17.4999 23.8369 17.4059C25.4262 14.6818 25.8082 13.6726 25.4724 13.0878C25.322 12.8254 25.0434 12.6849 24.7213 12.7088C24.5675 12.7208 24.4154 12.7267 24.2693 12.7267C22.9106 12.7267 22.2988 12.2217 22.0988 12.0047C21.9792 11.8748 21.922 11.7628 21.8963 11.6885C21.9109 11.6876 21.9271 11.6873 21.9459 11.6873C22.227 11.6873 22.6568 11.8022 23.0729 11.9137C23.5762 12.0487 24.0974 12.188 24.5546 12.188C25.2604 12.188 25.7321 11.842 25.8731 11.2314C25.9679 11.1482 26.1636 11.0063 26.4396 10.8324C26.7011 11.8604 26.8327 12.9199 26.8327 14C26.8327 15.7329 26.4935 17.4137 25.8245 18.9945Z" fill="white"/>
</svg>
