<svg width="28" height="28" viewBox="0 0 28 28" fill="none" xmlns="http://www.w3.org/2000/svg">
<g clip-path="url(#clip0_1614_2)">
<path d="M26.1333 5.6001C25.1039 5.6001 24.2667 6.43731 24.2667 7.46675C24.2667 8.49619 25.1039 9.3334 26.1333 9.3334C27.1628 9.3334 28 8.49624 28 7.46675C28 6.43731 27.1628 5.6001 26.1333 5.6001ZM26.1333 8.4001C25.6186 8.4001 25.2 7.98152 25.2 7.46675C25.2 6.95203 25.6186 6.5334 26.1333 6.5334C26.6481 6.5334 27.0667 6.95197 27.0667 7.46675C27.0666 7.98152 26.6481 8.4001 26.1333 8.4001Z" fill="white"/>
<path d="M1.86665 21C0.837211 21 0 21.8372 0 22.8666C0 23.8961 0.837211 24.7333 1.86665 24.7333C2.89614 24.7333 3.7333 23.8961 3.7333 22.8666C3.7333 21.8372 2.89614 21 1.86665 21ZM1.86665 23.8C1.35193 23.8 0.933297 23.3814 0.933297 22.8666C0.933297 22.3519 1.35187 21.9333 1.86665 21.9333C2.38137 21.9333 2.8 22.3519 2.8 22.8666C2.8 23.3814 2.38142 23.8 1.86665 23.8Z" fill="white"/>
<path d="M25.2285 6.18978L21.2026 4.24613C20.9701 4.13364 20.6916 4.23164 20.5796 4.46362C20.4676 4.69555 20.5651 4.97462 20.7971 5.08662L24.823 7.03027C24.8883 7.06199 24.9574 7.07692 25.0255 7.07692C25.1991 7.07692 25.3657 6.97985 25.4459 6.81278C25.5579 6.58085 25.4604 6.30178 25.2285 6.18978Z" fill="white"/>
<path d="M21 24.2666C19.9705 24.2666 19.1334 25.1038 19.1334 26.1333C19.1334 27.1627 19.9705 28 21 28C22.0295 28 22.8667 27.1627 22.8667 26.1333C22.8667 25.1039 22.0295 24.2666 21 24.2666ZM21 27.0666C20.4853 27.0666 20.0667 26.648 20.0667 26.1333C20.0667 25.6185 20.4853 25.2 21 25.2C21.5147 25.2 21.9334 25.6185 21.9334 26.1333C21.9334 26.6481 21.5147 27.0666 21 27.0666Z" fill="white"/>
<path d="M20.0951 24.8566L16.0692 22.913C15.8368 22.8005 15.5582 22.898 15.4462 23.1304C15.3342 23.3624 15.4317 23.6414 15.6637 23.7534L19.6896 25.6971C19.755 25.7288 19.8241 25.7437 19.8921 25.7437C20.0657 25.7437 20.2324 25.6467 20.3126 25.4796C20.4246 25.2476 20.3271 24.9686 20.0951 24.8566Z" fill="white"/>
<path d="M14 12.6001C12.9705 12.6001 12.1334 13.4373 12.1334 14.4667C12.1334 15.4962 12.9706 16.3334 14 16.3334C15.0295 16.3334 15.8666 15.4962 15.8666 14.4667C15.8666 13.4373 15.0295 12.6001 14 12.6001ZM14 15.4001C13.4853 15.4001 13.0667 14.9815 13.0667 14.4667C13.0667 13.952 13.4852 13.5334 14 13.5334C14.5147 13.5334 14.9334 13.952 14.9334 14.4667C14.9334 14.9815 14.5147 15.4001 14 15.4001Z" fill="white"/>
<path d="M13.1796 13.2422L10.087 10.8318C9.88353 10.6745 9.59052 10.7095 9.43181 10.913C9.2736 11.1165 9.30953 11.4095 9.51302 11.5682L12.6056 13.9786C12.691 14.0449 12.7918 14.0771 12.8922 14.0771C13.0312 14.0771 13.1684 14.0155 13.2608 13.8974C13.419 13.6939 13.3831 13.4008 13.1796 13.2422Z" fill="white"/>
<path d="M22.4 12.1333C19.5696 12.1333 17.2666 14.4363 17.2666 17.2667C17.2666 20.097 19.5696 22.4 22.4 22.4C25.2303 22.4 27.5333 20.097 27.5333 17.2667C27.5333 14.4363 25.2303 12.1333 22.4 12.1333ZM22.4 21.4666C20.0839 21.4666 18.2 19.5827 18.2 17.2666C18.2 14.9505 20.0839 13.0666 22.4 13.0666C24.716 13.0666 26.6 14.9505 26.6 17.2666C26.6 19.5827 24.716 21.4666 22.4 21.4666Z" fill="white"/>
<path d="M22.4 14C21.3705 14 20.5333 14.8372 20.5333 15.8666C20.5333 16.8961 21.3706 17.7333 22.4 17.7333C23.4295 17.7333 24.2666 16.8961 24.2666 15.8666C24.2666 14.8372 23.4295 14 22.4 14ZM22.4 16.8C21.8853 16.8 21.4666 16.3814 21.4666 15.8666C21.4666 15.3519 21.8852 14.9333 22.4 14.9333C22.9147 14.9333 23.3333 15.3519 23.3333 15.8666C23.3333 16.3814 22.9147 16.8 22.4 16.8Z" fill="white"/>
<path d="M23.7538 18.6667H21.0462C20.2487 18.6667 19.6 19.2982 19.6 20.0737V21.3039C19.6 21.4705 19.6886 21.6245 19.8328 21.708C20.615 22.1607 21.5026 22.4001 22.4 22.4001C23.2974 22.4001 24.185 22.1607 24.9671 21.708C25.1113 21.625 25.2 21.4705 25.2 21.3044V20.0742C25.2 19.2982 24.5513 18.6667 23.7538 18.6667ZM24.2666 21.0257C23.1051 21.6044 21.6948 21.6044 20.5333 21.0257V20.0742C20.5333 19.8129 20.7633 19.6001 21.0461 19.6001H23.7537C24.0365 19.6001 24.2666 19.8129 24.2666 20.0742V21.0257H24.2666Z" fill="white"/>
<path d="M11.2 17.7334C8.36965 17.7334 6.06665 20.0364 6.06665 22.8668C6.06665 25.6971 8.36965 28 11.2 28C14.0303 28 16.3333 25.697 16.3333 22.8667C16.3333 20.0363 14.0303 17.7334 11.2 17.7334ZM11.2 27.0667C8.88393 27.0667 7 25.1828 7 22.8667C7 20.5506 8.88393 18.6667 11.2 18.6667C13.5161 18.6667 15.4 20.5506 15.4 22.8667C15.4 25.1828 13.5161 27.0667 11.2 27.0667Z" fill="white"/>
<path d="M11.2 19.6001C10.1705 19.6001 9.33337 20.4373 9.33337 21.4667C9.33337 22.4962 10.1706 23.3334 11.2 23.3334C12.2295 23.3334 13.0667 22.4962 13.0667 21.4667C13.0667 20.4373 12.2295 19.6001 11.2 19.6001ZM11.2 22.4001C10.6853 22.4001 10.2667 21.9815 10.2667 21.4667C10.2667 20.952 10.6852 20.5334 11.2 20.5334C11.7147 20.5334 12.1334 20.952 12.1334 21.4667C12.1334 21.9815 11.7147 22.4001 11.2 22.4001Z" fill="white"/>
<path d="M12.5538 24.2666H9.84623C9.04872 24.2666 8.40002 24.898 8.40002 25.6736V26.9037C8.40002 27.0703 8.48867 27.2243 8.63288 27.3079C9.41502 27.7605 10.3026 28 11.2 28C12.0974 28 12.985 27.7605 13.7672 27.3079C13.9114 27.2248 14 27.0704 14 26.9042V25.6741C14 24.898 13.3514 24.2666 12.5538 24.2666ZM13.0667 26.6256C11.9051 27.2043 10.4949 27.2043 9.33332 26.6256V25.6741C9.33332 25.4127 9.56339 25.2 9.84618 25.2H12.5538C12.8365 25.2 13.0666 25.4127 13.0666 25.6741V26.6256H13.0667Z" fill="white"/>
<path d="M5.13335 6.06665C2.303 6.06665 0 8.36965 0 11.2C0 14.0303 2.303 16.3333 5.13335 16.3333C7.9637 16.3333 10.2667 14.0303 10.2667 11.2C10.2666 8.36965 7.96365 6.06665 5.13335 6.06665ZM5.13335 15.4C2.81728 15.4 0.933352 13.5161 0.933352 11.2C0.933352 8.88393 2.81728 7 5.13335 7C7.44942 7 9.33335 8.88393 9.33335 11.2C9.33335 13.5161 7.44942 15.4 5.13335 15.4Z" fill="white"/>
<path d="M5.13336 7.93335C4.10386 7.93335 3.2667 8.77056 3.2667 9.8C3.2667 10.8294 4.10392 11.6666 5.13336 11.6666C6.16285 11.6666 7.00001 10.8294 7.00001 9.8C7.00001 8.77056 6.16279 7.93335 5.13336 7.93335ZM5.13336 10.7333C4.61864 10.7333 4.2 10.3148 4.2 9.8C4.2 9.28522 4.61858 8.86665 5.13336 8.86665C5.64808 8.86665 6.06671 9.28522 6.06671 9.8C6.06671 10.3148 5.64808 10.7333 5.13336 10.7333Z" fill="white"/>
<path d="M6.48715 12.6001H3.77957C2.98206 12.6001 2.33336 13.2315 2.33336 14.0071V15.2372C2.33336 15.4038 2.42201 15.5578 2.56622 15.6414C3.34836 16.094 4.23594 16.3334 5.13336 16.3334C6.03078 16.3334 6.91836 16.094 7.70051 15.6414C7.84472 15.5583 7.93336 15.4038 7.93336 15.2377V14.0076C7.93336 13.2315 7.28466 12.6001 6.48715 12.6001ZM7.00001 14.9591C5.8385 15.5377 4.42822 15.5377 3.26666 14.9591V14.0076C3.26666 13.7462 3.49673 13.5334 3.77952 13.5334H6.4871C6.76989 13.5334 6.99996 13.7462 6.99996 14.0076V14.9591H7.00001Z" fill="white"/>
<path d="M16.3334 0C13.503 0 11.2 2.303 11.2 5.13335C11.2 7.9637 13.503 10.2667 16.3334 10.2667C19.1637 10.2667 21.4667 7.9637 21.4667 5.13335C21.4666 2.303 19.1637 0 16.3334 0ZM16.3334 9.33335C14.0173 9.33335 12.1334 7.44942 12.1334 5.13335C12.1334 2.81728 14.0173 0.933352 16.3334 0.933352C18.6494 0.933352 20.5334 2.81728 20.5334 5.13335C20.5334 7.44942 18.6494 9.33335 16.3334 9.33335Z" fill="white"/>
<path d="M16.3334 1.8667C15.3039 1.8667 14.4667 2.70391 14.4667 3.73335C14.4667 4.76279 15.3039 5.6 16.3334 5.6C17.3628 5.6 18.2 4.76284 18.2 3.7334C18.2 2.70396 17.3628 1.8667 16.3334 1.8667ZM16.3334 4.6667C15.8186 4.6667 15.4 4.24812 15.4 3.73335C15.4 3.21863 15.8186 2.8 16.3334 2.8C16.8481 2.8 17.2667 3.21857 17.2667 3.73335C17.2667 4.24812 16.8481 4.6667 16.3334 4.6667Z" fill="white"/>
<path d="M17.6871 6.53345H14.9796C14.1821 6.53345 13.5334 7.16487 13.5334 7.94045V9.17058C13.5334 9.33716 13.622 9.49116 13.7662 9.57472C14.5484 10.0274 15.4359 10.2668 16.3334 10.2668C17.2308 10.2668 18.1184 10.0274 18.9005 9.57472C19.0447 9.49165 19.1334 9.33716 19.1334 9.17108V7.94094C19.1334 7.16481 18.4847 6.53345 17.6871 6.53345ZM18.2 8.89244C17.0385 9.47109 15.6282 9.47109 14.4667 8.89244V7.94094C14.4667 7.67959 14.6967 7.4668 14.9795 7.4668H17.6871C17.9699 7.4668 18.2 7.67959 18.2 7.94094V8.89244H18.2Z" fill="white"/>
<path d="M12.0218 4.82959C11.8543 4.63452 11.5598 4.61116 11.3638 4.77873L8.12977 7.54608C7.93377 7.71359 7.91091 8.00808 8.07842 8.20409C8.17084 8.31187 8.30149 8.36744 8.43307 8.36744C8.54042 8.36744 8.64821 8.33058 8.73642 8.25494L11.9704 5.48759C12.1665 5.32008 12.1893 5.02559 12.0218 4.82959Z" fill="white"/>
<path d="M22.3067 12.3206L19.5067 8.58722C19.3522 8.3805 19.0596 8.33987 18.8533 8.49387C18.647 8.64836 18.6055 8.94094 18.76 9.14673L21.56 12.8801C21.6519 13.0024 21.7919 13.0667 21.9338 13.0667C22.0308 13.0667 22.1293 13.0364 22.2133 12.9734C22.4196 12.8189 22.4612 12.5264 22.3067 12.3206Z" fill="white"/>
<path d="M18.4767 18.8099C18.3223 18.6037 18.0297 18.5621 17.8234 18.7166L15.2166 20.6714C15.0103 20.8259 14.9688 21.1185 15.1233 21.3243C15.2152 21.4466 15.3552 21.511 15.497 21.511C15.5946 21.511 15.6926 21.4802 15.7766 21.4176L18.3834 19.4627C18.5897 19.3084 18.6312 19.0157 18.4767 18.8099Z" fill="white"/>
<path d="M6.53334 22.3999H3.26664C3.00906 22.3999 2.79999 22.6085 2.79999 22.8666C2.79999 23.1246 3.00906 23.3332 3.26664 23.3332H6.53329C6.79087 23.3332 6.99994 23.1246 6.99994 22.8666C6.99994 22.6085 6.79092 22.3999 6.53334 22.3999Z" fill="white"/>
<path d="M5.13333 0C4.10384 0 3.26662 0.837211 3.26662 1.86665C3.26662 2.89614 4.10384 3.7333 5.13327 3.7333C6.16277 3.7333 6.99992 2.89609 6.99992 1.86665C6.99998 0.837211 6.16277 0 5.13333 0ZM5.13333 2.8C4.61861 2.8 4.19998 2.38142 4.19998 1.86665C4.19998 1.35193 4.61855 0.933297 5.13333 0.933297C5.64805 0.933297 6.06668 1.35187 6.06668 1.86665C6.06662 2.38142 5.64805 2.8 5.13333 2.8Z" fill="white"/>
<path d="M5.13337 2.80005C4.87579 2.80005 4.66672 3.00863 4.66672 3.2667V6.53335C4.66672 6.79142 4.87579 6.99999 5.13337 6.99999C5.39094 6.99999 5.60001 6.79142 5.60001 6.53335V3.2667C5.60001 3.00863 5.39094 2.80005 5.13337 2.80005Z" fill="white"/>
</g>
<defs>
<clipPath id="clip0_1614_2">
<rect width="28" height="28" fill="white"/>
</clipPath>
</defs>
</svg>
