<svg width="50" height="57" viewBox="0 0 50 57" fill="none" xmlns="http://www.w3.org/2000/svg">
<path fill-rule="evenodd" clip-rule="evenodd" d="M27.3831 4.79203C27.3831 6.30435 26.1571 7.53033 24.6448 7.53033C23.1324 7.53033 21.9065 6.30435 21.9065 4.79203C21.9065 3.27971 23.1324 2.05373 24.6448 2.05373C26.1571 2.05373 27.3831 3.27971 27.3831 4.79203ZM23.4185 9.42572C23.4845 9.44315 23.5511 9.4592 23.6182 9.47385V15.2209L20.0777 15.1833L23.4185 9.42572ZM25.6719 9.47371V15.2428L29.3808 15.2822L25.9937 9.39158C25.8879 9.42255 25.7806 9.44997 25.6719 9.47371ZM27.7946 8.40352L31.7644 15.3076L39.8176 15.3933C39.8597 15.2022 39.9133 15.0153 39.9775 14.8336L28.1846 8.02214C28.0619 8.1565 27.9317 8.28385 27.7946 8.40352ZM29.2128 6.24433C29.3583 5.78624 29.4368 5.2983 29.4368 4.79203C29.4368 2.14546 27.2913 0 24.6448 0C21.9982 0 19.8527 2.14546 19.8527 4.79203C19.8527 5.2984 19.9313 5.78643 20.0768 6.2446L8.22728 13.0887C7.35666 12.1937 6.13927 11.6378 4.79203 11.6378C2.14546 11.6378 0 13.7832 0 16.4298C0 18.724 1.61221 20.6416 3.76548 21.1116V35.0234C1.61221 35.4934 0 37.411 0 39.7052C0 42.3518 2.14546 44.4973 4.79203 44.4973C6.35621 44.4973 7.74535 43.7478 8.61997 42.5885L20.2942 49.3313C20.0108 49.943 19.8527 50.6245 19.8527 51.343C19.8527 53.9896 21.9982 56.135 24.6448 56.135C27.2913 56.135 29.4368 53.9896 29.4368 51.343C29.4368 50.6246 29.2787 49.9432 28.9955 49.3316L40.6695 42.5888C41.5442 43.748 42.9332 44.4973 44.4972 44.4973C47.1438 44.4973 49.2892 42.3518 49.2892 39.7052C49.2892 37.4113 47.6774 35.4939 45.5246 35.0236V21.1114C47.6774 20.6412 49.2892 18.7237 49.2892 16.4298C49.2892 13.7832 47.1438 11.6378 44.4972 11.6378C43.1501 11.6378 41.9329 12.1936 41.0623 13.0884L29.2128 6.24433ZM21.5902 8.48453C21.418 8.34188 21.2559 8.1874 21.1051 8.02235L9.31191 14.834C9.33932 14.9116 9.36479 14.9901 9.38825 15.0695L17.7179 15.1582L21.5902 8.48453ZM39.8113 40.7128L27.7403 47.6849L27.7064 47.6564L32.0123 40.3901H39.7537C39.7693 40.4989 39.7885 40.6065 39.8113 40.7128ZM29.6251 40.3901L25.8791 46.7114C25.8106 46.6932 25.7416 46.6765 25.6719 46.6613V40.3901H29.6251ZM23.6182 40.3901V46.6612C23.5513 46.6758 23.485 46.6918 23.4192 46.7091L19.7647 40.3901H23.6182ZM17.3923 40.3901L21.5908 47.65C21.577 47.6615 21.5632 47.673 21.5494 47.6847L9.47804 40.7124C9.50075 40.6062 9.51994 40.4987 9.53549 40.3901H17.3923ZM43.4406 21.1049L43.4709 21.1116V35.0234C43.3619 35.0471 43.2543 35.0746 43.1483 35.1057L39.2064 28.2501L43.4406 21.1049ZM41.5736 20.2269C41.2921 20.0099 41.0354 19.7622 40.8084 19.4888L35.8455 22.4052L38.0307 26.2055L41.5736 20.2269ZM39.8134 17.4471C39.8289 17.5191 39.8461 17.5905 39.8649 17.6612L34.8218 20.6247L32.9526 17.3741L39.8134 17.4471ZM41.2224 36.2068C41.2634 36.1684 41.3051 36.1307 41.3474 36.0937L38.004 30.2791L36.2204 33.289L41.2224 36.2068ZM39.9036 38.3363C39.9474 38.189 39.9981 38.0447 40.0554 37.9037L35.1734 35.0558L33.2294 38.3363H39.9036ZM5.81921 35.0236C5.92859 35.0474 6.03658 35.0751 6.14303 35.1063L10.2467 28.034L6.1877 21.0154C6.06682 21.0521 5.94392 21.0842 5.81921 21.1115V35.0236ZM7.94359 36.0953C8.01678 36.1592 8.08801 36.2254 8.15718 36.2936L13.2818 33.2822L11.4319 30.0835L7.94359 36.0953ZM9.38568 38.3363C9.35351 38.2282 9.31763 38.1217 9.27818 38.0169L14.3099 35.0601L16.2046 38.3363H9.38568ZM11.4349 25.9863L7.97822 20.0092C8.15927 19.8479 8.32801 19.6731 8.48284 19.4864L13.5062 22.4166L11.4349 25.9863ZM9.534 17.1249C9.50765 17.3063 9.47115 17.4843 9.4251 17.6584L14.5369 20.6403L16.5334 17.1994L9.534 17.1249ZM18.8933 17.2245L16.3108 21.6751L23.6182 25.9377V17.2748L18.8933 17.2245ZM25.6719 17.2966V26.0014L33.051 21.6652L30.569 17.3487L25.6719 17.2966ZM34.0748 23.4457L26.7375 27.7573L34.4464 32.2542L36.8284 28.2345L34.0748 23.4457ZM23.6182 29.5903L16.0806 34.0196L18.5771 38.3363H23.6182V29.5903ZM25.6719 38.3363V29.5133L33.3994 34.021L30.8421 38.3363H25.6719ZM15.2801 23.4515L12.6201 28.0358L15.0525 32.2417L22.6728 27.7638L15.2801 23.4515ZM4.79203 19.1681C6.30435 19.1681 7.53033 17.9421 7.53033 16.4298C7.53033 14.9175 6.30435 13.6915 4.79203 13.6915C3.27971 13.6915 2.05373 14.9175 2.05373 16.4298C2.05373 17.9421 3.27971 19.1681 4.79203 19.1681ZM7.53033 39.7052C7.53033 41.2176 6.30435 42.4435 4.79203 42.4435C3.27971 42.4435 2.05373 41.2176 2.05373 39.7052C2.05373 38.1929 3.27971 36.9669 4.79203 36.9669C6.30435 36.9669 7.53033 38.1929 7.53033 39.7052ZM44.4972 42.4435C46.0095 42.4435 47.2355 41.2176 47.2355 39.7052C47.2355 38.1929 46.0095 36.9669 44.4972 36.9669C42.9849 36.9669 41.7589 38.1929 41.7589 39.7052C41.7589 41.2176 42.9849 42.4435 44.4972 42.4435ZM47.2355 16.4298C47.2355 17.9421 46.0095 19.1681 44.4972 19.1681C42.9849 19.1681 41.7589 17.9421 41.7589 16.4298C41.7589 14.9175 42.9849 13.6915 44.4972 13.6915C46.0095 13.6915 47.2355 14.9175 47.2355 16.4298ZM24.6448 54.0813C26.1571 54.0813 27.3831 52.8553 27.3831 51.343C27.3831 49.8307 26.1571 48.6047 24.6448 48.6047C23.1324 48.6047 21.9065 49.8307 21.9065 51.343C21.9065 52.8553 23.1324 54.0813 24.6448 54.0813Z" fill="#2A4059"/>
</svg>
