<svg width="28" height="28" viewBox="0 0 28 28" fill="none" xmlns="http://www.w3.org/2000/svg">
<path fill-rule="evenodd" clip-rule="evenodd" d="M15.6586 2.39025C15.6586 3.14459 15.0471 3.75611 14.2927 3.75611C13.5384 3.75611 12.9269 3.14459 12.9269 2.39025C12.9269 1.63591 13.5384 1.02439 14.2927 1.02439C15.0471 1.02439 15.6586 1.63591 15.6586 2.39025ZM13.6811 4.70152C13.714 4.71022 13.7472 4.71822 13.7807 4.72553V7.59214L12.0147 7.57336L13.6811 4.70152ZM14.8051 4.72546V7.60304L16.6551 7.62272L14.9656 4.68449C14.9128 4.69994 14.8593 4.71362 14.8051 4.72546ZM15.8639 4.19163L17.844 7.63537L21.8609 7.6781C21.8819 7.58278 21.9086 7.48959 21.9406 7.39892L16.0584 4.00141C15.9972 4.06842 15.9323 4.13194 15.8639 4.19163ZM16.5713 3.11464C16.6438 2.88615 16.683 2.64277 16.683 2.39025C16.683 1.07015 15.6128 0 14.2927 0C12.9726 0 11.9025 1.07015 11.9025 2.39025C11.9025 2.64282 11.9417 2.88625 12.0143 3.11477L6.10375 6.5286C5.66949 6.08217 5.06226 5.80485 4.39025 5.80485C3.07015 5.80485 2 6.875 2 8.1951C2 9.33944 2.80416 10.296 3.87821 10.5304V17.4696C2.80416 17.7041 2 18.6606 2 19.8049C2 21.125 3.07015 22.1952 4.39025 22.1952C5.17048 22.1952 5.8634 21.8213 6.29966 21.243L12.1227 24.6063C11.9814 24.9114 11.9025 25.2514 11.9025 25.6098C11.9025 26.9299 12.9726 28 14.2927 28C15.6128 28 16.683 26.9299 16.683 25.6098C16.683 25.2514 16.6041 24.9115 16.4628 24.6064L22.2858 21.2432C22.7221 21.8214 23.4149 22.1952 24.1951 22.1952C25.5152 22.1952 26.5853 21.125 26.5853 19.8049C26.5853 18.6607 25.7814 17.7043 24.7075 17.4697V10.5303C25.7814 10.2957 26.5853 9.3393 26.5853 8.1951C26.5853 6.875 25.5152 5.80485 24.1951 5.80485C23.5232 5.80485 22.916 6.08211 22.4817 6.52845L16.5713 3.11464ZM12.5272 4.00151L6.64476 7.39912C6.65843 7.43784 6.67114 7.47702 6.68284 7.51663L10.8376 7.56083L12.7691 4.23205C12.6832 4.1609 12.6024 4.08384 12.5272 4.00151ZM21.8577 20.3074L15.8368 23.7851L15.8198 23.7709L17.9677 20.1464H21.8291C21.8368 20.2007 21.8464 20.2544 21.8577 20.3074ZM16.7769 20.1464L14.9084 23.2996C14.8743 23.2905 14.8398 23.2821 14.8051 23.2746V20.1464H16.7769ZM13.7807 20.1464V23.2745C13.7473 23.2818 13.7143 23.2898 13.6814 23.2984L11.8586 20.1464H13.7807ZM10.6752 20.1464L12.7695 23.7677L12.7488 23.785L6.72763 20.3072C6.73896 20.2543 6.74853 20.2006 6.75629 20.1464H10.6752ZM23.668 10.5271L23.6831 10.5304V17.4696C23.6288 17.4815 23.5752 17.4952 23.5223 17.5107L21.556 14.0911L23.668 10.5271ZM22.7368 10.0891C22.5964 9.98083 22.4683 9.85729 22.3552 9.72095L19.8797 11.1756L20.9696 13.0712L22.7368 10.0891ZM21.8588 8.70253C21.8666 8.73845 21.8751 8.77406 21.8845 8.80935L19.369 10.2875L18.4367 8.66613L21.8588 8.70253ZM22.5616 18.0599C22.5821 18.0407 22.6029 18.0219 22.624 18.0035L20.9563 15.1031L20.0666 16.6044L22.5616 18.0599ZM21.9038 19.122C21.9257 19.0486 21.951 18.9766 21.9795 18.9062L19.5444 17.4857L18.5747 19.122H21.9038ZM4.9026 17.4697C4.95715 17.4816 5.011 17.4954 5.06409 17.511L7.11101 13.9833L5.0864 10.4824C5.02611 10.5007 4.96481 10.5167 4.9026 10.5303V17.4697ZM5.96221 18.0043C5.99871 18.0362 6.03424 18.0691 6.06873 18.1032L8.62491 16.6011L7.7022 15.0056L5.96221 18.0043ZM6.68153 19.122C6.66548 19.0681 6.64758 19.015 6.62791 18.9627L9.13776 17.4879L10.0828 19.122H6.68153ZM7.70368 12.9619L5.97951 9.9805C6.06982 9.90006 6.15398 9.81287 6.23121 9.71973L8.73684 11.1813L7.70368 12.9619ZM6.75553 8.54186C6.74239 8.63229 6.72418 8.72109 6.70121 8.80795L9.25096 10.2953L10.2468 8.579L6.75553 8.54186ZM11.4239 8.59152L10.1358 10.8115L13.7807 12.9377V8.61659L11.4239 8.59152ZM14.8051 8.62749V12.9694L18.4858 10.8065L17.2478 8.65348L14.8051 8.62749ZM18.9964 11.6946L15.3366 13.8453L19.1818 16.0883L20.3699 14.0833L18.9964 11.6946ZM13.7807 14.7596L10.021 16.9689L11.2662 19.122H13.7807V14.7596ZM14.8051 19.122V14.7212L18.6595 16.9696L17.384 19.122H14.8051ZM9.62169 11.6975L8.29487 13.9841L9.50813 16.0821L13.3091 13.8485L9.62169 11.6975ZM4.39025 9.56096C5.14459 9.56096 5.75611 8.94944 5.75611 8.1951C5.75611 7.44076 5.14459 6.82924 4.39025 6.82924C3.63591 6.82924 3.02439 7.44076 3.02439 8.1951C3.02439 8.94944 3.63591 9.56096 4.39025 9.56096ZM5.75611 19.8049C5.75611 20.5593 5.14459 21.1708 4.39025 21.1708C3.63591 21.1708 3.02439 20.5593 3.02439 19.8049C3.02439 19.0506 3.63591 18.4391 4.39025 18.4391C5.14459 18.4391 5.75611 19.0506 5.75611 19.8049ZM24.1951 21.1708C24.9494 21.1708 25.5609 20.5593 25.5609 19.8049C25.5609 19.0506 24.9494 18.4391 24.1951 18.4391C23.4407 18.4391 22.8292 19.0506 22.8292 19.8049C22.8292 20.5593 23.4407 21.1708 24.1951 21.1708ZM25.5609 8.1951C25.5609 8.94944 24.9494 9.56096 24.1951 9.56096C23.4407 9.56096 22.8292 8.94944 22.8292 8.1951C22.8292 7.44076 23.4407 6.82924 24.1951 6.82924C24.9494 6.82924 25.5609 7.44076 25.5609 8.1951ZM14.2927 26.9756C15.0471 26.9756 15.6586 26.3641 15.6586 25.6098C15.6586 24.8554 15.0471 24.2439 14.2927 24.2439C13.5384 24.2439 12.9269 24.8554 12.9269 25.6098C12.9269 26.3641 13.5384 26.9756 14.2927 26.9756Z" fill="white"/>
</svg>
