<svg width="414" height="151" viewBox="0 0 414 151" fill="none" xmlns="http://www.w3.org/2000/svg">
<path d="M188.1 102.653V62.9532H188.8L217.4 102.653H226.4V44.3532H216.4V83.9532H215.7L187.1 44.3532H178.1V102.653H188.1ZM254.7 103.553C267.9 103.553 276 94.9532 276 80.5532C276 66.2532 267.9 57.5532 254.7 57.5532C241.6 57.5532 233.4 66.2532 233.4 80.5532C233.5 94.9532 241.5 103.553 254.7 103.553ZM254.7 95.1532C247.7 95.1532 243.7 89.8532 243.7 80.5532C243.7 71.3532 247.7 65.9532 254.7 65.9532C261.7 65.9532 265.7 71.3532 265.7 80.5532C265.7 89.8532 261.7 95.1532 254.7 95.1532ZM285.1 47.6532V58.7532H278.1V66.7532H285.1V90.8532C285.1 99.4532 289.1 102.853 299.3 102.853C301.2 102.853 303.1 102.653 304.6 102.353V94.5532C303.4 94.6532 302.6 94.7532 301.2 94.7532C297 94.7532 295.1 92.8532 295.1 88.4532V66.7532H304.6V58.7532H295.1V47.6532H285.1ZM310.6 102.653H320.6V58.4532H310.6V102.653ZM315.6 51.1532C318.9 51.1532 321.6 48.4532 321.6 45.1532C321.6 41.7532 318.9 39.0532 315.6 39.0532C312.3 39.0532 309.6 41.7532 309.6 45.1532C309.6 48.4532 312.3 51.1532 315.6 51.1532ZM348 103.553C361.2 103.553 369.3 94.9532 369.3 80.5532C369.3 66.2532 361.2 57.5532 348 57.5532C334.9 57.5532 326.7 66.2532 326.7 80.5532C326.7 94.9532 334.7 103.553 348 103.553ZM348 95.1532C341 95.1532 337 89.8532 337 80.5532C337 71.3532 341 65.9532 348 65.9532C354.9 65.9532 359 71.3532 359 80.5532C358.9 89.8532 354.9 95.1532 348 95.1532ZM375.2 102.653H385.2V76.9532C385.2 70.4532 389 66.3532 394.9 66.3532C401 66.3532 403.8 69.7532 403.8 76.4532V102.653H413.8V74.0532C413.8 63.4532 408.4 57.5532 398.6 57.5532C392 57.5532 387.6 60.5532 385.5 65.5532H384.8V58.4532H375.1C375.2 58.4532 375.2 102.653 375.2 102.653Z" fill="black"/>
<path fill-rule="evenodd" clip-rule="evenodd" d="M24.9 26.3532C29.6 30.1532 31.3 29.8532 40.1 29.2532L123 24.2532C124.8 24.2532 123.3 22.4532 122.7 22.2532L108.9 12.3532C106.3 10.3532 102.7 7.95318 96 8.55318L15.8 14.4532C12.9 14.7532 12.3 16.2532 13.5 17.3532L24.9 26.3532ZM29.9 45.6532V132.853C29.9 137.553 32.2 139.253 37.5 138.953L128.6 133.653C133.9 133.353 134.5 130.153 134.5 126.353V39.7532C134.5 35.9532 133 33.8532 129.8 34.1532L34.6 39.7532C31.1 40.0532 29.9 41.8532 29.9 45.6532ZM119.8 50.3532C120.4 52.9532 119.8 55.6532 117.2 55.9532L112.8 56.8532V121.253C109 123.253 105.5 124.453 102.5 124.453C97.8 124.453 96.6 122.953 93.1 118.553L64.4 73.4532V117.053L73.5 119.053C73.5 119.053 73.5 124.353 66.2 124.353L46 125.553C45.4 124.353 46 121.453 48 120.853L53.3 119.353V61.7532L46 61.1532C45.4 58.5532 46.9 54.7532 51 54.4532L72.7 52.9532L102.6 98.5532V58.2532L95 57.3532C94.4 54.1532 96.8 51.7532 99.7 51.4532L119.8 50.3532ZM9.1 6.45318L92.6 0.353179C102.8 -0.546821 105.5 0.0531812 111.9 4.75318L138.5 23.4532C142.9 26.6532 144.4 27.5532 144.4 31.0532V133.753C144.4 140.153 142.1 143.953 133.9 144.553L37 150.453C30.8 150.753 27.9 149.853 24.7 145.753L5 120.253C1.5 115.553 0 112.053 0 107.953V16.6532C0 11.3532 2.4 7.05318 9.1 6.45318Z" fill="black"/>
</svg>
