<svg width="601" height="147" viewBox="0 0 601 147" fill="none" xmlns="http://www.w3.org/2000/svg">
<path d="M247.386 99.3C238.186 111.2 223.986 118.2 208.986 118.3C183.386 118.3 162.986 100 162.986 75.8C163.086 64.1 167.986 53 176.486 45C184.986 37 196.386 32.8 208.086 33.3C223.086 33.4 237.286 40.4 246.486 52.3L229.486 64.4C224.986 56.9 216.886 52.2 208.186 52.1C195.086 52.1 184.386 62.7 184.286 75.8C184.686 89.2 195.786 99.7 209.186 99.5C217.886 99.4 225.886 95.1 230.886 88L247.386 99.3Z" fill="#63666A"/>
<path d="M278.186 0H256.886V116.5H278.186V0Z" fill="#63666A"/>
<path d="M334.586 100.2C348.386 100.3 359.686 89.5 360.186 75.7C359.486 62.1 348.186 51.4 334.586 51.4C320.986 51.4 309.686 62.1 308.986 75.7C309.486 89.5 320.886 100.4 334.586 100.2ZM334.686 33.2C346.486 32.6 357.986 36.8 366.586 44.8C375.286 52.8 380.286 63.9 380.686 75.7C380.286 87.5 375.186 98.6 366.586 106.6C357.886 114.6 346.386 118.8 334.686 118.2C309.086 118.2 288.486 99.7 288.486 75.7C288.386 51.8 308.886 33.2 334.686 33.2Z" fill="#63666A"/>
<path d="M377.186 34.9H402.186L422.486 78.5L444.386 34.9H467.586L422.486 121.5L377.186 34.9Z" fill="#63666A"/>
<path d="M528.186 64.4C524.886 56.4 516.986 51.1 508.386 51.2C499.386 51.1 491.086 56.2 487.286 64.4H528.186ZM541.886 107.3C532.986 114.5 521.886 118.4 510.486 118.3C484.886 118.3 464.286 99.8 464.286 75.8C464.286 64.2 468.986 53.1 477.386 45.1C485.786 37.1 497.086 32.8 508.586 33.3C519.986 32.9 530.986 37.3 538.986 45.3C546.986 53.3 551.286 64.4 550.886 75.7V81.8H485.386C488.686 92.8 498.786 100.2 510.286 100.1C517.386 100.3 524.186 97.4 528.986 92.1L541.886 107.3ZM561.186 70.7C561.186 51.2 576.086 34.9 600.086 34.9V54C594.986 53.7 590.086 55.7 586.686 59.5C583.286 63.2 581.686 68.3 582.286 73.3V116.5H561.186V70.7Z" fill="#63666A"/>
<path d="M66.1858 38.1C66.2858 24.7 58.2858 12.6 45.8858 7.40001C33.5858 2.20001 19.2858 5 9.78579 14.4C0.285789 23.8 -2.61421 38.1 2.48579 50.5C7.58579 62.9 19.6858 71 33.0858 71H66.1858V38.1ZM75.7858 38.1C75.6858 24.7 83.6858 12.6 96.0858 7.40001C108.386 2.20001 122.686 5 132.186 14.4C141.686 23.8 144.586 38.1 139.486 50.5C134.386 62.9 122.286 71 108.886 71H75.7858V38.1ZM75.7858 113.4C75.6858 126.8 83.6858 138.9 96.0858 144.1C108.486 149.3 122.686 146.5 132.186 137.1C141.686 127.7 144.586 113.4 139.486 101C134.386 88.6 122.286 80.5 108.886 80.5H75.7858V113.4ZM33.1858 137C46.2858 137 56.8858 126.5 56.9858 113.4V89.8H33.1858C20.1858 89.8 9.58579 100.4 9.58579 113.4C9.58579 126.4 20.0858 137 33.1858 137ZM66.1858 113.4C66.2858 126.8 58.2858 138.9 45.8858 144.1C33.4858 149.3 19.2858 146.5 9.78579 137.1C0.285789 127.7 -2.61421 113.4 2.48579 101C7.58579 88.6 19.6858 80.5 33.0858 80.5H66.1858V113.4Z" fill="#43B02A"/>
</svg>
