<?xml version="1.0" encoding="UTF-8" standalone="no"?>
<!-- Created with Inkscape (http://www.inkscape.org/) -->

<svg
   xmlns:dc="http://purl.org/dc/elements/1.1/"
   xmlns:cc="http://creativecommons.org/ns#"
   xmlns:rdf="http://www.w3.org/1999/02/22-rdf-syntax-ns#"
   xmlns:svg="http://www.w3.org/2000/svg"
   xmlns="http://www.w3.org/2000/svg"
   xmlns:sodipodi="http://sodipodi.sourceforge.net/DTD/sodipodi-0.dtd"
   xmlns:inkscape="http://www.inkscape.org/namespaces/inkscape"
   width="101.2568"
   height="30.293539"
   viewBox="0 0 26.790861 8.0151655"
   version="1.1"
   id="svg4246"
   inkscape:version="0.92.0 r15299"
   sodipodi:docname="gofundme.svg">
  <defs
     id="defs4240">
    <clipPath
       id="clipPath3839"
       clipPathUnits="userSpaceOnUse">
      <path
         style="clip-rule:evenodd"
         inkscape:connector-curvature="0"
         id="path3837"
         d="m 1106.3973,142.4111 h 314.6542 v 91.53578 h -314.6542 z" />
    </clipPath>
  </defs>
  <sodipodi:namedview
     id="base"
     pagecolor="#ffffff"
     bordercolor="#666666"
     borderopacity="1.0"
     inkscape:pageopacity="0.0"
     inkscape:pageshadow="2"
     inkscape:zoom="8.947022"
     inkscape:cx="50.128415"
     inkscape:cy="14.646406"
     inkscape:document-units="mm"
     inkscape:current-layer="layer1"
     showgrid="false"
     fit-margin-top="0"
     fit-margin-left="0"
     fit-margin-right="0"
     fit-margin-bottom="0"
     units="px"
     inkscape:window-width="1280"
     inkscape:window-height="744"
     inkscape:window-x="-4"
     inkscape:window-y="-4"
     inkscape:window-maximized="1" />
  <metadata
     id="metadata4243">
    <rdf:RDF>
      <cc:Work
         rdf:about="">
        <dc:format>image/svg+xml</dc:format>
        <dc:type
           rdf:resource="http://purl.org/dc/dcmitype/StillImage" />
        <dc:title></dc:title>
      </cc:Work>
    </rdf:RDF>
  </metadata>
  <g
     inkscape:label="Layer 1"
     inkscape:groupmode="layer"
     id="layer1"
     transform="translate(13.263143,-150.74099)">
    <g
       id="g4349"
       transform="translate(0.13229235,-0.13228852)">
      <path
         d="m 12.764527,154.5103 c 0.0337,-0.0767 0.0631,-0.14717 0.09502,-0.2165 0.01373,-0.0299 0.06242,-0.0446 0.09174,-0.0323 0.01685,0.007 0.01171,0.0207 0.01171,0.0323 0,0.13479 0,0.26957 7.58e-4,0.40393 0,0.0253 -0.0079,0.0337 -0.0337,0.0337 -0.02578,0 -0.03369,-0.009 -0.03369,-0.0341 0.001,-0.0954 5.89e-4,-0.1908 0,-0.28641 0,-0.0147 0.0033,-0.0302 -0.0062,-0.0493 -0.02991,0.0724 -0.06832,0.1368 -0.09123,0.20815 -0.0055,0.0169 -0.01045,0.0307 -0.03193,0.0325 -0.02148,0.002 -0.03201,-0.008 -0.04018,-0.0274 -0.0235,-0.0565 -0.04903,-0.11229 -0.07447,-0.16806 -0.0049,-0.0108 -0.0071,-0.0243 -0.02334,-0.0306 -0.0089,0.0169 -0.0047,0.0352 -0.0048,0.0524 -5.06e-4,0.0883 -9.28e-4,0.1769 0,0.26502 0,0.0259 -0.0056,0.0377 -0.03471,0.0376 -0.02915,-8e-5 -0.03024,-0.016 -0.03024,-0.0376 4.22e-4,-0.12905 0,-0.25811 6.74e-4,-0.38708 0,-0.0169 -0.01112,-0.0456 0.02022,-0.0456 0.02763,0 0.06234,-0.0176 0.08028,0.0238 0.02923,0.0674 0.06074,0.13419 0.0914,0.20108 0.0033,0.007 0.0067,0.0126 0.01272,0.0243 z"
         style="fill:#00b964;fill-opacity:1;fill-rule:nonzero;stroke:none;stroke-width:0.00842394"
         id="path3843"
         inkscape:connector-curvature="0" />
      <path
         d="m 12.280319,154.52715 c 0,-0.0518 -0.0027,-0.10379 9.27e-4,-0.15534 0.0029,-0.0421 -0.01314,-0.0548 -0.05248,-0.0501 -0.02207,0.003 -0.04482,-5.9e-4 -0.06739,7.6e-4 -0.02367,10e-4 -0.03546,-0.004 -0.03563,-0.0318 0,-0.0294 0.01483,-0.0307 0.03681,-0.0306 0.102265,5.9e-4 0.204534,7.6e-4 0.306799,0 0.02451,0 0.03555,0.007 0.03521,0.0337 -3.37e-4,0.027 -0.01381,0.0298 -0.03487,0.0292 -0.02662,-8.4e-4 -0.05341,0.002 -0.07977,-6.7e-4 -0.0326,-0.003 -0.04364,0.008 -0.04296,0.0417 0.002,0.10782 0,0.21573 10e-4,0.32356 0,0.0261 5.06e-4,0.0451 -0.03614,0.0444 -0.03665,-6.7e-4 -0.03176,-0.0222 -0.03176,-0.0445 2.78e-4,-0.0536 3.62e-4,-0.10701 2.52e-4,-0.1603 z"
         style="fill:#00b964;fill-opacity:1;fill-rule:nonzero;stroke:none;stroke-width:0.00842394"
         id="path3845"
         inkscape:connector-curvature="0" />
      <path
         d="m 6.2889597,155.54745 c 0.07194,-0.0627 0.137226,-0.11962 0.2111048,-0.16527 0.212114,-0.13116 0.4436881,-0.1716 0.6894153,-0.15029 0.1154863,0.009 0.2263175,0.0367 0.3324954,0.083 0.1516284,0.0674 0.2643399,0.1769 0.3564152,0.31169 0.015332,0.0223 0.023166,0.0267 0.040351,0.001 0.1572741,-0.23512 0.3822776,-0.36392 0.6586679,-0.39778 0.273778,-0.0337 0.5285171,0.02 0.7397061,0.2106 0.1064778,0.0963 0.1660359,0.22028 0.1912235,0.3613 0.01608,0.0941 0.023858,0.18886 0.023334,0.28431 0.00109,0.48286 0,0.9658 0.00152,1.44892 0,0.0412 -0.011457,0.0505 -0.051471,0.0505 -0.2540651,-0.002 -0.508159,-0.002 -0.7622823,0 -0.036896,0 -0.047006,-0.009 -0.046837,-0.0464 0.00146,-0.38042 0.00163,-0.76085 5.054e-4,-1.14127 9.199e-4,-0.0914 -0.00863,-0.18177 -0.02864,-0.271 -0.073457,-0.31169 -0.4271772,-0.31362 -0.5848733,-0.16612 -0.09696,0.0907 -0.1291399,0.20647 -0.143207,0.33148 -0.01213,0.10631 -0.00741,0.21296 -0.00758,0.31952 -5.054e-4,0.31028 -3.707e-4,0.62051 4.212e-4,0.93068 0,0.0321 -0.00708,0.0433 -0.041529,0.043 -0.2583344,-0.001 -0.516668,-0.001 -0.7750025,0 -0.036139,0 -0.043719,-0.0112 -0.043635,-0.0452 0.00118,-0.38464 6.739e-4,-0.76928 7.581e-4,-1.15408 0,-0.0786 -0.0027,-0.15694 -0.01786,-0.23436 -0.028136,-0.14413 -0.1143129,-0.2341 -0.2558359,-0.26956 -0.1668783,-0.0415 -0.3317339,0.0213 -0.4193438,0.15845 -0.05265,0.0823 -0.064023,0.1769 -0.064695,0.27058 -0.00298,0.40716 -0.00357,0.81431 -0.00177,1.22147 0,0.0436 -0.011793,0.053 -0.053577,0.0526 -0.2540652,-0.002 -0.508159,-0.002 -0.7622823,0 -0.035549,0 -0.044057,-0.01 -0.043973,-0.0446 8.988e-4,-0.74546 8.988e-4,-1.49089 0,-2.2363 0,-0.0366 0.011708,-0.0435 0.04532,-0.0433 0.2569301,0.001 0.5138317,0.001 0.7707062,0 0.036308,0 0.044563,0.0114 0.043551,0.0453 -0.00253,0.0768 -0.0011,0.15408 -0.0011,0.24109 z"
         style="fill:#00b964;fill-opacity:1;fill-rule:nonzero;stroke:none;stroke-width:0.00842394"
         id="path3847"
         inkscape:connector-curvature="0" />
      <path
         d="m 3.7060955,157.34917 c -0.052818,0.0513 -0.1037821,0.10108 -0.1613185,0.14261 -0.1309931,0.0951 -0.2792536,0.14321 -0.4392242,0.16141 -0.2476638,0.0281 -0.4837035,-0.0115 -0.7019669,-0.13057 -0.3468979,-0.18912 -0.572154,-0.47343 -0.6341542,-0.86927 -0.050544,-0.32441 -0.01331,-0.63837 0.1738701,-0.91745 0.2010795,-0.29897 0.4808385,-0.48194 0.8412989,-0.53484 0.2651856,-0.0391 0.5148712,0.003 0.7458556,0.14228 0.061411,0.0369 0.1133863,0.0864 0.1697433,0.13479 0.010446,-0.0169 0.00598,-0.0337 0.00598,-0.0491 0,-0.5179 -2.527e-4,-1.03583 -7.581e-4,-1.55379 0,-0.0427 0.011287,-0.0544 0.054082,-0.0541 0.2568467,0.002 0.5138595,0.002 0.7705386,0 0.032349,0 0.042963,0.008 0.042963,0.0421 -8.988e-4,1.2268 -8.988e-4,2.45358 0,3.68033 0,0.0316 -0.00615,0.0432 -0.041025,0.043 -0.2610292,-0.002 -0.5221714,-0.002 -0.7834264,0 -0.033696,0 -0.043804,-0.0106 -0.042794,-0.0433 0.00177,-0.0648 3.369e-4,-0.12931 3.369e-4,-0.19417 z m -0.5160506,-0.40435 c 0.030832,0 0.062084,0.003 0.092663,-5.1e-4 0.3133705,-0.0382 0.5248965,-0.36223 0.4321489,-0.66658 -0.1084161,-0.35524 -0.5291919,-0.48185 -0.8204926,-0.29392 -0.2121148,0.13689 -0.2713342,0.3314 -0.2391556,0.52995 0.039508,0.24464 0.2689755,0.44791 0.5348363,0.43106 z"
         style="fill:#00b964;fill-opacity:1;fill-rule:nonzero;stroke:none;stroke-width:0.00842394"
         id="path3849"
         inkscape:connector-curvature="0" />
      <path
         d="m -8.5416396,155.1752 c 0.3087377,-5e-4 0.5659202,0.041 0.8021273,0.16848 0.3285337,0.17791 0.560445,0.43804 0.6433363,0.80996 0.1263591,0.56752 -0.1473346,1.11525 -0.6750104,1.36519 -0.1873483,0.0887 -0.3859007,0.13023 -0.5920347,0.14447 -0.2198646,0.0152 -0.4372027,0.003 -0.650244,-0.0534 -0.3901126,-0.10328 -0.6894152,-0.32559 -0.8548615,-0.69919 -0.1837264,-0.41463 -0.1373944,-0.92116 0.2054597,-1.28886 0.2144735,-0.22998 0.478143,-0.35987 0.7839319,-0.41412 0.125938,-0.0217 0.2524652,-0.0334 0.3372944,-0.0325 z m 0.023335,0.70761 c -0.04217,-8.6e-4 -0.084009,0.002 -0.1255169,0.01 -0.3151397,0.0617 -0.5548849,0.42398 -0.3822785,0.76456 0.116419,0.22972 0.3584386,0.34395 0.6261517,0.29593 0.302672,-0.0544 0.4977707,-0.35481 0.4309685,-0.6542 -0.047342,-0.2122 -0.2726829,-0.42684 -0.5493253,-0.4164 l 5e-7,1.7e-4 z"
         style="fill:#00b964;fill-opacity:1;fill-rule:nonzero;stroke:none;stroke-width:0.00842394"
         id="path3851"
         inkscape:connector-curvature="0" />
      <path
         d="m -0.42281446,155.54906 c 0.0592279,-0.0707 0.12622516,-0.13314 0.20099437,-0.18718 0.12408548,-0.0883 0.265018,-0.12956 0.41513261,-0.14473 0.19172887,-0.0193 0.38076208,-0.012 0.56221375,0.059 0.27579983,0.10842 0.43720253,0.31101 0.48976783,0.60214 0.014321,0.0791 0.016848,0.15846 0.016848,0.2384 -3.369e-4,0.47444 -8.42e-5,0.94884 7.582e-4,1.42322 0,0.0375 -0.00986,0.0464 -0.046669,0.0462 -0.25541301,-0.002 -0.51093975,-0.002 -0.76657769,0 -0.042626,0 -0.0496179,-0.0131 -0.0495336,-0.052 0.001461,-0.39019 0.001461,-0.78036 0,-1.1705 2.106e-4,-0.0814 -0.007965,-0.16198 -0.0245145,-0.24169 -0.0295672,-0.13655 -0.11591257,-0.22121 -0.24816758,-0.25052 -0.1744598,-0.0388 -0.33131356,-6.8e-4 -0.45388273,0.13815 -0.0589676,0.0668 -0.078763,0.14952 -0.0893772,0.23587 -0.012299,0.0992 -0.006824,0.19889 -0.006992,0.29829 -7.3288e-4,0.33269 -5.644e-4,0.66535 5.0544e-4,0.99798 0,0.0347 -0.008424,0.0446 -0.0440572,0.0445 -0.2583336,-0.002 -0.51666889,-0.002 -0.77500244,0 -0.036055,0 -0.043553,-0.0109 -0.043468,-0.045 8.989e-4,-0.7453 8.989e-4,-1.49059 0,-2.23588 0,-0.0378 0.010362,-0.0462 0.046838,-0.0459 0.25681806,0.002 0.51366399,0.002 0.77053772,0 0.0336958,0 0.0464159,0.007 0.0451523,0.0434 -0.002612,0.0786 -5.0544e-4,0.15702 -5.0544e-4,0.24632 z"
         style="fill:#00b964;fill-opacity:1;fill-rule:nonzero;stroke:none;stroke-width:0.00842394"
         id="path3853"
         inkscape:connector-curvature="0" />
      <path
         d="m -1.8386252,156.0657 c 0,0.24429 0.00522,0.48858 -0.00135,0.73288 -0.00842,0.31564 -0.1487668,0.55724 -0.4287785,0.71165 -0.169237,0.0933 -0.3526262,0.1379 -0.5432599,0.16082 -0.1479303,0.0169 -0.2962464,0.0216 -0.4449517,0.0141 -0.2720941,-0.0121 -0.5374482,-0.0569 -0.7733185,-0.20613 -0.2250304,-0.14225 -0.3513895,-0.34636 -0.3790773,-0.61234 -0.00555,-0.0629 -0.00783,-0.12584 -0.00683,-0.18895 1.7e-6,-0.45624 1.7e-6,-0.91256 -0.00101,-1.3688 0,-0.0371 0.00767,-0.0497 0.04768,-0.0494 0.2569302,0.002 0.5138604,0.002 0.7707905,0 0.037992,0 0.049533,0.008 0.049364,0.0484 -0.00152,0.42819 -6.739e-4,0.85638 -0.00118,1.28456 0,0.0694 0.00741,0.13689 0.035295,0.201 0.049617,0.11414 0.1427858,0.17497 0.2592047,0.19948 0.1051307,0.0221 0.2119471,0.0207 0.3150562,-0.0155 0.1411852,-0.0497 0.2153159,-0.1529 0.2346901,-0.2993 0.00842,-0.0642 0.008,-0.12855 0.008,-0.193 0,-0.39314 5.055e-4,-0.7862 -9.266e-4,-1.17935 0,-0.0372 0.00935,-0.0466 0.046416,-0.0463 0.2569302,0.002 0.5138603,0.002 0.7707905,0 0.03437,0 0.044984,0.008 0.044732,0.0437 -0.0016,0.25407 -8.424e-4,0.50822 -8.424e-4,0.76237 l -5.055e-4,1.7e-4 z"
         style="fill:#00b964;fill-opacity:1;fill-rule:nonzero;stroke:none;stroke-width:0.00842394"
         id="path3855"
         inkscape:connector-curvature="0" />
      <path
         d="m 11.794511,156.57644 h -0.846438 c -0.04878,0 -0.05282,0.005 -0.04642,0.0536 0.0063,0.0471 0.0094,0.0946 0.02182,0.14093 0.03951,0.14641 0.127287,0.24775 0.274031,0.29298 0.127202,0.0393 0.255583,0.0471 0.384889,0.008 0.09368,-0.0278 0.167385,-0.0842 0.225003,-0.16132 0.01685,-0.0222 0.03327,-0.033 0.06225,-0.0329 0.247101,10e-4 0.494204,10e-4 0.741306,0 0.04069,0 0.04288,0.0121 0.03142,0.0461 -0.130319,0.38548 -0.406034,0.60652 -0.792441,0.70323 -0.1256,0.0312 -0.253478,0.0426 -0.383037,0.0448 -0.224413,0.004 -0.445457,-0.016 -0.656308,-0.096 -0.413617,-0.15702 -0.675599,-0.44874 -0.754364,-0.88805 -0.060062,-0.33494 -0.01634,-0.65707 0.169068,-0.94955 0.14186,-0.22391 0.341424,-0.37907 0.593045,-0.45994 0.340496,-0.10952 0.687226,-0.11794 1.030838,-0.0202 0.425241,0.12046 0.677034,0.41437 0.79261,0.83313 0.04111,0.14868 0.04692,0.30115 0.0449,0.45447 0,0.0337 -0.01988,0.0303 -0.04136,0.0303 l -0.850819,9e-5 z m -0.390366,-0.46517 c 0.148654,0 0.297476,0 0.446468,0 0.01752,0 0.04044,0.005 0.03201,-0.0263 -0.03125,-0.11642 -0.08298,-0.21995 -0.18482,-0.29198 -0.101845,-0.072 -0.21717,-0.0832 -0.336958,-0.0785 -0.219022,0.008 -0.384383,0.14809 -0.431221,0.36223 -0.0067,0.0309 0.0015,0.035 0.02881,0.0349 0.148259,-7.6e-4 0.297028,-3.4e-4 0.44571,-3.4e-4 z"
         style="fill:#00b964;fill-opacity:1;fill-rule:nonzero;stroke:none;stroke-width:0.00842394"
         id="path3857"
         inkscape:connector-curvature="0" />
      <path
         d="m -6.2272459,156.76092 c 0,-0.25819 -6.739e-4,-0.51647 7.582e-4,-0.775 0,-0.0346 -0.00842,-0.0459 -0.043889,-0.0446 -0.075816,0.003 -0.151631,0 -0.2274464,0.001 -0.025693,5.1e-4 -0.033696,-0.008 -0.033696,-0.0337 8.427e-4,-0.20487 8.427e-4,-0.40986 0,-0.61495 0,-0.0289 0.010193,-0.0352 0.03656,-0.0347 0.074383,0.002 0.1489352,-0.002 0.2231501,0.002 0.039003,0.002 0.046247,-0.0118 0.045489,-0.0474 -0.00236,-0.10244 -0.00345,-0.20496 0,-0.30731 0.00665,-0.21363 0.042625,-0.42187 0.1631716,-0.60299 0.160476,-0.241 0.385985,-0.39398 0.6689454,-0.458 0.1982994,-0.0449 0.3936506,-0.0359 0.5846217,0.0403 0.03597,0.0143 0.047427,0.0322 0.047006,0.0707 -0.00211,0.20344 -9.266e-4,0.40704 -9.266e-4,0.61057 0,0.0585 0,0.059 -0.050544,0.0337 -0.090136,-0.0455 -0.1838945,-0.0728 -0.2864137,-0.067 -0.1416064,0.008 -0.2378077,0.10336 -0.250949,0.2443 -0.013815,0.14843 -0.00691,0.29702 -0.010446,0.44545 -7.581e-4,0.0302 0.00952,0.0377 0.038329,0.0375 0.1726908,-10e-4 0.3453815,0 0.5179035,-10e-4 0.032265,0 0.043467,0.007 0.043216,0.0421 -0.00157,0.19785 -0.00157,0.39576 0,0.59372 0,0.036 -0.00842,0.0487 -0.046753,0.0482 -0.1656149,-0.002 -0.3312299,-0.001 -0.497013,-7.6e-4 -0.061832,0 -0.055009,-0.007 -0.055009,0.0574 0,0.5096 0,1.01911 0,1.52853 0,0.0571 0,0.0571 -0.05703,0.0571 -0.255414,0 -0.5109121,-5.9e-4 -0.7665786,7.6e-4 -0.032937,0 -0.042709,-0.008 -0.04212,-0.0421 2.519e-4,-0.26106 -3.378e-4,-0.52211 -3.378e-4,-0.78326 z"
         style="fill:#00b964;fill-opacity:1;fill-rule:nonzero;stroke:none;stroke-width:0.00842394"
         id="path3859"
         inkscape:connector-curvature="0" />
      <path
         d="m 13.155314,151.67497 c -0.164519,-0.19788 -0.552274,-0.24665 -0.792272,-0.13386 -0.05054,0.0238 -0.103278,0.043 -0.148682,0.0758 l -1.439819,1.04457 c -0.102519,0.0895 -0.19535,0.19114 -0.209924,0.32322 -0.01331,0.12047 0,0.22012 0.105384,0.32769 0.238398,0.24278 0.659257,0.2443 0.859916,0.12198 0.184315,-0.11195 1.401912,-1.0118 1.600549,-1.15846 l 0.05156,-0.0516 c 0.05888,-0.0811 0.160898,-0.32364 -0.0267,-0.54932 z"
         style="fill:#00b964;fill-opacity:1;fill-rule:nonzero;stroke:none;stroke-width:0.00842394"
         id="path3861"
         inkscape:connector-curvature="0" />
      <path
         d="m 7.0985012,153.27543 c 0.105552,-0.10757 0.1186942,-0.20723 0.1053835,-0.32769 -0.014573,-0.13208 -0.1074052,-0.23376 -0.2099237,-0.32322 l -1.439819,-1.04457 c -0.045404,-0.0329 -0.098054,-0.0521 -0.1486817,-0.0758 -0.2399981,-0.11279 -0.6277529,-0.064 -0.7918504,0.13386 -0.187602,0.22568 -0.085587,0.46812 -0.026284,0.54907 l 0.051556,0.0516 c 0.1977933,0.14691 1.4153904,1.04676 1.5998739,1.15871 0.2004898,0.12207 0.6213498,0.1208 0.8597473,-0.12198 z"
         style="fill:#00b964;fill-opacity:1;fill-rule:nonzero;stroke:none;stroke-width:0.00842394"
         id="path3863"
         inkscape:connector-curvature="0" />
      <path
         d="m 8.8946537,153.00241 c 0.3073896,0 0.5649937,-0.13992 0.6381977,-0.39971 0.00956,-0.0359 0.014301,-0.0724 0.014238,-0.10951 l 0.00691,-0.93658 c 0,-0.008 5.897e-4,-0.0158 5.897e-4,-0.0237 0,-0.36004 -0.2902048,-0.52734 -0.6546244,-0.52734 -0.3622294,0 -0.6566461,0.19434 -0.6595954,0.55101 l -6.739e-4,0.94416 c -5.896e-4,0.0369 0.00303,0.0734 0.010867,0.10951 0.06259,0.27016 0.3270165,0.39213 0.6440953,0.39213 z"
         style="fill:#00b964;fill-opacity:1;fill-rule:nonzero;stroke:none;stroke-width:0.00842394"
         id="path3865"
         inkscape:connector-curvature="0" />
      <path
         d="m 10.794924,153.70674 c -0.488588,-0.24312 -1.1343665,-0.39593 -1.9776038,-0.39593 -1.4128632,0 -2.3603029,0.44588 -2.8416485,1.09394 h 0.00725 l -0.00202,0.003 5.6861593,-5.1e-4 c -0.207312,-0.26855 -0.49221,-0.5115 -0.872131,-0.70011 z"
         style="fill:#00b964;fill-opacity:1;fill-rule:nonzero;stroke:none;stroke-width:0.00842394"
         id="path3867"
         inkscape:connector-curvature="0" />
      <path
         d="m -11.318338,157.32095 c -0.04212,0.0348 -0.07641,0.0644 -0.111955,0.0927 -0.154158,0.12392 -0.330302,0.1903 -0.527422,0.20773 -0.280939,0.0253 -0.545029,-0.0238 -0.785364,-0.17479 -0.289868,-0.18162 -0.452029,-0.44883 -0.501899,-0.78461 -0.04212,-0.28119 -0.01441,-0.55598 0.119199,-0.80971 0.191392,-0.36307 0.4912,-0.58285 0.901362,-0.64333 0.214979,-0.0318 0.424566,-0.0134 0.624803,0.0772 0.08955,0.0405 0.164772,0.10109 0.233091,0.17034 0.01323,0.0135 0.02451,0.0289 0.03673,0.0435 l 0.01272,-0.008 c 0,-0.0625 0.0014,-0.12509 -6.74e-4,-0.18751 -10e-4,-0.0316 0.0064,-0.0439 0.04136,-0.0437 0.258334,0.002 0.516668,0.002 0.775002,0 0.02889,0 0.03841,0.007 0.03841,0.0375 -10e-4,0.76085 0.0012,1.5217 -0.003,2.28289 -10e-4,0.17623 -0.02157,0.35271 -0.104794,0.51428 -0.123158,0.23933 -0.315477,0.40519 -0.55598,0.51782 -0.187601,0.088 -0.387501,0.12485 -0.593635,0.13773 -0.255919,0.016 -0.507627,-0.003 -0.749731,-0.0881 -0.307305,-0.10749 -0.548567,-0.29627 -0.702641,-0.58774 -0.0283,-0.0536 -0.0438,-0.1117 -0.05551,-0.17117 -0.0061,-0.0307 -0.0012,-0.0404 0.03311,-0.0402 0.214726,0.002 0.429621,8.4e-4 0.644263,8.4e-4 0.08143,0 0.162863,0 0.244294,0 0.01744,0 0.03193,0 0.03984,0.0214 0.05164,0.13833 0.162077,0.20066 0.299471,0.21802 0.135373,0.0168 0.269061,0.006 0.392219,-0.0621 0.156685,-0.0868 0.23427,-0.22374 0.250444,-0.39879 0.0097,-0.10437 0.0076,-0.20891 0.0063,-0.32221 z m -0.509143,-0.36771 c 0.292984,0.008 0.551094,-0.23183 0.551262,-0.53778 0,-0.29661 -0.231742,-0.54554 -0.549072,-0.54562 -0.3362,0 -0.54545,0.27917 -0.546967,0.54309 -0.0017,0.27976 0.240504,0.54511 0.544777,0.54031 z"
         style="fill:#00b964;fill-opacity:1;fill-rule:nonzero;stroke:none;stroke-width:0.00842394"
         id="path3869"
         inkscape:connector-curvature="0" />
    </g>
  </g>
</svg>
