<svg width="198" height="24" viewBox="0 0 198 24" fill="none" xmlns="http://www.w3.org/2000/svg">
<path fill-rule="evenodd" clip-rule="evenodd" d="M19.3125 11.9706C19.3125 13.4397 18.8859 14.8481 18.1553 16.0112L21.1426 19.0123C22.6058 17.0537 23.5199 14.6048 23.5199 11.9726C23.5199 9.34027 22.6058 6.89236 21.1426 4.93286L18.1553 7.9339C18.9205 9.14199 19.3225 10.5445 19.3135 11.9745L19.3125 11.9706Z" fill="#B8D3F4"/>
<path fill-rule="evenodd" clip-rule="evenodd" d="M11.8796 19.4379C7.7958 19.4379 4.44268 16.071 4.44268 11.9696C4.44268 7.8682 7.79482 4.50135 11.8796 4.50135C13.4036 4.50135 14.7433 4.92993 15.9025 5.7253L18.8898 2.72426C16.9382 1.25512 14.5011 0.337158 11.8796 0.337158C5.47931 0.337158 0.238281 5.54092 0.238281 12.0294C0.238281 18.518 5.48029 23.6609 11.8796 23.6609C14.5619 23.6609 16.999 22.743 18.9408 21.2738L15.9535 18.2728C14.7963 19.0083 13.4036 19.4359 11.8698 19.4359L11.8796 19.4379Z" fill="#3385FF"/>
<path d="M191.2 16.1733C190.612 16.178 190.03 16.057 189.493 15.8184C188.956 15.5798 188.476 15.2292 188.086 14.7901C188.043 14.7042 188.043 14.6182 188.128 14.5753L195.395 11.5039L197.515 10.5953C197.6 10.5524 197.6 10.5094 197.6 10.4665C197.26 8.98468 196.412 7.66836 195.204 6.74456C193.997 5.82076 192.504 5.3474 190.985 5.40613C187.613 5.535 184.799 8.26276 184.67 11.6349C184.627 12.5237 184.764 13.4121 185.075 14.2459C185.386 15.0797 185.864 15.8414 186.479 16.4846C187.094 17.1278 187.833 17.6389 188.653 17.9868C189.472 18.3346 190.353 18.512 191.243 18.508C193.966 18.508 196.303 16.8219 197.3 14.4443C197.343 14.3583 197.3 14.2724 197.214 14.2724L195.094 13.8858C195.051 13.8858 194.965 13.8858 194.965 13.9717C194.188 15.269 192.802 16.1776 191.202 16.1776L191.2 16.1733ZM191.2 7.78379C192.454 7.78379 193.578 8.34653 194.314 9.20996C194.357 9.29588 194.357 9.38179 194.271 9.42475L187.179 12.4317C187.162 12.4388 187.144 12.4421 187.126 12.4415C187.107 12.4409 187.089 12.4364 187.073 12.4283C187.056 12.4201 187.042 12.4086 187.03 12.3943C187.018 12.3801 187.01 12.3636 187.005 12.3458V12C186.962 9.62235 188.865 7.76232 191.2 7.76232V7.78379ZM184.365 5.62091H182.291C182.248 5.62091 182.205 5.66387 182.162 5.70683L178.79 15.5869C178.704 15.8017 178.446 15.8017 178.36 15.5869L174.988 5.70683C174.988 5.66387 174.945 5.62091 174.859 5.62091H172.784C172.698 5.62091 172.655 5.70683 172.655 5.79274L176.936 18.246C176.936 18.2889 176.979 18.3319 177.065 18.3319H180.007C180.05 18.3319 180.093 18.2889 180.136 18.246L184.417 5.79274C184.503 5.70683 184.46 5.62091 184.374 5.62091H184.365ZM170.705 5.62091H168.585C168.499 5.62091 168.456 5.66387 168.456 5.74978V18.203C168.456 18.2889 168.499 18.3319 168.585 18.3319H170.705C170.791 18.3319 170.834 18.2889 170.834 18.203V5.77126C170.834 5.72831 170.791 5.64239 170.705 5.64239V5.62091ZM170.705 1.55719H168.585C168.499 1.55719 168.456 1.60014 168.456 1.68606V3.80598C168.456 3.8919 168.499 3.93485 168.585 3.93485H170.705C170.791 3.93485 170.834 3.8919 170.834 3.80598V1.68606C170.834 1.60014 170.791 1.55719 170.705 1.55719ZM166.334 5.62091H163.957C163.914 5.62091 163.871 5.57795 163.871 5.535V0.12887C163.871 0.0429558 163.828 0 163.742 0H161.641C161.555 0 161.512 0.0429558 161.512 0.12887V5.55648C161.512 5.59943 161.469 5.64239 161.426 5.64239H159.092C159.006 5.64239 158.963 5.68535 158.963 5.77126V7.89118C158.963 7.9771 159.006 8.02005 159.092 8.02005H161.426C161.469 8.02005 161.512 8.06301 161.512 8.10597V18.2008C161.512 18.2868 161.555 18.3297 161.641 18.3297H163.761C163.847 18.3297 163.89 18.2868 163.89 18.2008V8.10597C163.89 8.06301 163.933 8.02005 163.976 8.02005H166.354C166.44 8.02005 166.482 7.9771 166.482 7.89118V5.77126C166.482 5.72831 166.397 5.64239 166.354 5.64239L166.334 5.62091Z" fill="#7A7B82"/>
<path d="M152.452 16.1732C151.831 16.1723 151.217 16.0344 150.655 15.7695C150.092 15.5045 149.595 15.1189 149.199 14.6401C148.803 14.1613 148.517 13.6011 148.361 12.9993C148.206 12.3974 148.185 11.7687 148.3 11.158C148.558 9.68668 150.029 8.17244 151.522 7.87175C152.254 7.70369 153.017 7.73545 153.733 7.96368C154.448 8.19191 155.089 8.60822 155.588 9.16904C155.631 9.212 155.717 9.212 155.76 9.16904L157.274 7.65481C157.317 7.61186 157.317 7.52594 157.274 7.48299C156.02 6.09977 154.16 5.27715 152.128 5.36306C148.799 5.53489 146.028 8.26266 145.856 11.5918C145.684 15.3548 148.67 18.4649 152.429 18.4649C154.332 18.4649 156.058 17.6423 157.272 16.345C157.315 16.302 157.315 16.2591 157.272 16.2161L155.758 14.7019C155.715 14.6589 155.629 14.6589 155.586 14.7019C154.851 15.6534 153.726 16.1732 152.472 16.1732H152.452Z" fill="#7A7B82"/>
<path d="M138.311 16.1733C137.723 16.178 137.142 16.057 136.604 15.8184C136.067 15.5798 135.587 15.2292 135.197 14.7901C135.154 14.7042 135.154 14.6182 135.24 14.5753L142.506 11.5039L144.626 10.5953C144.712 10.5524 144.712 10.5094 144.712 10.4665C144.371 8.98468 143.523 7.66836 142.316 6.74456C141.108 5.82076 139.616 5.3474 138.096 5.40613C134.724 5.535 131.911 8.26276 131.782 11.6349C131.738 12.5237 131.876 13.4121 132.187 14.2459C132.498 15.0797 132.975 15.8414 133.59 16.4846C134.205 17.1278 134.945 17.6389 135.764 17.9868C136.583 18.3346 137.464 18.512 138.354 18.508C141.078 18.508 143.414 16.8219 144.411 14.4443C144.454 14.3583 144.411 14.2724 144.325 14.2724L142.205 13.8858C142.162 13.8858 142.076 13.8858 142.076 13.9717C141.299 15.269 139.871 16.1776 138.313 16.1776L138.311 16.1733ZM138.311 7.78379C139.566 7.78379 140.689 8.34653 141.426 9.20996C141.469 9.29588 141.469 9.38179 141.383 9.42475L134.29 12.4317C134.273 12.4388 134.255 12.4421 134.237 12.4415C134.218 12.4409 134.2 12.4364 134.184 12.4283C134.167 12.4201 134.153 12.4086 134.141 12.3943C134.13 12.3801 134.121 12.3636 134.116 12.3458V12C134.073 9.62235 135.976 7.76232 138.311 7.76232V7.78379ZM129.965 0H127.845C127.759 0 127.716 0.0429558 127.716 0.12887V18.2051C127.716 18.2911 127.759 18.334 127.845 18.334H129.965C130.051 18.334 130.094 18.2911 130.094 18.2051V0.12887C130.094 0.0429558 130.008 0 129.965 0ZM125.336 0H123.195C123.109 0 123.066 0.0429558 123.066 0.12887V18.2051C123.066 18.2911 123.109 18.334 123.195 18.334H125.315C125.4 18.334 125.443 18.2911 125.443 18.2051V0.12887C125.4 0.0429558 125.358 0 125.315 0H125.336ZM114.958 7.78379C117.292 7.78379 119.152 9.68678 119.152 11.9785C119.143 13.0881 118.698 14.1495 117.913 14.9341C117.129 15.7187 116.067 16.1637 114.958 16.1733C113.848 16.1637 112.787 15.7187 112.002 14.9341C111.217 14.1495 110.772 13.0881 110.763 11.9785C110.763 9.68678 112.623 7.78379 114.958 7.78379ZM114.958 5.40613C114.095 5.40613 113.24 5.57613 112.443 5.90642C111.645 6.23672 110.921 6.72084 110.31 7.33114C109.7 7.94145 109.216 8.66598 108.886 9.46338C108.555 10.2608 108.385 11.1154 108.385 11.9785C108.385 12.8416 108.555 13.6963 108.886 14.4937C109.216 15.2911 109.7 16.0156 110.31 16.6259C110.921 17.2362 111.645 17.7204 112.443 18.0506C113.24 18.3809 114.095 18.5509 114.958 18.5509C115.821 18.5509 116.675 18.3809 117.473 18.0506C118.27 17.7204 118.995 17.2362 119.605 16.6259C120.215 16.0156 120.699 15.2911 121.03 14.4937C121.36 13.6963 121.53 12.8416 121.53 11.9785C121.53 11.1154 121.36 10.2608 121.03 9.46338C120.699 8.66598 120.215 7.94145 119.605 7.33114C118.995 6.72084 118.27 6.23672 117.473 5.90642C116.675 5.57613 115.821 5.40613 114.958 5.40613V5.40613Z" fill="#7A7B82"/>
<path d="M102.89 16.1732C102.269 16.1723 101.655 16.0344 101.093 15.7695C100.53 15.5045 100.033 15.1189 99.6371 14.6401C99.2407 14.1613 98.9547 13.6011 98.7994 12.9993C98.6441 12.3974 98.6233 11.7687 98.7384 11.158C98.9962 9.68668 100.467 8.17244 101.96 7.87175C102.692 7.70369 103.455 7.73545 104.171 7.96368C104.886 8.19191 105.527 8.60822 106.026 9.16904C106.069 9.212 106.155 9.212 106.198 9.16904L107.712 7.65481C107.755 7.61186 107.755 7.52594 107.712 7.48299C106.458 6.09977 104.598 5.27715 102.566 5.36306C99.2367 5.53489 96.466 8.26266 96.2942 11.5918C96.1223 15.3548 99.1078 18.4649 102.867 18.4649C104.77 18.4649 106.496 17.6423 107.71 16.345C107.753 16.302 107.753 16.2591 107.71 16.2161L106.196 14.7019C106.153 14.6589 106.067 14.6589 106.024 14.7019C105.289 15.6534 104.164 16.1732 102.91 16.1732H102.89Z" fill="#7A7B82"/>
<path d="M81.397 5.40603C80.6764 5.43643 79.9709 5.62222 79.3289 5.95068C78.6868 6.27914 78.1233 6.74249 77.6769 7.30902C77.634 7.39493 77.4622 7.35197 77.4622 7.26606V5.75183C77.4622 5.70887 77.4192 5.62296 77.3333 5.62296H75.2134C75.1704 5.62296 75.0845 5.66591 75.0845 5.75183V18.248C75.0845 18.291 75.1275 18.3769 75.2134 18.3769H77.3333C77.3762 18.3769 77.4622 18.3339 77.4622 18.248V11.9999C77.4622 9.62225 79.0623 7.93619 81.3541 7.93619C84.361 7.93619 85.2889 9.92509 85.2889 12.2598V18.2308C85.2889 18.2738 85.3319 18.3597 85.4178 18.3597H87.5377C87.5807 18.3597 87.6666 18.3167 87.6666 18.2308V12.2813C87.7095 8.62994 85.9805 5.40817 81.3949 5.40817L81.397 5.40603ZM67.4296 16.1732C66.8419 16.1779 66.26 16.0569 65.7228 15.8183C65.1857 15.5797 64.7058 15.2291 64.3152 14.79C64.2722 14.704 64.2722 14.6181 64.3582 14.5752L71.6243 11.5038L73.7442 10.5952C73.8301 10.5523 73.8301 10.5093 73.8301 10.4663C73.4892 8.98457 72.6418 7.66826 71.4341 6.74446C70.2264 5.82065 68.7342 5.34729 67.2148 5.40603C63.8427 5.5349 61.029 8.26266 60.9001 11.6348C60.8563 12.5236 60.9941 13.412 61.305 14.2458C61.6159 15.0796 62.0935 15.8413 62.7085 16.4845C63.3235 17.1277 64.0631 17.6388 64.8822 17.9867C65.7013 18.3345 66.5826 18.5119 67.4725 18.5079C70.196 18.5079 72.5329 16.8218 73.5295 14.4442C73.5724 14.3582 73.5295 14.2723 73.4435 14.2723L71.3236 13.8857C71.2807 13.8857 71.1947 13.8857 71.1947 13.9716C70.4172 15.2689 69.0319 16.1775 67.4317 16.1775L67.4296 16.1732ZM67.4296 7.78369C68.6839 7.78369 69.8072 8.34643 70.5439 9.20986C70.5869 9.29577 70.5869 9.38169 70.501 9.42465L63.4088 12.4316C63.3918 12.4387 63.3735 12.442 63.3552 12.4414C63.3368 12.4408 63.3188 12.4363 63.3023 12.4282C63.2858 12.42 63.2713 12.4085 63.2597 12.3942C63.248 12.38 63.2395 12.3635 63.2348 12.3457V11.9999C63.2312 11.446 63.3368 10.8968 63.5458 10.3838C63.7548 9.8708 64.0629 9.40408 64.4526 9.0104C64.8423 8.61673 65.3059 8.30382 65.8167 8.08963C66.3276 7.87544 66.8756 7.76418 67.4296 7.76221V7.78369ZM53.0712 5.27716C51.4281 5.32011 50.1287 5.96876 49.2223 7.04913C49.1364 7.13504 49.0075 7.09209 49.0075 6.96321V5.75183C49.0075 5.66591 48.9645 5.62296 48.8786 5.62296H46.7587C46.6728 5.62296 46.6298 5.66591 46.6298 5.75183V23.8711C46.6298 23.957 46.6728 23.9999 46.7587 23.9999H48.8335C48.9194 23.9999 48.9624 23.957 48.9624 23.8711V16.7359C48.9624 16.607 49.0913 16.5641 49.1772 16.65C50.0857 17.7304 51.426 18.422 53.155 18.422C57.1779 18.422 60.376 14.7706 59.5985 10.6382C59.0787 7.48084 56.2264 5.23205 53.0691 5.27716H53.0712ZM53.8939 16.0013C53.2331 16.1112 52.5556 16.0619 51.9178 15.8573C51.2799 15.6528 50.7001 15.299 50.2264 14.8254C49.7528 14.3517 49.399 13.7719 49.1945 13.134C48.9899 12.4962 48.9406 11.8187 49.0505 11.158C49.3512 9.42894 50.7365 8.00062 52.487 7.7214C53.1478 7.61151 53.8252 7.66088 54.4631 7.86541C55.1009 8.06994 55.6808 8.42373 56.1544 8.89738C56.6281 9.37103 56.9819 9.95087 57.1864 10.5887C57.3909 11.2266 57.4403 11.904 57.3304 12.5648C57.0727 14.2938 55.6443 15.6792 53.8939 16.0013ZM38.8439 5.40603C37.9808 5.40603 37.1261 5.57603 36.3287 5.90632C35.5313 6.23662 34.8068 6.72074 34.1965 7.33104C33.5862 7.94134 33.1021 8.66588 32.7718 9.46328C32.4415 10.2607 32.2715 11.1153 32.2715 11.9784C32.2715 12.8415 32.4415 13.6962 32.7718 14.4936C33.1021 15.291 33.5862 16.0155 34.1965 16.6258C34.8068 17.2361 35.5313 17.7202 36.3287 18.0505C37.1261 18.3808 37.9808 18.5508 38.8439 18.5508C40.587 18.5508 42.2587 17.8584 43.4913 16.6258C44.7239 15.3933 45.4163 13.7215 45.4163 11.9784C45.4163 10.2353 44.7239 8.56361 43.4913 7.33104C42.2587 6.09847 40.587 5.40603 38.8439 5.40603V5.40603ZM38.8439 7.78369C41.1786 7.78369 43.0386 9.68668 43.0386 11.9784C43.0291 13.088 42.5841 14.1494 41.7995 14.934C41.0149 15.7186 39.9535 16.1636 38.8439 16.1732C37.7343 16.1636 36.6729 15.7186 35.8883 14.934C35.1037 14.1494 34.6587 13.088 34.6491 11.9784C34.6587 10.8689 35.1037 9.80745 35.8883 9.02284C36.6729 8.23823 37.7343 7.79323 38.8439 7.78369V7.78369Z" fill="#7A7B82"/>
</svg>
